SplineFontDB: 3.2
FontName: Samaano-Bold
FullName: Samaano Bold
FamilyName: Samaano
Weight: Bold
Copyright: Copyright 2024 The Samaano Project Authors (https://github.com/mitradranirban/samaano-fonts)
UComments: "2024-8-27: Created with FontForge (http://fontforge.org)"
Version: 0.600
ItalicAngle: 0
UnderlinePosition: -204
UnderlineWidth: 102
Ascent: 1638
Descent: 410
InvalidEm: 0
UFOAscent: 1638
UFODescent: -410
LayerCount: 2
Layer: 0 0 "Back" 1
Layer: 1 0 "public.default" 0 "glyphs"
StyleMap: 0x0020
FSType: 0
OS2Version: 0
OS2_WeightWidthSlopeOnly: 0
OS2_UseTypoMetrics: 0
CreationTime: 1727698731
ModificationTime: 1727852720
PfmFamily: 16
TTFWeight: 700
TTFWidth: 5
LineGap: 0
VLineGap: 0
Panose: 2 7 8 9 2 2 5 2 4 4
OS2TypoAscent: 2457
OS2TypoAOffset: 0
OS2TypoDescent: -615
OS2TypoDOffset: 0
OS2TypoLinegap: 0
OS2WinAscent: 2476
OS2WinAOffset: 0
OS2WinDescent: 958
OS2WinDOffset: 0
HheadAscent: 2457
HheadAOffset: 0
HheadDescent: -615
HheadDOffset: 0
OS2CapHeight: 1548
OS2XHeight: 1024
OS2FamilyClass: 1031
OS2Vendor: 'anir'
OS2CodePages: 00000093.00000000
OS2UnicodeRanges: 8000806f.0000204a.00000000.00000000
Lookup: 4 0 0 "'abvs' Above Base Substitutions in Devanagari lookup 0" { "'abvs' Above Base Substitutions in Devanagari lookup 0-1"  } ['abvs' ('deva' <'dflt' > ) ]
Lookup: 4 0 0 "nuktNuktaFormsinDevanagarilookup0" { "nuktNuktaFormsinDevanagarilookup0 subtable"  } ['nukt' ('deva' <'dflt' > ) ]
Lookup: 4 0 0 "akhnAkhandinDevanagarilookup0" { "akhnAkhandinDevanagarilookup0 subtable"  } ['akhn' ('deva' <'dflt' > ) ]
Lookup: 4 0 0 "rphfRephForminDevanagarilookup0" { "rphfRephForminDevanagarilookup0 subtable"  } ['rphf' ('deva' <'dflt' > ) ]
Lookup: 4 0 0 "blwfBelowBaseFormsinDevanagarilookup0" { "blwfBelowBaseFormsinDevanagarilookup0 subtable"  } ['blwf' ('deva' <'dflt' > ) ]
Lookup: 4 0 0 "halfHalfFormsinDevanagarilookup0" { "halfHalfFormsinDevanagarilookup0 subtable"  } ['half' ('deva' <'dflt' > ) ]

StartChar: .notdef
Encoding: 0 0 0
GlifName: _notdef
Width: 1024
VWidth: 0
Flags: W
HStem: 0 64 1558 82
VStem: 100 74 1021 77
LayerCount: 2
Fore
SplineSet
18 -26 m 257
 1016 -26 l 257
 1016 1614 l 257
 18 1614 l 257
 18 -26 l 257
92 54 m 257
 92 1536 l 257
 485 817 l 257
 92 54 l 257
184 54 m 257
 523 740 l 257
 864 54 l 257
 184 54 l 257
212 1548 m 257
 843 1548 l 257
 525 899 l 257
 212 1548 l 257
563 822 m 257
 939 1549 l 257
 939 54 l 257
 563 822 l 257
EndSplineSet
PickledDataWithLists: "(dp0
Vcom.fontlab.hintData
p1
(dp2
Vhhints
p3
(lp4
(dp5
Vposition
p6
I0
sVwidth
p7
I64
sa(dp8
g6
I1558
sg7
I82
sasVvhints
p9
(lp10
(dp11
g6
I100
sg7
I74
sa(dp12
g6
I1021
sg7
I77
sass."
EndChar

StartChar: A
Encoding: 34 65 1
GlifName: A_
Width: 1024
VWidth: 0
GlyphClass: 2
Flags: W
LayerCount: 2
Fore
SplineSet
125 0 m 257
 324 0 l 257
 324 1548 l 257
 125 1548 l 257
 125 0 l 257
186 1332 m 257
 847 1332 l 257
 847 1548 l 257
 186 1548 l 257
 186 1332 l 257
204 1025 m 257
 204 849 l 257
 835 849 l 257
 835 1025 l 257
 204 1025 l 257
722 0 m 257
 922 0 l 257
 922 1548 l 257
 722 1548 l 257
 722 0 l 257
EndSplineSet
Guideline: "WIN-ASCENT" "" 0 2457 0 0 0
Guideline: "X_HEIGHT" "" 0 1024 0 0 0
Guideline: "CAPS_HEIFGHT" "" 0 1548 0 0 0
EndChar

StartChar: AE
Encoding: 133 198 2
GlifName: A_E_
Width: 1024
VWidth: 0
GlyphClass: 2
Flags: W
LayerCount: 2
Fore
SplineSet
646 185 m 257
 646 0 l 257
 996 0 l 257
 996 185 l 257
 646 185 l 257
125 0 m 257
 324 0 l 257
 324 1548 l 257
 125 1548 l 257
 125 0 l 257
186 1332 m 257
 974 1332 l 257
 974 1548 l 257
 186 1548 l 257
 186 1332 l 257
204 1025 m 257
 204 849 l 257
 922 849 l 257
 922 1025 l 257
 204 1025 l 257
551 0 m 257
 751 0 l 257
 751 1548 l 257
 551 1548 l 257
 551 0 l 257
EndSplineSet
EndChar

StartChar: B
Encoding: 35 66 12
GlifName: B_
Width: 1024
VWidth: 0
GlyphClass: 2
Flags: W
LayerCount: 2
Fore
SplineSet
110 1 m 257
 318 1 l 257
 318 1533 l 257
 110 1533 l 257
 110 1 l 257
434 1331 m 257
 947 989 l 257
 947 1215 l 257
 434 1536 l 257
 434 1331 l 257
433 820 m 257
 948 991 l 257
 948 1215 l 257
 433 1020 l 257
 433 820 l 257
375 201 m 257
 375 1 l 257
 929 364 l 257
 929 588 l 257
 375 201 l 257
442 567 m 257
 929 364 l 257
 929 586 l 257
 442 766 l 257
 442 567 l 257
271 1021 m 257
 271 820 l 257
 433 820 l 257
 433 1021 l 257
 271 1021 l 257
270 766 m 257
 270 567 l 257
 442 567 l 257
 442 766 l 257
 270 766 l 257
208 200 m 257
 208 1 l 257
 375 1 l 257
 375 200 l 257
 208 200 l 257
270 1535 m 257
 270 1331 l 257
 433 1331 l 257
 433 1535 l 257
 270 1535 l 257
EndSplineSet
EndChar

StartChar: C
Encoding: 36 67 13
GlifName: C_
Width: 1024
VWidth: 0
GlyphClass: 2
Flags: W
HStem: 3 196<156 156 156 271 271 271> 1338 203<170 953>
VStem: 170 101<1338 1533 3 1541 1338 1338>
LayerCount: 2
Fore
SplineSet
71 1533 m 257
 75 3 l 257
 271 3 l 257
 271 1533 l 257
 71 1533 l 257
170 1541 m 257
 170 1338 l 257
 953 1338 l 257
 953 1541 l 257
 170 1541 l 257
156 199 m 257
 156 -3 l 257
 951 -3 l 257
 951 199 l 257
 156 199 l 257
EndSplineSet
PickledDataWithLists: "(dp0
Vcom.fontlab.hintData
p1
(dp2
Vhhints
p3
(lp4
(dp5
Vposition
p6
I3
sVwidth
p7
I196
sa(dp8
g6
I1338
sg7
I203
sasVvhints
p9
(lp10
(dp11
g6
I170
sg7
I101
sass."
EndChar

StartChar: D
Encoding: 37 68 19
GlifName: D_
Width: 1024
VWidth: 0
GlyphClass: 2
Flags: W
LayerCount: 2
Fore
SplineSet
107 1548 m 257
 107 0 l 257
 309 0 l 257
 309 1548 l 257
 107 1548 l 257
433 1550 m 257
 433 1350 l 257
 916 767 l 257
 916 1019 l 257
 433 1550 l 257
441 201 m 257
 441 1 l 257
 913 769 l 257
 913 1025 l 257
 441 201 l 257
271 1549 m 257
 271 1349 l 257
 433 1349 l 257
 433 1549 l 257
 271 1549 l 257
279 200 m 257
 279 0 l 257
 441 0 l 257
 441 200 l 257
 279 200 l 257
EndSplineSet
EndChar

StartChar: Dcroat
Encoding: 207 272 21
GlifName: D_croat
Width: 1024
VWidth: 0
GlyphClass: 2
Flags: W
LayerCount: 2
Fore
SplineSet
0 935 m 257
 0 730 l 257
 476 730 l 257
 476 935 l 257
 0 935 l 257
107 1548 m 257
 107 0 l 257
 309 0 l 257
 309 1548 l 257
 107 1548 l 257
433 1550 m 257
 433 1350 l 257
 916 767 l 257
 916 1019 l 257
 433 1550 l 257
441 201 m 257
 441 1 l 257
 913 769 l 257
 913 1025 l 257
 441 201 l 257
271 1549 m 257
 271 1349 l 257
 433 1349 l 257
 433 1549 l 257
 271 1549 l 257
279 200 m 257
 279 0 l 257
 441 0 l 257
 441 200 l 257
 279 200 l 257
EndSplineSet
EndChar

StartChar: E
Encoding: 38 69 22
GlifName: E_
Width: 1024
VWidth: 0
GlyphClass: 2
Flags: W
LayerCount: 2
Fore
SplineSet
103 1535 m 257
 103 3 l 257
 303 3 l 257
 303 1535 l 257
 103 1535 l 257
181 1536 m 257
 181 1333 l 257
 900 1333 l 257
 900 1536 l 257
 181 1536 l 257
170 203 m 257
 170 1 l 257
 916 1 l 257
 916 203 l 257
 170 203 l 257
170 888 m 257
 170 688 l 257
 669 688 l 257
 669 888 l 257
 170 888 l 257
EndSplineSet
EndChar

StartChar: Eth
Encoding: 143 208 32
GlifName: E_th
Width: 1024
VWidth: 0
GlyphClass: 2
Flags: W
LayerCount: 2
Fore
SplineSet
0 935 m 257
 0 730 l 257
 476 730 l 257
 476 935 l 257
 0 935 l 257
107 1548 m 257
 107 0 l 257
 309 0 l 257
 309 1548 l 257
 107 1548 l 257
433 1550 m 257
 433 1350 l 257
 916 767 l 257
 916 1019 l 257
 433 1550 l 257
441 201 m 257
 441 1 l 257
 913 769 l 257
 913 1025 l 257
 441 201 l 257
271 1549 m 257
 271 1349 l 257
 433 1349 l 257
 433 1549 l 257
 271 1549 l 257
279 200 m 257
 279 0 l 257
 441 0 l 257
 441 200 l 257
 279 200 l 257
EndSplineSet
EndChar

StartChar: Euro
Encoding: 532 8364 33
GlifName: E_uro
Width: 1024
VWidth: 0
GlyphClass: 2
Flags: W
VStem: 324 190
LayerCount: 2
Fore
SplineSet
56 520 m 257
 56 372 l 257
 852 372 l 257
 852 520 l 257
 56 520 l 257
68 935 m 257
 68 788 l 257
 848 788 l 257
 848 935 l 257
 68 935 l 257
323.5 1026 m 257
 323.5 179 l 257
 513.5 179 l 257
 513.5 1026 l 257
 323.5 1026 l 257
642.5 1633 m 257
 323 1026 l 257
 513.5 1026 l 257
 762 1601 l 257
 642.5 1633 l 257
323.5 179 m 257
 667.5 -408 l 257
 820 -408 l 257
 514.5 179 l 257
 323.5 179 l 257
EndSplineSet
PickledDataWithLists: "(dp0
Vcom.fontlab.hintData
p1
(dp2
Vvhints
p3
(lp4
(dp5
Vposition
p6
I324
sVwidth
p7
I190
sass."
EndChar

StartChar: F
Encoding: 39 70 34
GlifName: F_
Width: 1024
VWidth: 0
GlyphClass: 2
Flags: W
LayerCount: 2
Fore
SplineSet
141 1547 m 257
 141 3 l 257
 341 3 l 257
 341 1547 l 257
 141 1547 l 257
243 1548 m 257
 243 1347 l 257
 877 1347 l 257
 877 1548 l 257
 243 1548 l 257
231 875 m 257
 231 672 l 257
 780 672 l 257
 780 875 l 257
 231 875 l 257
EndSplineSet
EndChar

StartChar: G
Encoding: 40 71 35
GlifName: G_
Width: 1024
VWidth: 0
GlyphClass: 2
Flags: W
LayerCount: 2
Fore
SplineSet
110 1547 m 257
 110 0 l 257
 312 0 l 257
 312 1547 l 257
 110 1547 l 257
168 1547 m 257
 168 1347 l 257
 868 1347 l 257
 868 1547 l 257
 168 1547 l 257
141 202 m 257
 141 0 l 257
 904 0 l 257
 904 202 l 257
 141 202 l 257
705 561 m 257
 705 18 l 257
 904 18 l 257
 904 561 l 257
 705 561 l 257
EndSplineSet
EndChar

StartChar: H
Encoding: 41 72 39
GlifName: H_
Width: 1024
VWidth: 0
GlyphClass: 2
Flags: W
LayerCount: 2
Fore
SplineSet
89 1540 m 257
 89 1 l 257
 289 1 l 257
 289 1540 l 257
 89 1540 l 257
675 1540 m 257
 675 1 l 257
 885 1 l 257
 885 1540 l 257
 675 1540 l 257
209 1020 m 257
 209 818 l 257
 755 818 l 257
 755 1020 l 257
 209 1020 l 257
EndSplineSet
EndChar

StartChar: Hbar
Encoding: 229 294 40
GlifName: H_bar
Width: 1024
VWidth: 0
GlyphClass: 2
Flags: W
LayerCount: 2
Fore
SplineSet
89 1540 m 257
 89 1 l 257
 289 1 l 257
 289 1540 l 257
 89 1540 l 257
675 1540 m 257
 675 1 l 257
 885 1 l 257
 885 1540 l 257
 675 1540 l 257
209 1020 m 257
 209 818 l 257
 755 818 l 257
 755 1020 l 257
 209 1020 l 257
28 1434 m 257
 28 1226 l 257
 953 1226 l 257
 953 1434 l 257
 28 1434 l 257
EndSplineSet
PickledDataWithLists: "(dp0
."
EndChar

StartChar: I
Encoding: 42 73 42
GlifName: I_
Width: 1024
VWidth: 0
GlyphClass: 2
Flags: W
LayerCount: 2
Fore
SplineSet
144 1537 m 257
 144 1335 l 257
 845 1335 l 257
 845 1537 l 257
 144 1537 l 257
377 1468 m 257
 377 84 l 257
 577 84 l 257
 577 1468 l 257
 377 1468 l 257
124 204 m 257
 124 6 l 257
 880 6 l 257
 880 204 l 257
 124 204 l 257
EndSplineSet
EndChar

StartChar: J
Encoding: 43 74 52
GlifName: J_
Width: 1024
VWidth: 0
GlyphClass: 2
Flags: W
LayerCount: 2
Fore
SplineSet
700 1527 m 257
 700 1 l 257
 900 1 l 257
 900 1527 l 257
 700 1527 l 257
126 208 m 257
 126 0 l 257
 741 0 l 257
 741 208 l 257
 126 208 l 257
125 503 m 257
 125 52 l 257
 323 52 l 257
 323 503 l 257
 125 503 l 257
EndSplineSet
EndChar

StartChar: K
Encoding: 44 75 54
GlifName: K_
Width: 1024
VWidth: 0
GlyphClass: 2
Flags: W
LayerCount: 2
Fore
SplineSet
118 1535 m 257
 118 5 l 257
 319 5 l 257
 319 1535 l 257
 118 1535 l 257
163 999 m 257
 282 835 l 257
 939 1529 l 257
 672 1529 l 257
 163 999 l 257
293 798 m 257
 156 643 l 257
 711 0 l 257
 992 0 l 257
 293 798 l 257
EndSplineSet
EndChar

StartChar: L
Encoding: 45 76 55
GlifName: L_
Width: 1024
VWidth: 0
GlyphClass: 2
Flags: W
LayerCount: 2
Fore
SplineSet
53 1542 m 257
 53 3 l 257
 251 3 l 257
 251 1542 l 257
 53 1542 l 257
162 202 m 257
 162 3 l 257
 888 3 l 257
 888 202 l 257
 162 202 l 257
EndSplineSet
EndChar

StartChar: Lcaron
Encoding: 249 317 57
GlifName: L_caron
Width: 1024
VWidth: 0
GlyphClass: 2
Flags: W
LayerCount: 2
Fore
SplineSet
53 1542 m 257
 53 3 l 257
 251 3 l 257
 251 1542 l 257
 53 1542 l 257
162 202 m 257
 162 3 l 257
 888 3 l 257
 888 202 l 257
 162 202 l 257
447 1496 m 257
 447 1264 l 257
 577 1264 l 257
 577 1496 l 257
 447 1496 l 257
EndSplineSet
PickledDataWithLists: "(dp0
."
EndChar

StartChar: Lslash
Encoding: 253 321 59
GlifName: L_slash
Width: 1024
VWidth: 0
GlyphClass: 2
Flags: W
LayerCount: 2
Fore
SplineSet
171 1542 m 257
 171 3 l 257
 369 3 l 257
 369 1542 l 257
 171 1542 l 257
280 202 m 257
 280 3 l 257
 1006 3 l 257
 1006 202 l 257
 280 202 l 257
16 902 m 257
 96 730 l 257
 530 932 l 257
 450 1104 l 257
 16 902 l 257
EndSplineSet
PickledDataWithLists: "(dp0
."
EndChar

StartChar: M
Encoding: 46 77 60
GlifName: M_
Width: 1024
VWidth: 0
GlyphClass: 2
Flags: W
LayerCount: 2
Fore
SplineSet
101 1546 m 257
 101 2 l 257
 304 2 l 257
 304 1546 l 257
 101 1546 l 257
722 1541 m 257
 722 -3 l 257
 924 -3 l 257
 924 1541 l 257
 722 1541 l 257
138 1429 m 257
 428 1031 l 257
 616 1031 l 257
 280 1546 l 257
 138 1429 l 257
749 1541 m 257
 427 1025 l 257
 614 1025 l 257
 915 1488 l 257
 749 1541 l 257
EndSplineSet
EndChar

StartChar: N
Encoding: 47 78 61
GlifName: N_
Width: 1024
VWidth: 0
GlyphClass: 2
Flags: W
LayerCount: 2
Fore
SplineSet
95 1548 m 257
 95 2 l 257
 300 2 l 257
 300 1548 l 257
 95 1548 l 257
722 1548 m 257
 722 1 l 257
 924 1 l 257
 924 1548 l 257
 722 1548 l 257
96 1548 m 257
 723 -1 l 257
 926 -1 l 257
 301 1548 l 257
 96 1548 l 257
EndSplineSet
EndChar

StartChar: O
Encoding: 48 79 65
GlifName: O_
Width: 1024
VWidth: 0
GlyphClass: 2
Flags: W
LayerCount: 2
Fore
SplineSet
110 1540 m 257
 110 0 l 257
 311 0 l 257
 311 1540 l 257
 110 1540 l 257
707 1537 m 257
 707 0 l 257
 910 0 l 257
 910 1537 l 257
 707 1537 l 257
174 1538 m 257
 174 1337 l 257
 817 1337 l 257
 817 1538 l 257
 174 1538 l 257
150 204 m 257
 150 0 l 257
 823 0 l 257
 823 204 l 257
 150 204 l 257
EndSplineSet
EndChar

StartChar: OE
Encoding: 267 338 66
GlifName: O_E_
Width: 1024
VWidth: 0
GlyphClass: 2
Flags: W
LayerCount: 2
Fore
SplineSet
111 1548 m 257
 110 0 l 257
 311 0 l 257
 312 1548 l 257
 111 1548 l 257
503 1548 m 257
 503 0 l 257
 703 0 l 257
 704 1548 l 257
 503 1548 l 257
148 1548 m 257
 148 1345 l 257
 880 1349 l 257
 880 1548 l 257
 148 1548 l 257
150 200 m 257
 150 0 l 257
 888 0 l 257
 888 200 l 257
 150 200 l 257
606 859 m 257
 606 659 l 257
 850 659 l 257
 850 859 l 257
 606 859 l 257
EndSplineSet
PickledDataWithLists: "(dp0
."
EndChar

StartChar: Oslash
Encoding: 151 216 74
GlifName: O_slash
Width: 1024
VWidth: 0
GlyphClass: 2
Flags: W
LayerCount: 2
Fore
SplineSet
788 1667 m 257
 35 -45 l 257
 223 -118 l 257
 976 1594 l 257
 788 1667 l 257
110 1540 m 257
 110 0 l 257
 311 0 l 257
 311 1540 l 257
 110 1540 l 257
707 1537 m 257
 707 0 l 257
 910 0 l 257
 910 1537 l 257
 707 1537 l 257
174 1538 m 257
 174 1337 l 257
 817 1337 l 257
 817 1538 l 257
 174 1538 l 257
150 204 m 257
 150 0 l 257
 823 0 l 257
 823 204 l 257
 150 204 l 257
EndSplineSet
EndChar

StartChar: P
Encoding: 49 80 76
GlifName: P_
Width: 1024
VWidth: 0
GlyphClass: 2
Flags: W
LayerCount: 2
Fore
SplineSet
112 1545 m 257
 112 9 l 257
 302 9 l 257
 302 1545 l 257
 112 1545 l 257
191 1545 m 257
 191 1346 l 257
 847 1346 l 257
 847 1545 l 257
 191 1545 l 257
667 1545 m 257
 667 881 l 257
 867 881 l 257
 867 1545 l 257
 667 1545 l 257
175 1068 m 257
 175 868 l 257
 862 868 l 257
 862 1068 l 257
 175 1068 l 257
EndSplineSet
EndChar

StartChar: Q
Encoding: 50 81 77
GlifName: Q_
Width: 1024
VWidth: 0
GlyphClass: 2
Flags: W
LayerCount: 2
Fore
SplineSet
110 1540 m 257
 110 5 l 257
 309 5 l 257
 309 1540 l 257
 110 1540 l 257
709 1537 m 257
 709 -2 l 257
 910 -2 l 257
 910 1537 l 257
 709 1537 l 257
174 1538 m 257
 174 1337 l 257
 817 1337 l 257
 817 1538 l 257
 174 1538 l 257
150 205 m 257
 150 3 l 257
 823 3 l 257
 823 205 l 257
 150 205 l 257
558 21 m 257
 744 -285 l 257
 935 -169 l 257
 749 137 l 257
 558 21 l 257
EndSplineSet
EndChar

StartChar: R
Encoding: 51 82 78
GlifName: R_
Width: 1024
VWidth: 0
GlyphClass: 2
Flags: W
LayerCount: 2
Fore
SplineSet
112 1535 m 257
 112 -1 l 257
 313 -1 l 257
 313 1535 l 257
 112 1535 l 257
191 1536 m 257
 191 1335 l 257
 847 1335 l 257
 847 1536 l 257
 191 1536 l 257
674 1536 m 257
 674 872 l 257
 874 872 l 257
 874 1536 l 257
 674 1536 l 257
175 1079 m 257
 175 868 l 257
 862 868 l 257
 862 1079 l 257
 175 1079 l 257
315 892 m 257
 716 -4 l 257
 956 -4 l 257
 514 892 l 257
 315 892 l 257
EndSplineSet
EndChar

StartChar: S
Encoding: 52 83 81
GlifName: S_
Width: 1024
VWidth: 0
GlyphClass: 2
Flags: W
LayerCount: 2
Fore
SplineSet
146 1539 m 257
 146 1336 l 257
 744 1336 l 257
 744 1539 l 257
 146 1539 l 257
146 1542 m 257
 146 1028 l 257
 348 1028 l 257
 348 1542 l 257
 146 1542 l 257
174 199 m 257
 174 0 l 257
 882 0 l 257
 882 199 l 257
 174 199 l 257
717 1 m 257
 918 1 l 257
 918 355 l 257
 717 355 l 257
 717 1 l 257
146 1028 m 257
 717 355 l 257
 918 355 l 257
 348 1028 l 257
 146 1028 l 257
EndSplineSet
EndChar

StartChar: T
Encoding: 53 84 86
GlifName: T_
Width: 1024
VWidth: 0
GlyphClass: 2
Flags: W
LayerCount: 2
Fore
SplineSet
125 1549 m 257
 125 1348 l 257
 899 1348 l 257
 899 1549 l 257
 125 1549 l 257
412 1436 m 257
 412 6 l 257
 612 6 l 257
 612 1436 l 257
 412 1436 l 257
EndSplineSet
EndChar

StartChar: Thorn
Encoding: 157 222 88
GlifName: T_horn
Width: 1024
VWidth: 0
GlyphClass: 2
Flags: W
LayerCount: 2
Fore
SplineSet
112 1545 m 257
 112 9 l 257
 302 9 l 257
 302 1542 l 257
 112 1545 l 257
191 1234 m 257
 191 1035 l 257
 847 1035 l 257
 847 1234 l 257
 191 1234 l 257
667 1233 m 257
 667 569 l 257
 867 569 l 257
 867 1233 l 257
 667 1233 l 257
179 684 m 257
 179 484 l 257
 866 484 l 257
 866 684 l 257
 179 684 l 257
EndSplineSet
EndChar

StartChar: U
Encoding: 54 85 89
GlifName: U_
Width: 1024
VWidth: 0
GlyphClass: 2
Flags: W
LayerCount: 2
Fore
SplineSet
157 1536 m 257
 157 0 l 257
 357 0 l 257
 357 1536 l 257
 157 1536 l 257
668 1535 m 257
 668 0 l 257
 867 0 l 257
 867 1535 l 257
 668 1535 l 257
204 200 m 257
 204 0 l 257
 824 0 l 257
 824 200 l 257
 204 200 l 257
EndSplineSet
EndChar

StartChar: V
Encoding: 55 86 100
GlifName: V_
Width: 1024
VWidth: 0
GlyphClass: 2
Flags: W
VStem: 106 201<1548 1548> 716 201<1548 1548>
LayerCount: 2
Fore
SplineSet
106 1548 m 257
 366 0 l 257
 587 0 l 257
 307 1548 l 257
 106 1548 l 257
716 1548 m 257
 491 0 l 257
 714 0 l 257
 917 1548 l 257
 716 1548 l 257
EndSplineSet
PickledDataWithLists: "(dp0
Vcom.fontlab.hintData
p1
(dp2
Vvhints
p3
(lp4
(dp5
Vposition
p6
I106
sVwidth
p7
I201
sa(dp8
g6
I716
sg7
I201
sass."
EndChar

StartChar: W
Encoding: 56 87 101
GlifName: W_
Width: 1024
VWidth: 0
GlyphClass: 2
Flags: W
LayerCount: 2
Fore
SplineSet
104 1546 m 257
 104 0 l 257
 305 0 l 257
 305 1546 l 257
 104 1546 l 257
721 1545 m 257
 721 12 l 257
 922 12 l 257
 922 1545 l 257
 721 1545 l 257
413 1028 m 257
 413 1 l 257
 614 1 l 257
 614 1028 l 257
 413 1028 l 257
103 201 m 257
 103 0 l 257
 922 0 l 257
 922 201 l 257
 103 201 l 257
EndSplineSet
EndChar

StartChar: X
Encoding: 57 88 106
GlifName: X_
Width: 1024
VWidth: 0
GlyphClass: 2
Flags: W
HStem: 6 21<94 295 295 295> 1528 20<91 91 91 290>
LayerCount: 2
Fore
SplineSet
91 1548 m 257
 733 -2 l 257
 933 -2 l 257
 290 1548 l 257
 91 1548 l 257
94 6 m 257
 295 6 l 257
 925 1544 l 257
 726 1544 l 257
 94 6 l 257
EndSplineSet
PickledDataWithLists: "(dp0
Vcom.fontlab.hintData
p1
(dp2
Vhhints
p3
(lp4
(dp5
Vposition
p6
I6
sVwidth
p7
I21
sa(dp8
g6
I1528
sg7
I20
sass."
EndChar

StartChar: Y
Encoding: 58 89 107
GlifName: Y_
Width: 1024
VWidth: 0
GlyphClass: 2
Flags: W
LayerCount: 2
Fore
SplineSet
411 897 m 257
 411 -1 l 257
 613 -1 l 257
 613 897 l 257
 411 897 l 257
160 1547 m 257
 160 859 l 257
 360 859 l 257
 360 1547 l 257
 160 1547 l 257
665 1547 m 257
 665 859 l 257
 864 859 l 257
 864 1547 l 257
 665 1547 l 257
228 1019 m 257
 228 859 l 257
 774 859 l 257
 774 1019 l 257
 228 1019 l 257
EndSplineSet
EndChar

StartChar: Z
Encoding: 59 90 112
GlifName: Z_
Width: 1024
VWidth: 0
GlyphClass: 2
Flags: W
HStem: 211 1<98 305 305 305>
LayerCount: 2
Fore
SplineSet
97 1548 m 257
 97 1336 l 257
 931 1336 l 257
 931 1548 l 257
 97 1548 l 257
98 212 m 257
 98 0 l 257
 926 0 l 257
 926 212 l 257
 98 212 l 257
670 1335 m 257
 98 211 l 257
 305 211 l 257
 915 1335 l 257
 670 1335 l 257
EndSplineSet
PickledDataWithLists: "(dp0
Vcom.fontlab.hintData
p1
(dp2
Vhhints
p3
(lp4
(dp5
Vposition
p6
I211
sVwidth
p7
I1
sass."
EndChar

StartChar: a
Encoding: 66 97 116
GlifName: a
Width: 1024
VWidth: 0
GlyphClass: 2
Flags: W
LayerCount: 2
Fore
SplineSet
168 1024 m 257
 168 824 l 257
 774 824 l 257
 774 1024 l 257
 168 1024 l 257
661 1025 m 257
 661 1 l 257
 855 1 l 257
 855 1025 l 257
 661 1025 l 257
172 599 m 257
 172 400 l 257
 796 400 l 257
 796 599 l 257
 172 599 l 257
172 575 m 257
 172 -2 l 257
 373 -2 l 257
 373 575 l 257
 172 575 l 257
170 201 m 257
 170 1 l 257
 860 1 l 257
 860 201 l 257
 170 201 l 257
EndSplineSet
EndChar

StartChar: acute
Encoding: 115 180 120
GlifName: acute
Width: 1024
VWidth: 0
GlyphClass: 2
Flags: W
LayerCount: 2
Fore
SplineSet
522 1556 m 257
 392 1302 l 257
 480 1256 l 257
 611 1511 l 257
 522 1556 l 257
EndSplineSet
EndChar

StartChar: acutecomb
Encoding: 328 769 121
GlifName: acutecomb
Width: 1024
VWidth: 0
GlyphClass: 4
Flags: W
LayerCount: 2
Fore
SplineSet
551 2180 m 257
 421 1926 l 257
 509 1880 l 257
 640 2135 l 257
 551 2180 l 257
EndSplineSet
PickledDataWithLists: "(dp0
."
EndChar

StartChar: ae
Encoding: 165 230 123
GlifName: ae
Width: 1024
VWidth: 0
GlyphClass: 2
Flags: W
LayerCount: 2
Fore
SplineSet
48 1028 m 257
 46 828 l 257
 865 824 l 257
 867 1024 l 257
 48 1028 l 257
449 1025 m 257
 449 1 l 257
 643 1 l 257
 643 1025 l 257
 449 1025 l 257
71 599 m 257
 71 400 l 257
 868 400 l 257
 868 599 l 257
 71 599 l 257
71 575 m 257
 71 -2 l 257
 272 -2 l 257
 272 575 l 257
 71 575 l 257
69 201 m 257
 69 1 l 257
 989 1 l 257
 989 201 l 257
 69 201 l 257
773 1022 m 257
 773 400 l 257
 968 400 l 257
 968 1022 l 257
 773 1022 l 257
EndSplineSet
EndChar

StartChar: ampersand
Encoding: 7 38 126
GlifName: ampersand
Width: 1024
VWidth: 0
GlyphClass: 2
Flags: W
LayerCount: 2
Fore
SplineSet
260.5 1534 m 257
 707.5 12 l 257
 854.5 56 l 257
 422.5 1534 l 257
 260.5 1534 l 257
803.5 1401 m 257
 803.5 1536 l 257
 338.5 1536 l 257
 338.5 1401 l 257
 803.5 1401 l 257
643.5 1446 m 257
 643.5 917 l 257
 803.5 917 l 257
 803.5 1446 l 257
 643.5 1446 l 257
107.5 1045 m 257
 107.5 843 l 257
 803.5 843 l 257
 803.5 1045 l 257
 107.5 1045 l 257
107.5 1045 m 257
 107.5 24 l 257
 317.5 24 l 257
 317.5 1045 l 257
 107.5 1045 l 257
107.5 190 m 257
 107.5 6 l 257
 916.5 6 l 257
 916.5 190 l 257
 107.5 190 l 257
EndSplineSet
PickledDataWithLists: "(dp0
."
EndChar

StartChar: asciicircum
Encoding: 63 94 129
GlifName: asciicircum
Width: 1024
VWidth: 0
GlyphClass: 2
Flags: W
LayerCount: 2
Fore
SplineSet
607 1023 m 257
 458 1023 l 257
 193 407 l 257
 343 345 l 257
 607 1023 l 257
464 904 m 257
 720 343 l 257
 870 400 l 257
 607 1023 l 257
 464 904 l 257
EndSplineSet
PickledDataWithLists: "(dp0
."
EndChar

StartChar: asciitilde
Encoding: 95 126 130
GlifName: asciitilde
Width: 1024
VWidth: 0
GlyphClass: 2
Flags: W
LayerCount: 2
Fore
SplineSet
330 815 m 257
 330 716 l 257
 680 655 l 257
 680 754 l 257
 330 815 l 257
92 757 m 257
 107 659 l 257
 330 716 l 257
 330 815 l 257
 92 757 l 257
680 754 m 257
 680 655 l 257
 861 796 l 257
 837 892 l 257
 680 754 l 257
EndSplineSet
EndChar

StartChar: asterisk
Encoding: 11 42 131
GlifName: asterisk
Width: 1024
VWidth: 0
GlyphClass: 2
Flags: W
LayerCount: 2
Fore
SplineSet
422 1297 m 257
 422 300 l 257
 652 300 l 257
 652 1297 l 257
 422 1297 l 257
65 1099 m 257
 793 360 l 257
 952 504 l 257
 220 1241 l 257
 65 1099 l 257
817 1232 m 257
 94 525 l 257
 236 372 l 257
 959 1079 l 257
 817 1232 l 257
EndSplineSet
PickledDataWithLists: "(dp0
."
EndChar

StartChar: at
Encoding: 33 64 132
GlifName: at
Width: 1024
VWidth: 0
GlyphClass: 2
Flags: W
LayerCount: 2
Fore
SplineSet
101 1024 m 257
 101 879 l 257
 920 879 l 257
 920 1024 l 257
 101 1024 l 257
637 592 m 257
 637 0 l 257
 790 0 l 257
 790 592 l 257
 637 592 l 257
304 600 m 257
 304 444 l 257
 729 444 l 257
 729 600 l 257
 304 600 l 257
301 589 m 257
 301 12 l 257
 475 12 l 257
 475 589 l 257
 301 589 l 257
299 188 m 257
 299 0 l 257
 793 0 l 257
 793 188 l 257
 299 188 l 257
13 1024 m 257
 13 -223 l 257
 189 -223 l 257
 189 1024 l 257
 13 1024 l 257
11 -86 m 257
 11 -258 l 257
 959 -258 l 257
 959 -86 l 257
 11 -86 l 257
862 1011 m 257
 862 0 l 257
 1013 0 l 257
 1013 1011 l 257
 862 1011 l 257
734 175 m 257
 734 1 l 257
 943 1 l 257
 943 175 l 257
 734 175 l 257
EndSplineSet
EndChar

StartChar: b
Encoding: 67 98 134
GlifName: b
Width: 1024
VWidth: 0
GlyphClass: 2
Flags: W
LayerCount: 2
Fore
SplineSet
135 1536 m 257
 135 1 l 257
 334 1 l 257
 334 1536 l 257
 135 1536 l 257
232 1033 m 257
 232 834 l 257
 750 834 l 257
 750 1033 l 257
 232 1033 l 257
690 1033 m 257
 690 0 l 257
 889 0 l 257
 889 1033 l 257
 690 1033 l 257
260 207 m 257
 260 1 l 257
 810 1 l 257
 810 207 l 257
 260 207 l 257
EndSplineSet
EndChar

StartChar: backslash
Encoding: 61 92 135
GlifName: backslash
Width: 1024
VWidth: 0
GlyphClass: 2
Flags: W
LayerCount: 2
Fore
SplineSet
168 1441 m 257
 795 -13 l 257
 986 65 l 257
 360 1519 l 257
 168 1441 l 257
EndSplineSet
PickledDataWithLists: "(dp0
."
EndChar

StartChar: bar
Encoding: 93 124 136
GlifName: bar
Width: 1024
VWidth: 0
GlyphClass: 2
Flags: W
VStem: 525 203<-90 1435 -90 1435>
LayerCount: 2
Fore
SplineSet
525 1435 m 257
 525 -90 l 257
 728 -90 l 257
 728 1435 l 257
 525 1435 l 257
EndSplineSet
PickledDataWithLists: "(dp0
Vcom.fontlab.hintData
p1
(dp2
Vvhints
p3
(lp4
(dp5
Vposition
p6
I525
sVwidth
p7
I203
sass."
EndChar

StartChar: braceleft
Encoding: 92 123 137
GlifName: braceleft
Width: 1024
VWidth: 0
GlyphClass: 2
Flags: W
LayerCount: 2
Fore
SplineSet
421 1544 m 257
 421 838 l 257
 567 838 l 257
 567 1544 l 257
 421 1544 l 257
433 424 m 257
 433 -286 l 257
 579 -286 l 257
 579 424 l 257
 433 424 l 257
132 690 m 257
 132 630 l 257
 567 838 l 257
 421 838 l 257
 132 690 l 257
132 690 m 257
 132 630 l 257
 431 425 l 257
 580 425 l 257
 132 690 l 257
422 1603 m 257
 422 1452 l 257
 690 1574 l 257
 694 1603 l 257
 422 1603 l 257
434 -140 m 257
 434 -287 l 257
 710 -287 l 257
 710 -274 l 257
 434 -140 l 257
EndSplineSet
EndChar

StartChar: braceright
Encoding: 94 125 138
GlifName: braceright
Width: 1024
VWidth: 0
GlyphClass: 2
Flags: W
HStem: 1524 20<275 437 275 275>
VStem: 263 160<-286 424 -286 424 -286 424>
LayerCount: 2
Fore
SplineSet
437 1544 m 257
 275 1544 l 257
 275 838 l 257
 437 838 l 257
 437 1544 l 257
423 424 m 257
 263 424 l 257
 263 -286 l 257
 423 -286 l 257
 423 424 l 257
710 690 m 257
 432 838 l 257
 271 838 l 257
 710 630 l 257
 710 690 l 257
710 690 m 257
 263 424 l 257
 423 424 l 257
 710 630 l 257
 710 690 l 257
438 1603 m 257
 163 1603 l 257
 167 1574 l 257
 438 1452 l 257
 438 1603 l 257
408 -140 m 257
 132 -274 l 257
 132 -284 l 257
 408 -284 l 257
 408 -140 l 257
EndSplineSet
PickledDataWithLists: "(dp0
Vcom.fontlab.hintData
p1
(dp2
Vhhints
p3
(lp4
(dp5
Vposition
p6
I1524
sVwidth
p7
I20
sasVvhints
p8
(lp9
(dp10
g6
I263
sg7
I160
sass."
EndChar

StartChar: bracketleft
Encoding: 60 91 139
GlifName: bracketleft
Width: 1024
VWidth: 0
GlyphClass: 2
Flags: W
VStem: 162 268<-242 -91 -242 1542 -242 -91>
LayerCount: 2
Fore
SplineSet
162 1542 m 257
 162 -242 l 257
 284 -242 l 257
 284 1542 l 257
 162 1542 l 257
216 1543 m 257
 216 1416 l 257
 425 1416 l 257
 425 1543 l 257
 216 1543 l 257
216 -91 m 257
 216 -242 l 257
 430 -242 l 257
 430 -91 l 257
 216 -91 l 257
EndSplineSet
PickledDataWithLists: "(dp0
Vcom.fontlab.hintData
p1
(dp2
Vvhints
p3
(lp4
(dp5
Vposition
p6
I162
sVwidth
p7
I268
sass."
EndChar

StartChar: bracketright
Encoding: 62 93 140
GlifName: bracketright
Width: 1024
VWidth: 0
GlyphClass: 2
Flags: W
VStem: 216 272<-242 -91 -242 1542 1416 1542 -242 1543 1416 1416>
LayerCount: 2
Fore
SplineSet
366 1542 m 257
 366 -242 l 257
 488 -242 l 257
 488 1542 l 257
 366 1542 l 257
216 1543 m 257
 216 1416 l 257
 425 1416 l 257
 425 1543 l 257
 216 1543 l 257
216 -91 m 257
 216 -242 l 257
 430 -242 l 257
 430 -91 l 257
 216 -91 l 257
EndSplineSet
PickledDataWithLists: "(dp0
Vcom.fontlab.hintData
p1
(dp2
Vvhints
p3
(lp4
(dp5
Vposition
p6
I216
sVwidth
p7
I272
sass."
EndChar

StartChar: breve
Encoding: 321 728 141
GlifName: breve
Width: 1024
VWidth: 0
GlyphClass: 2
Flags: W
LayerCount: 2
Fore
SplineSet
656 1552 m 257
 656 1480 l 257
 821 1552 l 257
 821 1645 l 257
 656 1552 l 257
332 1552 m 257
 331 1480 l 257
 656 1480 l 257
 656 1552 l 257
 332 1552 l 257
161 1630 m 257
 161 1552 l 257
 332 1480 l 257
 332 1550 l 257
 161 1630 l 257
EndSplineSet
EndChar

StartChar: brokenbar
Encoding: 102 166 142
GlifName: brokenbar
Width: 1024
VWidth: 0
GlyphClass: 2
Flags: W
VStem: 511 110
LayerCount: 2
Fore
SplineSet
511.2 -332 m 257
 620.8 -332 l 257
 620.8 682 l 257
 511.2 682 l 257
 511.2 -332 l 257
514 790 m 257
 624.4 790 l 257
 624.4 1636 l 257
 514 1636 l 257
 514 790 l 257
EndSplineSet
PickledDataWithLists: "(dp0
Vcom.fontlab.hintData
p1
(dp2
Vvhints
p3
(lp4
(dp5
Vposition
p6
I511
sVwidth
p7
I110
sass."
EndChar

StartChar: bullet
Encoding: 526 8226 143
GlifName: bullet
Width: 1024
VWidth: 0
GlyphClass: 2
Flags: W
LayerCount: 2
Fore
SplineSet
369 1026 m 257
 369 765 l 257
 654 765 l 257
 654 1026 l 257
 369 1026 l 257
EndSplineSet
EndChar

StartChar: c
Encoding: 68 99 144
GlifName: c
Width: 1024
VWidth: 0
GlyphClass: 2
Flags: W
LayerCount: 2
Fore
SplineSet
164 1027 m 257
 164 826 l 257
 860 826 l 257
 860 1027 l 257
 164 1027 l 257
166 984 m 257
 166 0 l 257
 368 0 l 257
 368 984 l 257
 166 984 l 257
272 201 m 257
 272 0 l 257
 854 0 l 257
 854 201 l 257
 272 201 l 257
EndSplineSet
EndChar

StartChar: caron
Encoding: 317 711 146
GlifName: caron
Width: 1024
VWidth: 0
GlyphClass: 2
Flags: HW
LayerCount: 2
Fore
SplineSet
550.150390625 1083.20019531 m 257
 412.349609375 1436.79980469 l 257
 334.349609375 1404.29980469 l 257
 472.150390625 1083.20019531 l 257
 550.150390625 1083.20019531 l 257
474.75 1145.59960938 m 257
 550.150390625 1083.20019531 l 257
 686.650390625 1408.20019531 l 257
 608.650390625 1436.79980469 l 257
 474.75 1145.59960938 l 257
EndSplineSet
EndChar

StartChar: cedilla
Encoding: 119 184 151
GlifName: cedilla
Width: 1024
VWidth: 0
GlyphClass: 2
Flags: W
HStem: -568 120 -532 84 -304 144
VStem: -77 155 217 152
LayerCount: 2
Fore
SplineSet
301 242 m 257
 301 -82 l 257
 457 -82 l 257
 457 242 l 257
 301 242 l 257
302 -226 m 257
 302 -346 l 257
 748 -346 l 257
 748 -226 l 257
 302 -226 l 257
596 62 m 257
 596 -310 l 257
 748 -310 l 257
 748 62 l 257
 596 62 l 257
302 62 m 257
 302 -94 l 257
 748 -94 l 257
 748 62 l 257
 302 62 l 257
EndSplineSet
PickledDataWithLists: "(dp0
Vcom.fontlab.hintData
p1
(dp2
Vhhints
p3
(lp4
(dp5
Vposition
p6
I-568
sVwidth
p7
I120
sa(dp8
g6
I-532
sg7
I84
sa(dp9
g6
I-304
sg7
I144
sasVvhints
p10
(lp11
(dp12
g6
I-77
sg7
I155
sa(dp13
g6
I217
sg7
I152
sass."
EndChar

StartChar: cent
Encoding: 98 162 152
GlifName: cent
Width: 1024
VWidth: 0
GlyphClass: 2
Flags: W
LayerCount: 2
Fore
SplineSet
691 1183 m 257
 544 1183 l 257
 544 -86 l 257
 691 -86 l 257
 691 1183 l 257
164 1027 m 257
 164 826 l 257
 860 826 l 257
 860 1027 l 257
 164 1027 l 257
166 984 m 257
 166 0 l 257
 368 0 l 257
 368 984 l 257
 166 984 l 257
272 201 m 257
 272 0 l 257
 854 0 l 257
 854 201 l 257
 272 201 l 257
EndSplineSet
EndChar

StartChar: circumflex
Encoding: 316 710 153
GlifName: circumflex
Width: 1024
VWidth: 0
GlyphClass: 2
Flags: W
LayerCount: 2
Fore
SplineSet
502 2158 m 257
 442 2158 l 257
 336 1911 l 257
 396 1886 l 257
 502 2158 l 257
444 2110 m 257
 547 1886 l 257
 607 1908 l 257
 502 2158 l 257
 444 2110 l 257
EndSplineSet
EndChar

StartChar: colon
Encoding: 27 58 154
GlifName: colon
Width: 1024
VWidth: 0
GlyphClass: 2
Flags: W
LayerCount: 2
Fore
SplineSet
399.5 430 m 257
 399.5 201 l 257
 647.5 201 l 257
 647.5 430 l 257
 399.5 430 l 257
376.5 1294 m 257
 376.5 1047 l 257
 641.5 1047 l 257
 641.5 1294 l 257
 376.5 1294 l 257
EndSplineSet
PickledDataWithLists: "(dp0
."
EndChar

StartChar: comma
Encoding: 13 44 155
GlifName: comma
Width: 1024
VWidth: 0
GlyphClass: 2
Flags: W
LayerCount: 2
Fore
SplineSet
397.5 237 m 257
 397.5 8 l 257
 645.5 8 l 257
 645.5 237 l 257
 397.5 237 l 257
496.5 135 m 257
 378.5 -146 l 257
 521.5 -206 l 257
 643.5 4 l 257
 496.5 135 l 257
EndSplineSet
PickledDataWithLists: "(dp0
."
EndChar

StartChar: copyright
Encoding: 105 169 156
GlifName: copyright
Width: 1024
VWidth: 0
GlyphClass: 2
Flags: W
VStem: 814 9<0 204 0 1537 0 204> 814 3<1337 1537>
LayerCount: 2
Fore
SplineSet
16 1540 m 257
 16 0 l 257
 217 0 l 257
 217 1540 l 257
 16 1540 l 257
814 1537 m 257
 814 0 l 257
 1017 0 l 257
 1017 1537 l 257
 814 1537 l 257
126 1538 m 257
 126 1337 l 257
 817 1337 l 257
 817 1538 l 257
 126 1538 l 257
150 204 m 257
 150 0 l 257
 823 0 l 257
 823 204 l 257
 150 204 l 257
262 1197 m 257
 262 996 l 257
 697 996 l 257
 697 1197 l 257
 262 1197 l 257
263 1154 m 257
 263 340 l 257
 432 340 l 257
 432 1154 l 257
 263 1154 l 257
263 495 m 257
 263 294 l 257
 703 294 l 257
 703 495 l 257
 263 495 l 257
EndSplineSet
PickledDataWithLists: "(dp0
Vcom.fontlab.hintData
p1
(dp2
Vvhints
p3
(lp4
(dp5
Vposition
p6
I814
sVwidth
p7
I9
sa(dp8
g6
I814
sg7
I3
sass."
EndChar

StartChar: currency
Encoding: 100 164 157
GlifName: currency
Width: 1024
VWidth: 0
GlyphClass: 2
Flags: W
HStem: 119 247<9.5 274.5> 124 247<679.5 944.5> 1084 247<697.5 962.5> 1109 247<3.5 268.5>
VStem: 4 265 10 265 680 265 698 265
LayerCount: 2
Fore
SplineSet
79 1202 m 257
 79 180 l 257
 279 180 l 257
 279 1202 l 257
 79 1202 l 257
694 1204 m 257
 694 180 l 257
 896 180 l 257
 896 1204 l 257
 694 1204 l 257
202 1204 m 257
 202 1002 l 257
 788 1002 l 257
 788 1204 l 257
 202 1204 l 257
206 380 m 257
 206 181 l 257
 778 181 l 257
 778 380 l 257
 206 380 l 257
3.5 1356 m 257
 3.5 1109 l 257
 268.5 1109 l 257
 268.5 1356 l 257
 3.5 1356 l 257
697.5 1331 m 257
 697.5 1084 l 257
 962.5 1084 l 257
 962.5 1331 l 257
 697.5 1331 l 257
9.5 366 m 257
 9.5 119 l 257
 274.5 119 l 257
 274.5 366 l 257
 9.5 366 l 257
679.5 371 m 257
 679.5 124 l 257
 944.5 124 l 257
 944.5 371 l 257
 679.5 371 l 257
EndSplineSet
PickledDataWithLists: "(dp0
Vcom.fontlab.hintData
p1
(dp2
Vhhints
p3
(lp4
(dp5
Vposition
p6
I119
sVwidth
p7
I247
sa(dp8
g6
I124
sg7
I247
sa(dp9
g6
I1084
sg7
I247
sa(dp10
g6
I1109
sg7
I247
sasVvhints
p11
(lp12
(dp13
g6
I4
sg7
I265
sa(dp14
g6
I10
sg7
I265
sa(dp15
g6
I680
sg7
I265
sa(dp16
g6
I698
sg7
I265
sass."
EndChar

StartChar: d
Encoding: 69 100 158
GlifName: d
Width: 1024
VWidth: 0
GlyphClass: 2
Flags: W
LayerCount: 2
Fore
SplineSet
692 1527 m 257
 692 0 l 257
 893 0 l 257
 893 1527 l 257
 692 1527 l 257
228 1023 m 257
 228 822 l 257
 781 822 l 257
 781 1023 l 257
 228 1023 l 257
132 1022 m 257
 132 0 l 257
 333 0 l 257
 333 1022 l 257
 132 1022 l 257
228 195 m 257
 228 0 l 257
 845 0 l 257
 845 195 l 257
 228 195 l 257
EndSplineSet
EndChar

StartChar: dagger
Encoding: 524 8224 159
GlifName: dagger
Width: 1024
VWidth: 0
GlyphClass: 2
Flags: W
LayerCount: 2
Fore
SplineSet
166 1251 m 257
 166 1086 l 257
 772 1086 l 257
 772 1251 l 257
 166 1251 l 257
390 1552 m 257
 391 0 l 257
 535 0 l 257
 535 1552 l 257
 390 1552 l 257
EndSplineSet
EndChar

StartChar: daggerdbl
Encoding: 525 8225 160
GlifName: daggerdbl
Width: 1024
VWidth: 0
GlyphClass: 2
Flags: W
LayerCount: 2
Fore
SplineSet
166 937 m 257
 166 772 l 257
 772 772 l 257
 772 937 l 257
 166 937 l 257
166 1251 m 257
 166 1086 l 257
 772 1086 l 257
 772 1251 l 257
 166 1251 l 257
390 1552 m 257
 391 0 l 257
 535 0 l 257
 535 1552 l 257
 390 1552 l 257
EndSplineSet
EndChar

StartChar: dcaron
Encoding: 206 271 161
GlifName: dcaron
Width: 1024
VWidth: 0
GlyphClass: 2
Flags: W
LayerCount: 2
Fore
SplineSet
613 1527 m 257
 613 0 l 257
 814 0 l 257
 814 1527 l 257
 613 1527 l 257
149 1023 m 257
 149 822 l 257
 702 822 l 257
 702 1023 l 257
 149 1023 l 257
53 1022 m 257
 53 0 l 257
 254 0 l 257
 254 1022 l 257
 53 1022 l 257
149 195 m 257
 149 0 l 257
 766 0 l 257
 766 195 l 257
 149 195 l 257
860 1496 m 257
 860 1264 l 257
 990 1264 l 257
 990 1496 l 257
 860 1496 l 257
EndSplineSet
PickledDataWithLists: "(dp0
."
EndChar

StartChar: dcroat
Encoding: 208 273 162
GlifName: dcroat
Width: 1024
VWidth: 0
GlyphClass: 2
Flags: W
LayerCount: 2
Fore
SplineSet
692 1527 m 257
 692 0 l 257
 893 0 l 257
 893 1527 l 257
 692 1527 l 257
228 1023 m 257
 228 822 l 257
 781 822 l 257
 781 1023 l 257
 228 1023 l 257
132 1022 m 257
 132 0 l 257
 333 0 l 257
 333 1022 l 257
 132 1022 l 257
228 195 m 257
 228 0 l 257
 845 0 l 257
 845 195 l 257
 228 195 l 257
555 1403 m 257
 555 1202 l 257
 999 1202 l 257
 999 1403 l 257
 555 1403 l 257
EndSplineSet
EndChar

StartChar: degree
Encoding: 111 176 163
GlifName: degree
Width: 1024
VWidth: 0
GlyphClass: 2
Flags: W
HStem: 1238 309<362 722>
VStem: 362 360<1238 1547 1238 1547>
LayerCount: 2
Fore
SplineSet
467 1456 m 257
 615 1456 l 257
 615 1326 l 257
 467 1326 l 257
 467 1456 l 257
362 1547 m 257
 362 1238 l 257
 722 1238 l 257
 722 1547 l 257
 362 1547 l 257
EndSplineSet
PickledDataWithLists: "(dp0
Vcom.fontlab.hintData
p1
(dp2
Vhhints
p3
(lp4
(dp5
Vposition
p6
I1238
sVwidth
p7
I309
sasVvhints
p8
(lp9
(dp10
g6
I362
sg7
I360
sass."
EndChar

StartChar: dieresis
Encoding: 104 168 164
GlifName: dieresis
Width: 1024
VWidth: 0
GlyphClass: 2
Flags: W
LayerCount: 2
Fore
SplineSet
345 1030 m 257
 345 929 l 257
 457 929 l 257
 457 1030 l 257
 345 1030 l 257
587 1030 m 257
 587 929 l 257
 699 929 l 257
 699 1030 l 257
 587 1030 l 257
EndSplineSet
EndChar

StartChar: divide
Encoding: 182 247 165
GlifName: divide
Width: 1024
VWidth: 0
GlyphClass: 2
Flags: W
LayerCount: 2
Fore
SplineSet
399.5 430 m 257
 399.5 201 l 257
 647.5 201 l 257
 647.5 430 l 257
 399.5 430 l 257
376.5 1294 m 257
 376.5 1047 l 257
 641.5 1047 l 257
 641.5 1294 l 257
 376.5 1294 l 257
99 808 m 257
 99 600 l 257
 925 600 l 257
 925 808 l 257
 99 808 l 257
EndSplineSet
EndChar

StartChar: dollar
Encoding: 5 36 166
GlifName: dollar
Width: 1024
VWidth: 0
GlyphClass: 2
Flags: W
LayerCount: 2
Fore
SplineSet
126 1539 m 257
 126 1358 l 257
 724 1358 l 257
 724 1539 l 257
 126 1539 l 257
126 1542 m 257
 126 1028 l 257
 331 1028 l 257
 331 1542 l 257
 126 1542 l 257
154 163 m 257
 154 0 l 257
 862 0 l 257
 862 163 l 257
 154 163 l 257
692 1 m 257
 898 1 l 257
 898 355 l 257
 692 355 l 257
 692 1 l 257
126 1028 m 257
 692 355 l 257
 898 355 l 257
 331 1028 l 257
 126 1028 l 257
385 1636 m 257
 385 -215 l 257
 599 -215 l 257
 599 1636 l 257
 385 1636 l 257
EndSplineSet
PickledDataWithLists: "(dp0
."
EndChar

StartChar: dotaccent
Encoding: 322 729 167
GlifName: dotaccent
Width: 1024
VWidth: 0
GlyphClass: 2
Flags: HW
LayerCount: 2
Fore
SplineSet
397 1053.25 m 261
 397 901.75 l 261
 565 901.75 l 261
 565 1053.25 l 261
 397 1053.25 l 261
EndSplineSet
EndChar

StartChar: dotlessi
Encoding: 240 305 168
GlifName: dotlessi
Width: 1024
VWidth: 0
GlyphClass: 2
Flags: W
LayerCount: 2
Fore
SplineSet
411 1018 m 257
 411 139 l 257
 613 139 l 257
 613 1018 l 257
 411 1018 l 257
141 204 m 257
 141 6 l 257
 883 6 l 257
 883 204 l 257
 141 204 l 257
191 1018 m 257
 191 818 l 257
 567 818 l 257
 567 1018 l 257
 191 1018 l 257
EndSplineSet
EndChar

StartChar: e
Encoding: 70 101 169
GlifName: e
Width: 1024
VWidth: 0
GlyphClass: 2
Flags: W
LayerCount: 2
Fore
SplineSet
219 1024 m 257
 219 812 l 257
 854 812 l 257
 854 1024 l 257
 219 1024 l 257
169 1022 m 257
 169 1 l 257
 371 1 l 257
 371 1022 l 257
 169 1022 l 257
271 201 m 257
 271 0 l 257
 853 0 l 257
 853 201 l 257
 271 201 l 257
239 625 m 257
 239 446 l 257
 829 446 l 257
 829 625 l 257
 239 625 l 257
657 993 m 257
 657 445 l 257
 852 445 l 257
 852 993 l 257
 657 993 l 257
EndSplineSet
EndChar

StartChar: eight
Encoding: 25 56 177
GlifName: eight
Width: 1024
VWidth: 0
GlyphClass: 2
Flags: W
HStem: -3 216 33 180 759 97 896 90 948 38 1417 222
VStem: 62 198 106 153 774 138 780 188
LayerCount: 2
Fore
SplineSet
56 1550 m 257
 62.5 0 l 257
 70.5 0 l 257
 70.5 -3 l 257
 968.5 -3 l 257
 969 1549 l 257
 56 1550 l 257
767 759 m 257
 767 197 l 257
 261 197 l 257
 260.5 759 l 257
 767 759 l 257
768 959 m 257
 260 959 l 257
 260 1350 l 257
 768 1350 l 257
 768 959 l 257
EndSplineSet
PickledDataWithLists: "(dp0
Vcom.fontlab.hintData
p1
(dp2
Vhhints
p3
(lp4
(dp5
Vposition
p6
I-3
sVwidth
p7
I216
sa(dp8
g6
I33
sg7
I180
sa(dp9
g6
I759
sg7
I97
sa(dp10
g6
I896
sg7
I90
sa(dp11
g6
I948
sg7
I38
sa(dp12
g6
I1417
sg7
I222
sasVvhints
p13
(lp14
(dp15
g6
I62
sg7
I198
sa(dp16
g6
I106
sg7
I153
sa(dp17
g6
I774
sg7
I138
sa(dp18
g6
I780
sg7
I188
sass."
EndChar

StartChar: ellipsis
Encoding: 527 8230 178
GlifName: ellipsis
Width: 1024
VWidth: 0
GlyphClass: 2
Flags: W
LayerCount: 2
Fore
SplineSet
179.5 114 m 257
 179.5 0 l 257
 322.5 0 l 257
 322.5 114 l 257
 179.5 114 l 257
436.5 114 m 257
 436.5 0 l 257
 579.5 0 l 257
 579.5 114 l 257
 436.5 114 l 257
701.5 114 m 257
 701.5 0 l 257
 844.5 0 l 257
 844.5 114 l 257
 701.5 114 l 257
EndSplineSet
EndChar

StartChar: emdash
Encoding: 517 8212 180
GlifName: emdash
Width: 1024
VWidth: 0
GlyphClass: 2
Flags: W
LayerCount: 2
Fore
SplineSet
2 600 m 257
 1024 600 l 257
 1024 808 l 257
 2 808 l 257
 2 600 l 257
EndSplineSet
EndChar

StartChar: endash
Encoding: 516 8211 181
GlifName: endash
Width: 1024
VWidth: 0
GlyphClass: 2
Flags: W
LayerCount: 2
Fore
SplineSet
99 600 m 257
 925 600 l 257
 925 808 l 257
 99 808 l 257
 99 600 l 257
EndSplineSet
EndChar

StartChar: equal
Encoding: 30 61 183
GlifName: equal
Width: 1024
VWidth: 0
GlyphClass: 2
Flags: W
LayerCount: 2
Fore
SplineSet
103.5 914 m 257
 103.5 724 l 257
 920.5 724 l 257
 920.5 914 l 257
 103.5 914 l 257
103.5 540 m 257
 103.5 350 l 257
 920.5 350 l 257
 920.5 540 l 257
 103.5 540 l 257
EndSplineSet
PickledDataWithLists: "(dp0
."
EndChar

StartChar: eth
Encoding: 175 240 184
GlifName: eth
Width: 1024
VWidth: 0
GlyphClass: 2
Flags: W
LayerCount: 2
Fore
SplineSet
241 1547 m 257
 692 0 l 257
 893 0 l 257
 442 1547 l 257
 241 1547 l 257
228 1023 m 257
 228 822 l 257
 569 822 l 257
 569 1023 l 257
 228 1023 l 257
132 1022 m 257
 132 0 l 257
 333 0 l 257
 333 1022 l 257
 132 1022 l 257
228 195 m 257
 228 0 l 257
 845 0 l 257
 845 195 l 257
 228 195 l 257
161 1416 m 257
 161 1229 l 257
 693 1229 l 257
 693 1416 l 257
 161 1416 l 257
EndSplineSet
EndChar

StartChar: exclam
Encoding: 2 33 185
GlifName: exclam
Width: 1024
VWidth: 0
GlyphClass: 2
Flags: W
LayerCount: 2
Fore
SplineSet
440 17 m 257
 584 17 l 257
 584 265 l 257
 440 265 l 257
 440 17 l 257
450 502 m 257
 578 502 l 257
 578 1520 l 257
 450 1520 l 257
 450 502 l 257
EndSplineSet
EndChar

StartChar: exclamdown
Encoding: 97 161 186
GlifName: exclamdown
Width: 1024
VWidth: 0
GlyphClass: 2
Flags: W
LayerCount: 2
Fore
SplineSet
672 1520 m 257
 528 1520 l 257
 528 1272 l 257
 672 1272 l 257
 672 1520 l 257
662 1035 m 257
 534 1035 l 257
 534 17 l 257
 662 17 l 257
 662 1035 l 257
EndSplineSet
EndChar

StartChar: f
Encoding: 71 102 187
GlifName: f
Width: 1024
VWidth: 0
GlyphClass: 2
Flags: W
LayerCount: 2
Fore
SplineSet
316 1025 m 257
 316 -406 l 257
 516 -406 l 257
 516 1025 l 257
 316 1025 l 257
378 1025 m 257
 378 831 l 257
 860 831 l 257
 860 1025 l 257
 378 1025 l 257
132 559 m 257
 132 356 l 257
 763 356 l 257
 763 559 l 257
 132 559 l 257
EndSplineSet
EndChar

StartChar: five
Encoding: 22 53 188
GlifName: five
Width: 1024
VWidth: 0
GlyphClass: 2
Flags: W
HStem: -2 190 52 136 759 188 863 123 1418 223 1418 201
VStem: 42 203 772 205
LayerCount: 2
Fore
SplineSet
772.5 759 m 257
 774 198 l 257
 59 198 l 257
 55 -2 l 257
 979.5 -2 l 257
 977 959 l 257
 260 959 l 257
 260 1352 l 257
 987 1352 l 257
 987 1552 l 257
 60 1552 l 257
 59 759 l 257
 772.5 759 l 257
EndSplineSet
PickledDataWithLists: "(dp0
Vcom.fontlab.hintData
p1
(dp2
Vhhints
p3
(lp4
(dp5
Vposition
p6
I-2
sVwidth
p7
I190
sa(dp8
g6
I52
sg7
I136
sa(dp9
g6
I759
sg7
I188
sa(dp10
g6
I863
sg7
I123
sa(dp11
g6
I1418
sg7
I223
sa(dp12
g6
I1418
sg7
I201
sasVvhints
p13
(lp14
(dp15
g6
I42
sg7
I203
sa(dp16
g6
I772
sg7
I205
sass."
EndChar

StartChar: four
Encoding: 21 52 189
GlifName: four
Width: 1024
VWidth: 0
GlyphClass: 2
Flags: W
HStem: 7 21<733 934.5 934.5 934.5> 761 57 884 104 940 48
VStem: 90 203 726 209
LayerCount: 2
Fore
SplineSet
89.5 761 m 257
 733 761 l 257
 733 7 l 257
 934.5 7 l 257
 929 1548 l 257
 730 1548 l 257
 730 961 l 257
 291 961 l 257
 291 1552 l 257
 91 1552 l 257
 89.5 761 l 257
EndSplineSet
PickledDataWithLists: "(dp0
Vcom.fontlab.hintData
p1
(dp2
Vhhints
p3
(lp4
(dp5
Vposition
p6
I7
sVwidth
p7
I21
sa(dp8
g6
I761
sg7
I57
sa(dp9
g6
I884
sg7
I104
sa(dp10
g6
I940
sg7
I48
sasVvhints
p11
(lp12
(dp13
g6
I90
sg7
I203
sa(dp14
g6
I726
sg7
I209
sass."
EndChar

StartChar: g
Encoding: 72 103 190
GlifName: g
Width: 1024
VWidth: 0
GlyphClass: 2
Flags: W
LayerCount: 2
Fore
SplineSet
297 1024 m 257
 297 0 l 257
 489 0 l 257
 489 1024 l 257
 297 1024 l 257
337 1024 m 257
 337 823 l 257
 853 823 l 257
 853 1024 l 257
 337 1024 l 257
681 1024 m 257
 681 -411 l 257
 875 -411 l 257
 875 1024 l 257
 681 1024 l 257
360 198 m 257
 360 -1 l 257
 817 -1 l 257
 817 198 l 257
 360 198 l 257
291 -214 m 257
 291 -413 l 257
 826 -413 l 257
 826 -214 l 257
 291 -214 l 257
EndSplineSet
EndChar

StartChar: germandbls
Encoding: 158 223 194
GlifName: germandbls
Width: 1024
VWidth: 0
GlyphClass: 2
Flags: W
LayerCount: 2
Fore
SplineSet
18 1221 m 257
 18 1023 l 257
 269 1023 l 257
 269 1221 l 257
 18 1221 l 257
204 1547 m 257
 204 -4 l 257
 410 -4 l 257
 410 1547 l 257
 204 1547 l 257
410 1548 m 257
 410 1328 l 257
 805 1328 l 257
 805 1548 l 257
 410 1548 l 257
690 1548 m 257
 690 1023 l 257
 889 1023 l 257
 889 1548 l 257
 690 1548 l 257
690 1062 m 257
 490 1062 l 257
 490 826 l 257
 690 826 l 257
 690 1062 l 257
690 848 m 257
 690 175 l 257
 890 175 l 257
 890 848 l 257
 690 848 l 257
547 251 m 257
 547 40 l 257
 890 40 l 257
 890 251 l 257
 547 251 l 257
EndSplineSet
PickledDataWithLists: "(dp0
."
EndChar

StartChar: glyph094D
Encoding: 539 -1 195
GlifName: uni094D_.alt
Width: 1024
VWidth: 0
GlyphClass: 4
Flags: W
LayerCount: 2
Fore
SplineSet
-553 -22 m 257
 -553 -218 l 257
 -196 -218 l 257
 -196 -22 l 257
 -553 -22 l 257
-337 -183 m 257
 0 -588 l 257
 144 -425 l 257
 -194 -21 l 257
 -337 -183 l 257
EndSplineSet
EndChar

StartChar: grave
Encoding: 65 96 196
GlifName: grave
Width: 1024
VWidth: 0
GlyphClass: 2
Flags: W
LayerCount: 2
Fore
SplineSet
266 1358 m 257
 411 1057 l 257
 560 1129 l 257
 414 1430 l 257
 266 1358 l 257
EndSplineSet
PickledDataWithLists: "(dp0
."
EndChar

StartChar: gravecomb
Encoding: 327 768 197
GlifName: gravecomb
Width: 1024
VWidth: 0
GlyphClass: 4
Flags: W
LayerCount: 2
Fore
SplineSet
421 2107 m 257
 541 1871 l 257
 632 1917 l 257
 513 2154 l 257
 421 2107 l 257
EndSplineSet
PickledDataWithLists: "(dp0
."
EndChar

StartChar: greater
Encoding: 31 62 198
GlifName: greater
Width: 1024
VWidth: 0
GlyphClass: 2
Flags: W
LayerCount: 2
Fore
SplineSet
922.5 777 m 257
 100.5 1013 l 257
 100.5 807 l 257
 923.5 568 l 257
 922.5 777 l 257
922.5 777 m 257
 102.5 319 l 257
 102.5 122 l 257
 923.5 568 l 257
 922.5 777 l 257
EndSplineSet
PickledDataWithLists: "(dp0
."
EndChar

StartChar: guillemotleft
Encoding: 107 171 199
GlifName: guillemotleft
Width: 1024
VWidth: 0
GlyphClass: 2
Flags: W
LayerCount: 2
Fore
SplineSet
134 609 m 257
 134 454 l 257
 503 631 l 257
 503 784 l 257
 134 609 l 257
134 609 m 257
 134 454 l 257
 502 122 l 257
 502 268 l 257
 134 609 l 257
549 609 m 257
 549 454 l 257
 918 631 l 257
 918 784 l 257
 549 609 l 257
549 609 m 257
 549 454 l 257
 917 122 l 257
 917 268 l 257
 549 609 l 257
EndSplineSet
EndChar

StartChar: guillemotright
Encoding: 122 187 200
GlifName: guillemotright
Width: 1024
VWidth: 0
GlyphClass: 2
Flags: W
LayerCount: 2
Fore
SplineSet
920 609 m 257
 551 784 l 257
 551 631 l 257
 920 454 l 257
 920 609 l 257
920 609 m 257
 552 268 l 257
 552 122 l 257
 920 454 l 257
 920 609 l 257
505 609 m 257
 136 784 l 257
 136 631 l 257
 505 454 l 257
 505 609 l 257
505 609 m 257
 137 268 l 257
 137 122 l 257
 505 454 l 257
 505 609 l 257
EndSplineSet
EndChar

StartChar: guilsinglleft
Encoding: 529 8249 201
GlifName: guilsinglleft
Width: 1024
VWidth: 0
GlyphClass: 2
Flags: W
LayerCount: 2
Fore
SplineSet
103 777 m 257
 103 569 l 257
 921 807 l 257
 921 1013 l 257
 103 777 l 257
103 777 m 257
 103 569 l 257
 919 122 l 257
 919 319 l 257
 103 777 l 257
EndSplineSet
EndChar

StartChar: guilsinglright
Encoding: 530 8250 202
GlifName: guilsinglright
Width: 1024
VWidth: 0
GlyphClass: 2
Flags: W
LayerCount: 2
Fore
SplineSet
922.5 777 m 257
 100.5 1013 l 257
 100.5 807 l 257
 923.5 568 l 257
 922.5 777 l 257
922.5 777 m 257
 102.5 319 l 257
 102.5 122 l 257
 923.5 568 l 257
 922.5 777 l 257
EndSplineSet
EndChar

StartChar: h
Encoding: 73 104 203
GlifName: h
Width: 1024
VWidth: 0
GlyphClass: 2
Flags: W
LayerCount: 2
Fore
SplineSet
174 1541 m 257
 174 6 l 257
 374 6 l 257
 374 1541 l 257
 174 1541 l 257
311 1025 m 257
 311 826 l 257
 842 826 l 257
 842 1025 l 257
 311 1025 l 257
651 1024 m 257
 651 1 l 257
 850 1 l 257
 850 1024 l 257
 651 1024 l 257
EndSplineSet
PickledDataWithLists: "(dp0
."
EndChar

StartChar: hbar
Encoding: 230 295 204
GlifName: hbar
Width: 1024
VWidth: 0
GlyphClass: 2
Flags: W
LayerCount: 2
Fore
SplineSet
174 1541 m 257
 174 6 l 257
 374 6 l 257
 374 1541 l 257
 174 1541 l 257
311 1025 m 257
 311 826 l 257
 842 826 l 257
 842 1025 l 257
 311 1025 l 257
651 1024 m 257
 651 1 l 257
 850 1 l 257
 850 1024 l 257
 651 1024 l 257
38 1429 m 257
 38 1221 l 257
 494 1221 l 257
 494 1429 l 257
 38 1429 l 257
EndSplineSet
EndChar

StartChar: hungarumlaut
Encoding: 326 733 206
GlifName: hungarumlaut
Width: 1024
VWidth: 0
GlyphClass: 2
Flags: W
LayerCount: 2
Fore
SplineSet
-272 122 m 257
 -128 122 l 257
 -128 370 l 257
 -272 370 l 257
 -272 122 l 257
128 122 m 257
 272 122 l 257
 272 370 l 257
 128 370 l 257
 128 122 l 257
EndSplineSet
EndChar

StartChar: hyphen
Encoding: 14 45 207
GlifName: hyphen
Width: 1024
VWidth: 0
GlyphClass: 2
Flags: W
HStem: 600 208<99 925>
LayerCount: 2
Fore
SplineSet
99 808 m 257
 99 600 l 257
 925 600 l 257
 925 808 l 257
 99 808 l 257
EndSplineSet
PickledDataWithLists: "(dp0
Vcom.fontlab.hintData
p1
(dp2
Vhhints
p3
(lp4
(dp5
Vposition
p6
I600
sVwidth
p7
I208
sass."
EndChar

StartChar: i
Encoding: 74 105 208
GlifName: i
Width: 1024
VWidth: 0
GlyphClass: 2
Flags: W
LayerCount: 2
Fore
SplineSet
411 1018 m 257
 411 139 l 257
 613 139 l 257
 613 1018 l 257
 411 1018 l 257
141 204 m 257
 141 6 l 257
 883 6 l 257
 883 204 l 257
 141 204 l 257
347 1369 m 257
 347 1168 l 257
 545 1168 l 257
 545 1369 l 257
 347 1369 l 257
191 1018 m 257
 191 818 l 257
 567 818 l 257
 567 1018 l 257
 191 1018 l 257
EndSplineSet
EndChar

StartChar: j
Encoding: 75 106 217
GlifName: j
Width: 1024
VWidth: 0
GlyphClass: 2
Flags: W
VStem: 197 629<-409 -209 -409 -409>
LayerCount: 2
Fore
SplineSet
627 1024 m 257
 627 -411 l 257
 826 -411 l 257
 826 1024 l 257
 627 1024 l 257
197 -209 m 257
 197 -409 l 257
 727 -409 l 257
 727 -209 l 257
 197 -209 l 257
198 -6 m 257
 198 -351 l 257
 398 -351 l 257
 398 -6 l 257
 198 -6 l 257
619 1413 m 257
 619 1214 l 257
 820 1214 l 257
 820 1413 l 257
 619 1413 l 257
EndSplineSet
PickledDataWithLists: "(dp0
Vcom.fontlab.hintData
p1
(dp2
Vvhints
p3
(lp4
(dp5
Vposition
p6
I197
sVwidth
p7
I629
sass."
EndChar

StartChar: k
Encoding: 76 107 219
GlifName: k
Width: 1024
VWidth: 0
GlyphClass: 2
Flags: W
LayerCount: 2
Fore
SplineSet
118 1535 m 257
 118 5 l 257
 318 5 l 257
 318 1535 l 257
 118 1535 l 257
167 516 m 257
 216 298 l 257
 903 1023 l 257
 686 1023 l 257
 167 516 l 257
424 631 m 257
 272 483 l 257
 722 -2 l 257
 960 -2 l 257
 424 631 l 257
EndSplineSet
EndChar

StartChar: l
Encoding: 77 108 220
GlifName: l
Width: 1024
VWidth: 0
GlyphClass: 2
Flags: W
VStem: 195 634<9 209 9 209>
LayerCount: 2
Fore
SplineSet
195 209 m 257
 195 9 l 257
 829 9 l 257
 829 209 l 257
 195 209 l 257
412 1547 m 257
 412 86 l 257
 612 86 l 257
 612 1547 l 257
 412 1547 l 257
256 1548 m 257
 256 1349 l 257
 491 1349 l 257
 491 1548 l 257
 256 1548 l 257
EndSplineSet
PickledDataWithLists: "(dp0
Vcom.fontlab.hintData
p1
(dp2
Vvhints
p3
(lp4
(dp5
Vposition
p6
I195
sVwidth
p7
I634
sass."
EndChar

StartChar: lcaron
Encoding: 250 318 222
GlifName: lcaron
Width: 1024
VWidth: 0
GlyphClass: 2
Flags: W
LayerCount: 2
Fore
SplineSet
133 209 m 257
 133 9 l 257
 767 9 l 257
 767 209 l 257
 133 209 l 257
350 1547 m 257
 350 86 l 257
 550 86 l 257
 550 1547 l 257
 350 1547 l 257
194 1548 m 257
 194 1349 l 257
 429 1349 l 257
 429 1548 l 257
 194 1548 l 257
630 1496 m 257
 630 1264 l 257
 760 1264 l 257
 760 1496 l 257
 630 1496 l 257
EndSplineSet
PickledDataWithLists: "(dp0
."
EndChar

StartChar: less
Encoding: 29 60 224
GlifName: less
Width: 1024
VWidth: 0
GlyphClass: 2
Flags: W
LayerCount: 2
Fore
SplineSet
103 777 m 257
 103 569 l 257
 921 807 l 257
 921 1013 l 257
 103 777 l 257
103 777 m 257
 103 569 l 257
 919 122 l 257
 919 319 l 257
 103 777 l 257
EndSplineSet
PickledDataWithLists: "(dp0
."
EndChar

StartChar: logicalnot
Encoding: 108 172 225
GlifName: logicalnot
Width: 1024
VWidth: 0
GlyphClass: 2
Flags: W
HStem: 640 295<641 751 751 751>
VStem: 211 550<835 935 835 935>
LayerCount: 2
Fore
SplineSet
641 935 m 257
 641 640 l 257
 751 640 l 257
 751 935 l 257
 641 935 l 257
211 935 m 257
 211 835 l 257
 761 835 l 257
 761 935 l 257
 211 935 l 257
EndSplineSet
PickledDataWithLists: "(dp0
Vcom.fontlab.hintData
p1
(dp2
Vhhints
p3
(lp4
(dp5
Vposition
p6
I640
sVwidth
p7
I295
sasVvhints
p8
(lp9
(dp10
g6
I211
sg7
I550
sass."
EndChar

StartChar: lslash
Encoding: 254 322 226
GlifName: lslash
Width: 1024
VWidth: 0
GlyphClass: 2
Flags: W
LayerCount: 2
Fore
SplineSet
195 209 m 257
 195 9 l 257
 829 9 l 257
 829 209 l 257
 195 209 l 257
412 1547 m 257
 412 86 l 257
 612 86 l 257
 612 1547 l 257
 412 1547 l 257
256 1548 m 257
 256 1349 l 257
 491 1349 l 257
 491 1548 l 257
 256 1548 l 257
815 1213 m 257
 112 830 l 257
 214 656 l 257
 917 1039 l 257
 815 1213 l 257
EndSplineSet
PickledDataWithLists: "(dp0
."
EndChar

StartChar: m
Encoding: 78 109 227
GlifName: m
Width: 1024
VWidth: 0
GlyphClass: 2
Flags: W
LayerCount: 2
Fore
SplineSet
110 993 m 257
 110 1 l 257
 310 1 l 257
 310 993 l 257
 110 993 l 257
425 972 m 257
 425 -2 l 257
 625 -2 l 257
 625 972 l 257
 425 972 l 257
740 976 m 257
 740 1 l 257
 940 1 l 257
 940 976 l 257
 740 976 l 257
33 1027 m 257
 33 826 l 257
 939 826 l 257
 939 1027 l 257
 33 1027 l 257
EndSplineSet
EndChar

StartChar: macron
Encoding: 110 175 228
GlifName: macron
Width: 1024
VWidth: 0
GlyphClass: 2
Flags: W
HStem: 522 78
VStem: 220 560
LayerCount: 2
Fore
SplineSet
245 1022 m 257
 245 944 l 257
 805 944 l 257
 805 1022 l 257
 245 1022 l 257
EndSplineSet
PickledDataWithLists: "(dp0
Vcom.fontlab.hintData
p1
(dp2
Vhhints
p3
(lp4
(dp5
Vposition
p6
I522
sVwidth
p7
I78
sasVvhints
p8
(lp9
(dp10
g6
I220
sg7
I560
sass."
EndChar

StartChar: mu
Encoding: 116 181 230
GlifName: mu
Width: 1024
VWidth: 0
GlyphClass: 2
Flags: W
HStem: 0 120<296 811 731 811>
VStem: 196 95<-430 935 -430 935> 731 110<0 935 0 935> 731 80<0 120 0 935 0 120>
LayerCount: 2
Fore
SplineSet
731 935 m 257
 731 0 l 257
 841 0 l 257
 841 935 l 257
 731 935 l 257
296 120 m 257
 296 0 l 257
 811 0 l 257
 811 120 l 257
 296 120 l 257
196 935 m 257
 196 -430 l 257
 291 -430 l 257
 291 935 l 257
 196 935 l 257
EndSplineSet
PickledDataWithLists: "(dp0
Vcom.fontlab.hintData
p1
(dp2
Vhhints
p3
(lp4
(dp5
Vposition
p6
I0
sVwidth
p7
I120
sasVvhints
p8
(lp9
(dp10
g6
I196
sg7
I95
sa(dp11
g6
I731
sg7
I110
sa(dp12
g6
I731
sg7
I80
sass."
EndChar

StartChar: multiply
Encoding: 150 215 231
GlifName: multiply
Width: 1024
VWidth: 0
GlyphClass: 2
Flags: W
LayerCount: 2
Fore
SplineSet
91 302 m 257
 292 302 l 257
 927 1323 l 257
 728 1323 l 257
 91 302 l 257
93 1325 m 257
 735 298 l 257
 934 298 l 257
 295 1325 l 257
 93 1325 l 257
EndSplineSet
EndChar

StartChar: n
Encoding: 79 110 232
GlifName: n
Width: 1024
VWidth: 0
GlyphClass: 2
Flags: W
LayerCount: 2
Fore
SplineSet
244 990 m 257
 244 -2 l 257
 445 -2 l 257
 445 990 l 257
 244 990 l 257
643 976 m 257
 643 1 l 257
 844 1 l 257
 844 976 l 257
 643 976 l 257
65 1027 m 257
 65 826 l 257
 843 826 l 257
 843 1027 l 257
 65 1027 l 257
EndSplineSet
EndChar

StartChar: nine
Encoding: 26 57 235
GlifName: nine
Width: 1024
VWidth: 0
GlyphClass: 2
Flags: W
HStem: -1 209 759 74 868 118 1416 208 1416 95
VStem: 42 203 782 194 782 114
LayerCount: 2
Fore
SplineSet
781 759 m 257
 781 200 l 257
 79 200 l 257
 77 -1 l 257
 982.5 0 l 257
 977 1554 l 257
 57 1554 l 257
 57 1541 l 257
 57 759 l 257
 781 759 l 257
778 959 m 257
 257 959 l 257
 257 1354 l 257
 778 1354 l 257
 778 959 l 257
EndSplineSet
PickledDataWithLists: "(dp0
Vcom.fontlab.hintData
p1
(dp2
Vhhints
p3
(lp4
(dp5
Vposition
p6
I-1
sVwidth
p7
I209
sa(dp8
g6
I759
sg7
I74
sa(dp9
g6
I868
sg7
I118
sa(dp10
g6
I1416
sg7
I208
sa(dp11
g6
I1416
sg7
I95
sasVvhints
p12
(lp13
(dp14
g6
I42
sg7
I203
sa(dp15
g6
I782
sg7
I194
sa(dp16
g6
I782
sg7
I114
sass."
EndChar

StartChar: numbersign
Encoding: 4 35 237
GlifName: numbersign
Width: 1024
VWidth: 0
GlyphClass: 2
Flags: W
LayerCount: 2
Fore
SplineSet
227.5 1347 m 257
 227.5 313 l 257
 367.5 313 l 257
 367.5 1347 l 257
 227.5 1347 l 257
638.5 1350 m 257
 638.5 279 l 257
 805.5 279 l 257
 805.5 1350 l 257
 638.5 1350 l 257
98.5 1157 m 257
 98.5 1010 l 257
 916.5 1010 l 257
 916.5 1157 l 257
 98.5 1157 l 257
98.5 767 m 257
 98.5 592 l 257
 925.5 592 l 257
 925.5 767 l 257
 98.5 767 l 257
EndSplineSet
PickledDataWithLists: "(dp0
."
EndChar

StartChar: o
Encoding: 80 111 238
GlifName: o
Width: 1024
VWidth: 0
GlyphClass: 2
Flags: W
LayerCount: 2
Fore
SplineSet
104 1022 m 257
 104 0 l 257
 304 0 l 257
 304 1022 l 257
 104 1022 l 257
719 1024 m 257
 719 0 l 257
 921 0 l 257
 921 1024 l 257
 719 1024 l 257
227 1024 m 257
 227 822 l 257
 813 822 l 257
 813 1024 l 257
 227 1024 l 257
231 200 m 257
 231 1 l 257
 803 1 l 257
 803 200 l 257
 231 200 l 257
EndSplineSet
EndChar

StartChar: oe
Encoding: 268 339 243
GlifName: oe
Width: 1024
VWidth: 0
GlyphClass: 2
Flags: W
LayerCount: 2
Fore
SplineSet
597 645 m 257
 600 446 l 257
 824 446 l 257
 824 645 l 257
 597 645 l 257
799 1023 m 257
 799 445 l 257
 999 445 l 257
 999 1023 l 257
 799 1023 l 257
103 1024 m 257
 103 0 l 257
 303 0 l 257
 303 1024 l 257
 103 1024 l 257
451 1024 m 257
 451 0 l 257
 651 0 l 257
 651 1024 l 257
 451 1024 l 257
158 1024 m 257
 158 823 l 257
 859 823 l 257
 859 1024 l 257
 158 1024 l 257
149 200 m 257
 149 0 l 257
 999 0 l 257
 999 200 l 257
 149 200 l 257
EndSplineSet
PickledDataWithLists: "(dp0
."
EndChar

StartChar: ogonek
Encoding: 324 731 244
GlifName: ogonek
Width: 1024
VWidth: 0
GlyphClass: 2
Flags: W
HStem: -410 122<259 801 259 377 377 377> -121 121<259 801>
VStem: 482 118
LayerCount: 2
Fore
SplineSet
259 -288 m 257
 259 -410 l 257
 801 -410 l 257
 801 -288 l 257
 259 -288 l 257
259 0 m 257
 259 -410 l 257
 377 -410 l 257
 377 0 l 257
 259 0 l 257
259 0 m 257
 259 -121 l 257
 801 -121 l 257
 801 0 l 257
 259 0 l 257
EndSplineSet
PickledDataWithLists: "(dp0
Vcom.fontlab.hintData
p1
(dp2
Vhhints
p3
(lp4
(dp5
Vposition
p6
I-410
sVwidth
p7
I122
sa(dp8
g6
I-121
sg7
I121
sasVvhints
p9
(lp10
(dp11
g6
I482
sg7
I118
sass."
EndChar

StartChar: one
Encoding: 18 49 248
GlifName: one
Width: 1024
VWidth: 0
GlyphClass: 2
Flags: W
VStem: 370 274
LayerCount: 2
Fore
SplineSet
412 0 m 257
 611 0 l 257
 611 1551 l 257
 412 1551 l 257
 412 0 l 257
416 1549 m 257
 218 1252 l 257
 368 1152 l 257
 566 1449 l 257
 416 1549 l 257
EndSplineSet
PickledDataWithLists: "(dp0
Vcom.fontlab.hintData
p1
(dp2
Vvhints
p3
(lp4
(dp5
Vposition
p6
I370
sVwidth
p7
I274
sass."
EndChar

StartChar: onehalf
Encoding: 124 189 249
GlifName: onehalf
Width: 1024
VWidth: 0
GlyphClass: 2
Flags: W
HStem: -8 104 44 52 292 109 565 83
VStem: 287 110 566 122 685 2 872 6 872 16
LayerCount: 2
Fore
SplineSet
703 1483 m 257
 133 6 l 257
 310 -30 l 257
 880 1447 l 257
 703 1483 l 257
298 863 m 257
 381 863 l 257
 381 1551 l 257
 298 1551 l 257
 298 863 l 257
300 1550 m 257
 218 1419 l 257
 280 1374 l 257
 362 1506 l 257
 300 1550 l 257
654 603 m 257
 853 603 l 257
 853 407 l 257
 656 407 l 257
 656 0 l 257
 913 0 l 257
 913 90 l 257
 722 91 l 257
 722 317 l 257
 918 317 l 257
 918 693 l 257
 654 693 l 257
 654 603 l 257
EndSplineSet
PickledDataWithLists: "(dp0
Vcom.fontlab.hintData
p1
(dp2
Vhhints
p3
(lp4
(dp5
Vposition
p6
I-8
sVwidth
p7
I104
sa(dp8
g6
I44
sg7
I52
sa(dp9
g6
I292
sg7
I109
sa(dp10
g6
I565
sg7
I83
sasVvhints
p11
(lp12
(dp13
g6
I287
sg7
I110
sa(dp14
g6
I566
sg7
I122
sa(dp15
g6
I685
sg7
I2
sa(dp16
g6
I872
sg7
I6
sa(dp17
g6
I872
sg7
I16
sass."
EndChar

StartChar: onequarter
Encoding: 123 188 250
GlifName: onequarter
Width: 1024
VWidth: 0
GlyphClass: 2
Flags: W
HStem: 5 8 306 23 356 42 378 19
VStem: 311 110 632 81 886 84
LayerCount: 2
Fore
SplineSet
665.75 1480 m 257
 78.75 10 l 257
 181.75 10 l 257
 768.75 1480 l 257
 665.75 1480 l 257
307 1045 m 257
 361 1045 l 257
 361 1551 l 257
 307 1551 l 257
 307 1045 l 257
312 1551 m 257
 202 1428 l 257
 222 1391 l 257
 341 1541 l 257
 312 1551 l 257
568 379 m 257
 873 379 l 257
 873 7 l 257
 935 7 l 257
 932 768 l 257
 872 768 l 257
 872 445 l 257
 627 445 l 257
 627 770 l 257
 568 770 l 257
 568 379 l 257
EndSplineSet
PickledDataWithLists: "(dp0
Vcom.fontlab.hintData
p1
(dp2
Vhhints
p3
(lp4
(dp5
Vposition
p6
I5
sVwidth
p7
I8
sa(dp8
g6
I306
sg7
I23
sa(dp9
g6
I356
sg7
I42
sa(dp10
g6
I378
sg7
I19
sasVvhints
p11
(lp12
(dp13
g6
I311
sg7
I110
sa(dp14
g6
I632
sg7
I81
sa(dp15
g6
I886
sg7
I84
sass."
EndChar

StartChar: ordfeminine
Encoding: 106 170 251
GlifName: ordfeminine
Width: 1024
VWidth: 0
GlyphClass: 2
Flags: W
LayerCount: 2
Fore
SplineSet
168 1319 m 257
 168 1119 l 257
 774 1119 l 257
 774 1319 l 257
 168 1319 l 257
661 1320 m 257
 661 296 l 257
 855 296 l 257
 855 1320 l 257
 661 1320 l 257
172 894 m 257
 172 695 l 257
 796 695 l 257
 796 894 l 257
 172 894 l 257
172 870 m 257
 172 293 l 257
 373 293 l 257
 373 870 l 257
 172 870 l 257
170 496 m 257
 170 296 l 257
 860 296 l 257
 860 496 l 257
 170 496 l 257
77 162 m 257
 77 4 l 257
 945 4 l 257
 945 162 l 257
 77 162 l 257
EndSplineSet
EndChar

StartChar: ordmasculine
Encoding: 121 186 252
GlifName: ordmasculine
Width: 1024
VWidth: 0
GlyphClass: 2
Flags: W
LayerCount: 2
Fore
SplineSet
104 1022 m 257
 104 0 l 257
 304 0 l 257
 304 1022 l 257
 104 1022 l 257
719 1024 m 257
 719 0 l 257
 921 0 l 257
 921 1024 l 257
 719 1024 l 257
227 1024 m 257
 227 822 l 257
 813 822 l 257
 813 1024 l 257
 227 1024 l 257
231 200 m 257
 231 1 l 257
 803 1 l 257
 803 200 l 257
 231 200 l 257
-5 -70 m 257
 -5 -136 l 257
 1019 -136 l 257
 1019 -70 l 257
 -5 -70 l 257
EndSplineSet
EndChar

StartChar: oslash
Encoding: 183 248 253
GlifName: oslash
Width: 1024
VWidth: 0
GlyphClass: 2
Flags: W
LayerCount: 2
Fore
SplineSet
837 1164 m 257
 9 -5 l 257
 171 -103 l 257
 1000 1066 l 257
 837 1164 l 257
104 1022 m 257
 104 0 l 257
 304 0 l 257
 304 1022 l 257
 104 1022 l 257
719 1024 m 257
 719 0 l 257
 921 0 l 257
 921 1024 l 257
 719 1024 l 257
227 1024 m 257
 227 822 l 257
 813 822 l 257
 813 1024 l 257
 227 1024 l 257
231 200 m 257
 231 1 l 257
 803 1 l 257
 803 200 l 257
 231 200 l 257
EndSplineSet
EndChar

StartChar: p
Encoding: 81 112 255
GlifName: p
Width: 1024
VWidth: 0
GlyphClass: 2
Flags: W
LayerCount: 2
Fore
SplineSet
173 1203 m 257
 173 -406 l 257
 373 -406 l 257
 373 1203 l 257
 173 1203 l 257
271 1020 m 257
 271 821 l 257
 810 821 l 257
 810 1020 l 257
 271 1020 l 257
275 202 m 257
 275 1 l 257
 815 1 l 257
 815 202 l 257
 275 202 l 257
613 876 m 257
 613 175 l 257
 811 175 l 257
 811 876 l 257
 613 876 l 257
EndSplineSet
EndChar

StartChar: paragraph
Encoding: 117 182 256
GlifName: paragraph
Width: 1024
VWidth: 0
GlyphClass: 2
Flags: W
LayerCount: 2
Fore
SplineSet
36 1130 m 257
 36 985 l 257
 601 985 l 257
 601 1130 l 257
 36 1130 l 257
36 1552 m 257
 36 1000 l 257
 196 1000 l 257
 196 1552 l 257
 36 1552 l 257
36 1552 m 257
 36 1435 l 257
 856 1435 l 257
 856 1552 l 257
 36 1552 l 257
506 1552 m 257
 506 0 l 257
 651 0 l 257
 651 1552 l 257
 506 1552 l 257
776 1552 m 257
 776 0 l 257
 881 0 l 257
 881 1552 l 257
 776 1552 l 257
EndSplineSet
EndChar

StartChar: parenleft
Encoding: 9 40 257
GlifName: parenleft
Width: 1024
VWidth: 0
GlyphClass: 2
Flags: W
VStem: 324 190
LayerCount: 2
Fore
SplineSet
323.5 1026 m 257
 323.5 179 l 257
 513.5 179 l 257
 513.5 1026 l 257
 323.5 1026 l 257
642.5 1633 m 257
 323.5 1028 l 257
 512.5 1028 l 257
 672.5 1640 l 257
 642.5 1633 l 257
323.5 179 m 257
 667.5 -408 l 257
 700.5 -408 l 257
 514.5 179 l 257
 323.5 179 l 257
EndSplineSet
PickledDataWithLists: "(dp0
Vcom.fontlab.hintData
p1
(dp2
Vvhints
p3
(lp4
(dp5
Vposition
p6
I324
sVwidth
p7
I190
sass."
EndChar

StartChar: parenright
Encoding: 10 41 258
GlifName: parenright
Width: 1024
VWidth: 0
GlyphClass: 2
Flags: W
HStem: 1006 20<488.5 488.5 488.5 678.5 488.5 678.5 678.5 678.5> 1026 21<488.5 488.5 488.5 678.5 488.5 678.5 678.5 678.5>
VStem: 488 190
LayerCount: 2
Fore
SplineSet
488.5 1026 m 257
 488.5 179 l 257
 678.5 179 l 257
 678.5 1026 l 257
 488.5 1026 l 257
345.5 1629 m 257
 488.5 1026 l 257
 678.5 1026 l 257
 383.5 1629 l 257
 345.5 1629 l 257
488.5 179 m 257
 345.5 -409 l 257
 374.5 -409 l 257
 678.5 179 l 257
 488.5 179 l 257
EndSplineSet
PickledDataWithLists: "(dp0
Vcom.fontlab.hintData
p1
(dp2
Vhhints
p3
(lp4
(dp5
Vposition
p6
I1006
sVwidth
p7
I20
sa(dp8
g6
I1026
sg7
I21
sasVvhints
p9
(lp10
(dp11
g6
I488
sg7
I190
sass."
EndChar

StartChar: percent
Encoding: 6 37 259
GlifName: percent
Width: 1024
VWidth: 0
GlyphClass: 2
Flags: W
LayerCount: 2
Fore
SplineSet
78.5 522 m 257
 121.5 377 l 257
 945.5 716 l 257
 901.5 860 l 257
 78.5 522 l 257
218.5 1148 m 257
 218.5 822 l 257
 296.5 822 l 257
 296.5 1148 l 257
 218.5 1148 l 257
218.5 1152 m 257
 218.5 1057 l 257
 565.5 1057 l 257
 565.5 1152 l 257
 218.5 1152 l 257
218.5 871 m 257
 218.5 789 l 257
 562.5 789 l 257
 562.5 871 l 257
 218.5 871 l 257
473.5 1152 m 257
 473.5 791 l 257
 565.5 791 l 257
 565.5 1152 l 257
 473.5 1152 l 257
545.5 436 m 257
 545.5 110 l 257
 623.5 110 l 257
 623.5 436 l 257
 545.5 436 l 257
545.5 440 m 257
 545.5 345 l 257
 892.5 345 l 257
 892.5 440 l 257
 545.5 440 l 257
545.5 159 m 257
 545.5 77 l 257
 889.5 77 l 257
 889.5 159 l 257
 545.5 159 l 257
800.5 440 m 257
 800.5 79 l 257
 892.5 79 l 257
 892.5 440 l 257
 800.5 440 l 257
EndSplineSet
PickledDataWithLists: "(dp0
."
EndChar

StartChar: period
Encoding: 15 46 260
GlifName: period
Width: 1024
VWidth: 0
GlyphClass: 2
Flags: W
HStem: -1 247<379.5 644.5>
VStem: 380 265
LayerCount: 2
Fore
SplineSet
379.5 246 m 257
 379.5 -1 l 257
 644.5 -1 l 257
 644.5 246 l 257
 379.5 246 l 257
EndSplineSet
PickledDataWithLists: "(dp0
Vcom.fontlab.hintData
p1
(dp2
Vhhints
p3
(lp4
(dp5
Vposition
p6
I-1
sVwidth
p7
I247
sasVvhints
p8
(lp9
(dp10
g6
I380
sg7
I265
sass."
EndChar

StartChar: periodcentered
Encoding: 118 183 261
GlifName: periodcentered
Width: 1024
VWidth: 0
GlyphClass: 2
Flags: W
HStem: 899 247<379 644>
VStem: 379 265<899 1146 899 1146>
LayerCount: 2
Fore
SplineSet
379 1146 m 257
 379 899 l 257
 644 899 l 257
 644 1146 l 257
 379 1146 l 257
EndSplineSet
PickledDataWithLists: "(dp0
Vcom.fontlab.hintData
p1
(dp2
Vhhints
p3
(lp4
(dp5
Vposition
p6
I899
sVwidth
p7
I247
sasVvhints
p8
(lp9
(dp10
g6
I379
sg7
I265
sass."
EndChar

StartChar: perthousand
Encoding: 528 8240 262
GlifName: perthousand
Width: 1024
VWidth: 0
GlyphClass: 2
Flags: W
LayerCount: 2
Fore
SplineSet
631.5 436 m 257
 631.5 110 l 257
 709.5 110 l 257
 709.5 436 l 257
 631.5 436 l 257
631.5 440 m 257
 631.5 345 l 257
 978.5 345 l 257
 978.5 440 l 257
 631.5 440 l 257
631.5 159 m 257
 631.5 77 l 257
 975.5 77 l 257
 975.5 159 l 257
 631.5 159 l 257
886.5 440 m 257
 886.5 79 l 257
 978.5 79 l 257
 978.5 440 l 257
 886.5 440 l 257
-14.5 522 m 257
 28.5 377 l 257
 852.5 716 l 257
 808.5 860 l 257
 -14.5 522 l 257
125.5 1148 m 257
 125.5 822 l 257
 203.5 822 l 257
 203.5 1148 l 257
 125.5 1148 l 257
125.5 1152 m 257
 125.5 1057 l 257
 472.5 1057 l 257
 472.5 1152 l 257
 125.5 1152 l 257
125.5 871 m 257
 125.5 789 l 257
 469.5 789 l 257
 469.5 871 l 257
 125.5 871 l 257
380.5 1152 m 257
 380.5 791 l 257
 472.5 791 l 257
 472.5 1152 l 257
 380.5 1152 l 257
230.5 436 m 257
 230.5 110 l 257
 308.5 110 l 257
 308.5 436 l 257
 230.5 436 l 257
230.5 440 m 257
 230.5 345 l 257
 577.5 345 l 257
 577.5 440 l 257
 230.5 440 l 257
230.5 159 m 257
 230.5 77 l 257
 574.5 77 l 257
 574.5 159 l 257
 230.5 159 l 257
485.5 440 m 257
 485.5 79 l 257
 577.5 79 l 257
 577.5 440 l 257
 485.5 440 l 257
EndSplineSet
EndChar

StartChar: plus
Encoding: 12 43 263
GlifName: plus
Width: 1024
VWidth: 0
GlyphClass: 2
Flags: W
LayerCount: 2
Fore
SplineSet
384 1221 m 257
 384 165 l 257
 609 165 l 257
 609 1221 l 257
 384 1221 l 257
61 821 m 257
 61 613 l 257
 963 613 l 257
 963 821 l 257
 61 821 l 257
EndSplineSet
PickledDataWithLists: "(dp0
."
EndChar

StartChar: plusminus
Encoding: 112 177 264
GlifName: plusminus
Width: 1024
VWidth: 0
GlyphClass: 2
Flags: W
LayerCount: 2
Fore
SplineSet
99 108 m 257
 99 -100 l 257
 925 -100 l 257
 925 108 l 257
 99 108 l 257
384 1221 m 257
 384 165 l 257
 609 165 l 257
 609 1221 l 257
 384 1221 l 257
61 821 m 257
 61 613 l 257
 963 613 l 257
 963 821 l 257
 61 821 l 257
EndSplineSet
EndChar

StartChar: q
Encoding: 82 113 265
GlifName: q
Width: 1024
VWidth: 0
GlyphClass: 2
Flags: W
LayerCount: 2
Fore
SplineSet
662 1201 m 257
 662 -410 l 257
 861 -410 l 257
 861 1201 l 257
 662 1201 l 257
189 1022 m 257
 189 823 l 257
 838 823 l 257
 838 1022 l 257
 189 1022 l 257
190 203 m 257
 190 2 l 257
 806 2 l 257
 806 203 l 257
 190 203 l 257
188 855 m 257
 188 107 l 257
 388 107 l 257
 388 855 l 257
 188 855 l 257
701 -268 m 257
 701 -410 l 257
 937 -410 l 257
 937 -268 l 257
 701 -268 l 257
EndSplineSet
EndChar

StartChar: question
Encoding: 32 63 266
GlifName: question
Width: 1024
VWidth: 0
GlyphClass: 2
Flags: W
VStem: 192 641
LayerCount: 2
Fore
SplineSet
368.5 247 m 257
 368.5 0 l 257
 613.5 0 l 257
 613.5 247 l 257
 368.5 247 l 257
191.5 1519 m 257
 191.5 1333 l 257
 828.5 1333 l 257
 828.5 1519 l 257
 191.5 1519 l 257
638.5 1514 m 257
 638.5 966 l 257
 832.5 966 l 257
 832.5 1514 l 257
 638.5 1514 l 257
368.5 1015 m 257
 368.5 816 l 257
 832.5 816 l 257
 832.5 1015 l 257
 368.5 1015 l 257
368.5 1011 m 257
 368.5 392 l 257
 616.5 392 l 257
 616.5 1011 l 257
 368.5 1011 l 257
EndSplineSet
PickledDataWithLists: "(dp0
Vcom.fontlab.hintData
p1
(dp2
Vvhints
p3
(lp4
(dp5
Vposition
p6
I192
sVwidth
p7
I641
sass."
EndChar

StartChar: questiondown
Encoding: 126 191 267
GlifName: questiondown
Width: 1024
VWidth: 0
GlyphClass: 2
Flags: W
VStem: 191 641<5 186 0 553 5 5 0 504 0 703>
LayerCount: 2
Fore
SplineSet
655 1273 m 257
 655 1519 l 257
 405 1519 l 257
 405 1272 l 257
 655 1273 l 257
832 0 m 257
 832 186 l 257
 195 186 l 257
 195 0 l 257
 832 0 l 257
385 5 m 257
 385 553 l 257
 191 553 l 257
 191 5 l 257
 385 5 l 257
655 504 m 257
 655 703 l 257
 191 703 l 257
 191 504 l 257
 655 504 l 257
655 508 m 257
 655 1127 l 257
 407 1127 l 257
 407 508 l 257
 655 508 l 257
EndSplineSet
PickledDataWithLists: "(dp0
Vcom.fontlab.hintData
p1
(dp2
Vvhints
p3
(lp4
(dp5
Vposition
p6
I191
sVwidth
p7
I641
sass."
EndChar

StartChar: quotedbl
Encoding: 3 34 268
GlifName: quotedbl
Width: 1024
VWidth: 0
GlyphClass: 2
Flags: W
HStem: 1326 248<240 384 240 384 640 784>
LayerCount: 2
Fore
SplineSet
240 1326 m 257
 384 1326 l 257
 384 1574 l 257
 240 1574 l 257
 240 1326 l 257
640 1326 m 257
 784 1326 l 257
 784 1574 l 257
 640 1574 l 257
 640 1326 l 257
EndSplineSet
PickledDataWithLists: "(dp0
Vcom.fontlab.hintData
p1
(dp2
Vhhints
p3
(lp4
(dp5
Vposition
p6
I1326
sVwidth
p7
I248
sass."
EndChar

StartChar: quotedblbase
Encoding: 523 8222 269
GlifName: quotedblbase
Width: 1024
VWidth: 0
GlyphClass: 2
Flags: W
LayerCount: 2
Fore
SplineSet
198 237 m 257
 198 8 l 257
 446 8 l 257
 446 237 l 257
 198 237 l 257
297 135 m 257
 179 -146 l 257
 322 -206 l 257
 444 4 l 257
 297 135 l 257
597 237 m 257
 597 8 l 257
 845 8 l 257
 845 237 l 257
 597 237 l 257
696 135 m 257
 578 -146 l 257
 721 -206 l 257
 843 4 l 257
 696 135 l 257
EndSplineSet
PickledDataWithLists: "(dp0
."
EndChar

StartChar: quotedblleft
Encoding: 521 8220 270
GlifName: quotedblleft
Width: 1024
VWidth: 0
GlyphClass: 2
Flags: W
LayerCount: 2
Fore
SplineSet
458.5 1842 m 257
 458.5 2071 l 257
 210.5 2071 l 257
 210.5 1842 l 257
 458.5 1842 l 257
359.5 1944 m 257
 477.5 2225 l 257
 334.5 2285 l 257
 212.5 2075 l 257
 359.5 1944 l 257
794.5 1842 m 257
 794.5 2071 l 257
 546.5 2071 l 257
 546.5 1842 l 257
 794.5 1842 l 257
695.5 1944 m 257
 813.5 2225 l 257
 670.5 2285 l 257
 548.5 2075 l 257
 695.5 1944 l 257
EndSplineSet
EndChar

StartChar: quotedblright
Encoding: 522 8221 271
GlifName: quotedblright
Width: 1024
VWidth: 0
GlyphClass: 2
Flags: W
LayerCount: 2
Fore
SplineSet
556.5 2285 m 257
 556.5 2056 l 257
 804.5 2056 l 257
 804.5 2285 l 257
 556.5 2285 l 257
655.5 2183 m 257
 537.5 1902 l 257
 680.5 1842 l 257
 802.5 2052 l 257
 655.5 2183 l 257
238.5 2285 m 257
 238.5 2056 l 257
 486.5 2056 l 257
 486.5 2285 l 257
 238.5 2285 l 257
337.5 2183 m 257
 219.5 1902 l 257
 362.5 1842 l 257
 484.5 2052 l 257
 337.5 2183 l 257
EndSplineSet
EndChar

StartChar: quoteleft
Encoding: 518 8216 272
GlifName: quoteleft
Width: 1024
VWidth: 0
GlyphClass: 2
Flags: W
LayerCount: 2
Fore
SplineSet
626.5 1842 m 257
 626.5 2071 l 257
 378.5 2071 l 257
 378.5 1842 l 257
 626.5 1842 l 257
527.5 1944 m 257
 645.5 2225 l 257
 502.5 2285 l 257
 380.5 2075 l 257
 527.5 1944 l 257
EndSplineSet
EndChar

StartChar: quoteright
Encoding: 519 8217 273
GlifName: quoteright
Width: 1024
VWidth: 0
GlyphClass: 2
Flags: W
LayerCount: 2
Fore
SplineSet
397.5 2285 m 257
 397.5 2056 l 257
 645.5 2056 l 257
 645.5 2285 l 257
 397.5 2285 l 257
496.5 2183 m 257
 378.5 1902 l 257
 521.5 1842 l 257
 643.5 2052 l 257
 496.5 2183 l 257
EndSplineSet
EndChar

StartChar: quotesinglbase
Encoding: 520 8218 274
GlifName: quotesinglbase
Width: 1024
VWidth: 0
GlyphClass: 2
Flags: W
LayerCount: 2
Fore
SplineSet
397.5 237 m 257
 397.5 8 l 257
 645.5 8 l 257
 645.5 237 l 257
 397.5 237 l 257
496.5 135 m 257
 378.5 -146 l 257
 521.5 -206 l 257
 643.5 4 l 257
 496.5 135 l 257
EndSplineSet
EndChar

StartChar: quotesingle
Encoding: 8 39 275
GlifName: quotesingle
Width: 1024
VWidth: 0
GlyphClass: 2
Flags: W
HStem: 1264 232<447 577 447 577>
VStem: 447 130<1264 1496 1264 1496>
LayerCount: 2
Fore
SplineSet
447 1496 m 257
 447 1264 l 257
 577 1264 l 257
 577 1496 l 257
 447 1496 l 257
EndSplineSet
PickledDataWithLists: "(dp0
Vcom.fontlab.hintData
p1
(dp2
Vhhints
p3
(lp4
(dp5
Vposition
p6
I1264
sVwidth
p7
I232
sasVvhints
p8
(lp9
(dp10
g6
I447
sg7
I130
sass."
EndChar

StartChar: r
Encoding: 83 114 276
GlifName: r
Width: 1024
VWidth: 0
GlyphClass: 2
Flags: W
LayerCount: 2
Fore
SplineSet
165 1021 m 257
 165 821 l 257
 898 821 l 257
 898 1021 l 257
 165 1021 l 257
380 954 m 257
 380 -2 l 257
 580 -2 l 257
 580 954 l 257
 380 954 l 257
698 976 m 257
 698 650 l 257
 898 650 l 257
 898 976 l 257
 698 976 l 257
EndSplineSet
EndChar

StartChar: registered
Encoding: 109 174 279
GlifName: registered
Width: 1024
VWidth: 0
GlyphClass: 2
Flags: W
HStem: 801 8<457 457 457 527>
LayerCount: 2
Fore
SplineSet
389 1032 m 257
 389 501 l 257
 457 501 l 257
 457 1032 l 257
 389 1032 l 257
414 1032 m 257
 414 963 l 257
 643 963 l 257
 643 1032 l 257
 414 1032 l 257
583 1032 m 257
 583 802 l 257
 652 802 l 257
 652 1032 l 257
 583 1032 l 257
410 875 m 257
 410 801 l 257
 648 801 l 257
 648 875 l 257
 410 875 l 257
457 809 m 257
 596 500 l 257
 679 500 l 257
 527 809 l 257
 457 809 l 257
33 1540 m 257
 33 0 l 257
 234 0 l 257
 234 1540 l 257
 33 1540 l 257
772 1537 m 257
 772 0 l 257
 975 0 l 257
 975 1537 l 257
 772 1537 l 257
174 1538 m 257
 174 1337 l 257
 817 1337 l 257
 817 1538 l 257
 174 1538 l 257
150 204 m 257
 150 0 l 257
 823 0 l 257
 823 204 l 257
 150 204 l 257
EndSplineSet
PickledDataWithLists: "(dp0
Vcom.fontlab.hintData
p1
(dp2
Vhhints
p3
(lp4
(dp5
Vposition
p6
I801
sVwidth
p7
I8
sass."
EndChar

StartChar: ring
Encoding: 323 730 280
GlifName: ring
Width: 1024
VWidth: 0
GlyphClass: 2
Flags: W
LayerCount: 2
Fore
SplineSet
467 1756.5 m 257
 615 1756.5 l 257
 615 1626.5 l 257
 467 1626.5 l 257
 467 1756.5 l 257
362 1847 m 257
 362 1538 l 257
 722 1538 l 257
 722 1847 l 257
 362 1847 l 257
EndSplineSet
EndChar

StartChar: s
Encoding: 84 115 281
GlifName: s
Width: 1024
VWidth: 0
GlyphClass: 2
Flags: W
VStem: 186 609<826 1024 826 1024 736 1024 826 1024 826 1024>
LayerCount: 2
Fore
SplineSet
186 1024 m 257
 186 826 l 257
 795 826 l 257
 795 1024 l 257
 186 1024 l 257
186 1024 m 257
 186 736 l 257
 386 736 l 257
 386 1024 l 257
 186 1024 l 257
187 201 m 257
 187 0 l 257
 792 0 l 257
 792 201 l 257
 187 201 l 257
591 293 m 257
 591 12 l 257
 791 12 l 257
 791 293 l 257
 591 293 l 257
187 736 m 257
 591 293 l 257
 791 293 l 257
 387 736 l 257
 187 736 l 257
EndSplineSet
PickledDataWithLists: "(dp0
Vcom.fontlab.hintData
p1
(dp2
Vvhints
p3
(lp4
(dp5
Vposition
p6
I186
sVwidth
p7
I609
sass."
EndChar

StartChar: section
Encoding: 103 167 286
GlifName: section
Width: 1024
VWidth: 0
GlyphClass: 2
Flags: W
HStem: 88 7<726 918 918 918>
LayerCount: 2
Fore
SplineSet
146 1238 m 257
 146 1035 l 257
 744 1035 l 257
 744 1238 l 257
 146 1238 l 257
146 1241 m 257
 146 605 l 257
 348 605 l 257
 348 1241 l 257
 146 1241 l 257
183 -61 m 257
 183 -260 l 257
 891 -260 l 257
 891 -61 l 257
 183 -61 l 257
726 -259 m 257
 927 -259 l 257
 927 95 l 257
 726 95 l 257
 726 -259 l 257
146 605 m 257
 726 95 l 257
 927 95 l 257
 348 605 l 257
 146 605 l 257
146 1626 m 257
 146 1423 l 257
 744 1423 l 257
 744 1626 l 257
 146 1626 l 257
146 1629 m 257
 146 1237 l 257
 348 1237 l 257
 348 1629 l 257
 146 1629 l 257
174 286 m 257
 174 87 l 257
 882 87 l 257
 882 286 l 257
 174 286 l 257
717 88 m 257
 918 88 l 257
 918 442 l 257
 717 442 l 257
 717 88 l 257
146 1237 m 257
 717 442 l 257
 918 442 l 257
 348 1237 l 257
 146 1237 l 257
EndSplineSet
PickledDataWithLists: "(dp0
Vcom.fontlab.hintData
p1
(dp2
Vhhints
p3
(lp4
(dp5
Vposition
p6
I88
sVwidth
p7
I7
sass."
EndChar

StartChar: semicolon
Encoding: 28 59 287
GlifName: semicolon
Width: 1024
VWidth: 0
GlyphClass: 2
Flags: W
LayerCount: 2
Fore
SplineSet
399.5 430 m 257
 399.5 201 l 257
 647.5 201 l 257
 647.5 430 l 257
 399.5 430 l 257
498.5 328 m 257
 380.5 47 l 257
 523.5 -13 l 257
 645.5 197 l 257
 498.5 328 l 257
376.5 871 m 257
 376.5 624 l 257
 641.5 624 l 257
 641.5 871 l 257
 376.5 871 l 257
EndSplineSet
PickledDataWithLists: "(dp0
."
EndChar

StartChar: seven
Encoding: 24 55 288
GlifName: seven
Width: 1024
VWidth: 0
GlyphClass: 2
Flags: W
HStem: 867 56 1418 223
VStem: 751 219
LayerCount: 2
Fore
SplineSet
54 1355 m 257
 764 1355 l 257
 772 0 l 257
 970 0 l 257
 967 1557 l 257
 54 1554 l 257
 54 1355 l 257
EndSplineSet
PickledDataWithLists: "(dp0
Vcom.fontlab.hintData
p1
(dp2
Vhhints
p3
(lp4
(dp5
Vposition
p6
I867
sVwidth
p7
I56
sa(dp8
g6
I1418
sg7
I223
sasVvhints
p9
(lp10
(dp11
g6
I751
sg7
I219
sass."
EndChar

StartChar: six
Encoding: 23 54 289
GlifName: six
Width: 1024
VWidth: 0
GlyphClass: 2
Flags: W
HStem: 8 193 51 150 759 65 888 98 1418 223 1418 182
VStem: 52 198 772 204
LayerCount: 2
Fore
SplineSet
41 1548 m 257
 51.5 201 l 257
 52 0 l 257
 977 4 l 257
 980 959 l 257
 244 960 l 257
 244 1348 l 257
 985 1348 l 257
 985 1548 l 257
 41 1548 l 257
772.5 759 m 257
 773 203 l 257
 250 203 l 257
 249.5 759 l 257
 772.5 759 l 257
EndSplineSet
PickledDataWithLists: "(dp0
Vcom.fontlab.hintData
p1
(dp2
Vhhints
p3
(lp4
(dp5
Vposition
p6
I8
sVwidth
p7
I193
sa(dp8
g6
I51
sg7
I150
sa(dp9
g6
I759
sg7
I65
sa(dp10
g6
I888
sg7
I98
sa(dp11
g6
I1418
sg7
I223
sa(dp12
g6
I1418
sg7
I182
sasVvhints
p13
(lp14
(dp15
g6
I52
sg7
I198
sa(dp16
g6
I772
sg7
I204
sass."
EndChar

StartChar: slash
Encoding: 16 47 290
GlifName: slash
Width: 1024
VWidth: 0
GlyphClass: 2
Flags: W
LayerCount: 2
Fore
SplineSet
703 1483 m 257
 133 6 l 257
 321 -67 l 257
 891 1410 l 257
 703 1483 l 257
EndSplineSet
PickledDataWithLists: "(dp0
."
EndChar

StartChar: sterling
Encoding: 99 163 292
GlifName: sterling
Width: 1024
VWidth: 0
GlyphClass: 2
Flags: W
LayerCount: 2
Fore
SplineSet
381 1543 m 257
 381 1344 l 257
 672 1344 l 257
 672 1543 l 257
 381 1543 l 257
54 770 m 257
 54 571 l 257
 780 571 l 257
 780 770 l 257
 54 770 l 257
337 1542 m 257
 337 3 l 257
 535 3 l 257
 535 1542 l 257
 337 1542 l 257
162 202 m 257
 162 3 l 257
 888 3 l 257
 888 202 l 257
 162 202 l 257
EndSplineSet
EndChar

StartChar: t
Encoding: 85 116 293
GlifName: t
Width: 1024
VWidth: 0
GlyphClass: 2
Flags: W
VStem: 174 674<824 1025 824 1025>
LayerCount: 2
Fore
SplineSet
410 1545 m 257
 410 1 l 257
 610 1 l 257
 610 1545 l 257
 410 1545 l 257
418 199 m 257
 418 0 l 257
 809 0 l 257
 809 199 l 257
 418 199 l 257
174 1025 m 257
 174 824 l 257
 848 824 l 257
 848 1025 l 257
 174 1025 l 257
EndSplineSet
PickledDataWithLists: "(dp0
Vcom.fontlab.hintData
p1
(dp2
Vvhints
p3
(lp4
(dp5
Vposition
p6
I174
sVwidth
p7
I674
sass."
EndChar

StartChar: tcaron
Encoding: 286 357 294
GlifName: tcaron
Width: 1024
VWidth: 0
GlyphClass: 2
Flags: W
LayerCount: 2
Fore
SplineSet
342 1529 m 257
 342 0 l 257
 543 0 l 257
 543 1529 l 257
 342 1529 l 257
495 199 m 257
 495 0 l 257
 886 0 l 257
 886 199 l 257
 495 199 l 257
70 1025 m 257
 70 824 l 257
 849 824 l 257
 849 1025 l 257
 70 1025 l 257
672 1496 m 257
 672 1291 l 257
 802 1291 l 257
 802 1496 l 257
 672 1496 l 257
EndSplineSet
PickledDataWithLists: "(dp0
."
EndChar

StartChar: thorn
Encoding: 189 254 295
GlifName: thorn
Width: 1024
VWidth: 0
GlyphClass: 2
Flags: W
LayerCount: 2
Fore
SplineSet
173 1034 m 257
 173 -406 l 257
 373 -406 l 257
 373 1034 l 257
 173 1034 l 257
360 667 m 257
 360 468 l 257
 916 468 l 257
 916 667 l 257
 360 667 l 257
368 6 m 257
 368 -195 l 257
 914 -195 l 257
 914 6 l 257
 368 6 l 257
716 600 m 257
 716 -101 l 257
 914 -104 l 257
 914 597 l 257
 716 600 l 257
EndSplineSet
EndChar

StartChar: three
Encoding: 20 51 296
GlifName: three
Width: 1024
VWidth: 0
GlyphClass: 2
Flags: W
HStem: -8 250 200 42 736 20 964 37 1403 237
VStem: 756 207 756 89
LayerCount: 2
Fore
SplineSet
100.5 736 m 257
 759 736 l 257
 759 192 l 257
 59 192 l 257
 68.5 -8 l 257
 956.5 -8 l 257
 963 1553 l 257
 89 1553 l 257
 89 1353 l 257
 757 1353 l 257
 757 936 l 257
 101 936 l 257
 100.5 736 l 257
EndSplineSet
PickledDataWithLists: "(dp0
Vcom.fontlab.hintData
p1
(dp2
Vhhints
p3
(lp4
(dp5
Vposition
p6
I-8
sVwidth
p7
I250
sa(dp8
g6
I200
sg7
I42
sa(dp9
g6
I736
sg7
I20
sa(dp10
g6
I964
sg7
I37
sa(dp11
g6
I1403
sg7
I237
sasVvhints
p12
(lp13
(dp14
g6
I756
sg7
I207
sa(dp15
g6
I756
sg7
I89
sass."
EndChar

StartChar: threequarters
Encoding: 125 190 297
GlifName: threequarters
Width: 1024
VWidth: 0
GlyphClass: 2
Flags: W
HStem: -4 8 298 23 347 42 369 19 915 100 998 17 1212 8 1304 15 1479 95
VStem: 343 36 343 83 630 81 884 84
LayerCount: 2
Fore
SplineSet
703 1483 m 257
 133 6 l 257
 321 -67 l 257
 891 1410 l 257
 703 1483 l 257
77 1272 m 257
 355 1272 l 257
 355 1084 l 257
 59 1084 l 257
 63 1015 l 257
 438 1015 l 257
 441 1553 l 257
 72 1553 l 257
 72 1484 l 257
 354 1484 l 257
 354 1340 l 257
 77 1340 l 257
 77 1272 l 257
643 340 m 257
 908 340 l 257
 908 7 l 257
 992 7 l 257
 989 687 l 257
 907 687 l 257
 907 428 l 257
 725 428 l 257
 725 689 l 257
 643 689 l 257
 643 340 l 257
EndSplineSet
PickledDataWithLists: "(dp0
Vcom.fontlab.hintData
p1
(dp2
Vhhints
p3
(lp4
(dp5
Vposition
p6
I-4
sVwidth
p7
I8
sa(dp8
g6
I298
sg7
I23
sa(dp9
g6
I347
sg7
I42
sa(dp10
g6
I369
sg7
I19
sa(dp11
g6
I915
sg7
I100
sa(dp12
g6
I998
sg7
I17
sa(dp13
g6
I1212
sg7
I8
sa(dp14
g6
I1304
sg7
I15
sa(dp15
g6
I1479
sg7
I95
sasVvhints
p16
(lp17
(dp18
g6
I343
sg7
I36
sa(dp19
g6
I343
sg7
I83
sa(dp20
g6
I630
sg7
I81
sa(dp21
g6
I884
sg7
I84
sass."
EndChar

StartChar: tilde
Encoding: 325 732 298
GlifName: tilde
Width: 1024
VWidth: 0
GlyphClass: 2
Flags: W
LayerCount: 2
Fore
SplineSet
359.3 1606.7 m 257
 359.3 1527.5 l 257
 639.3 1478.7 l 257
 639.3 1557.9 l 257
 359.3 1606.7 l 257
168.9 1560.3 m 257
 180.9 1481.9 l 257
 359.3 1527.5 l 257
 359.3 1606.7 l 257
 168.9 1560.3 l 257
639.3 1557.9 m 257
 639.3 1478.7 l 257
 784.1 1591.5 l 257
 764.9 1668.3 l 257
 639.3 1557.9 l 257
EndSplineSet
EndChar

StartChar: tildecomb
Encoding: 330 771 299
GlifName: tildecomb
Width: 1024
VWidth: 0
GlyphClass: 4
Flags: W
LayerCount: 2
Fore
SplineSet
330 2015 m 257
 330 1916 l 257
 680 1855 l 257
 680 1954 l 257
 330 2015 l 257
92 1957 m 257
 107 1859 l 257
 330 1916 l 257
 330 2015 l 257
 92 1957 l 257
680 1954 m 257
 680 1855 l 257
 861 1996 l 257
 837 2092 l 257
 680 1954 l 257
EndSplineSet
EndChar

StartChar: two
Encoding: 19 50 301
GlifName: two
Width: 1024
VWidth: 0
GlyphClass: 2
Flags: W
HStem: 0 259 130 129 751 273 1433 207
VStem: 14 304 312 6 780 41 780 15
LayerCount: 2
Fore
SplineSet
109 1344 m 257
 718 1344 l 257
 718 908 l 257
 116 908 l 257
 116 0 l 257
 904 0 l 257
 904 200 l 257
 319 202 l 257
 319 706 l 257
 918 707 l 257
 918 1544 l 257
 109 1544 l 257
 109 1344 l 257
EndSplineSet
PickledDataWithLists: "(dp0
Vcom.fontlab.hintData
p1
(dp2
Vhhints
p3
(lp4
(dp5
Vposition
p6
I0
sVwidth
p7
I259
sa(dp8
g6
I130
sg7
I129
sa(dp9
g6
I751
sg7
I273
sa(dp10
g6
I1433
sg7
I207
sasVvhints
p11
(lp12
(dp13
g6
I14
sg7
I304
sa(dp14
g6
I312
sg7
I6
sa(dp15
g6
I780
sg7
I41
sa(dp16
g6
I780
sg7
I15
sass."
EndChar

StartChar: u
Encoding: 86 117 302
GlifName: u
Width: 1024
VWidth: 0
GlyphClass: 2
Flags: W
LayerCount: 2
Fore
SplineSet
139 1024 m 257
 139 0 l 257
 340 0 l 257
 340 1024 l 257
 139 1024 l 257
571 1026 m 257
 571 4 l 257
 771 4 l 257
 771 1026 l 257
 571 1026 l 257
186 200 m 257
 186 0 l 257
 888 0 l 257
 888 200 l 257
 186 200 l 257
EndSplineSet
EndChar

StartChar: underscore
Encoding: 64 95 310
GlifName: underscore
Width: 1024
VWidth: 0
GlyphClass: 2
Flags: W
HStem: -71 66<-5 1019>
LayerCount: 2
Fore
SplineSet
-5 -5 m 257
 -5 -71 l 257
 1019 -71 l 257
 1019 -5 l 257
 -5 -5 l 257
EndSplineSet
PickledDataWithLists: "(dp0
Vcom.fontlab.hintData
p1
(dp2
Vhhints
p3
(lp4
(dp5
Vposition
p6
I-71
sVwidth
p7
I66
sass."
EndChar

StartChar: uni00B2
Encoding: 113 178 312
GlifName: uni00B_2
Width: 1024
VWidth: 0
GlyphClass: 2
Flags: W
HStem: 892 104 944 52 1192 109 1465 83
VStem: 366 122 485 2 672 6 672 16
LayerCount: 2
Fore
SplineSet
225 1455 m 257
 573 1455 l 257
 573 1259 l 257
 229 1259 l 257
 229 851 l 257
 678 851 l 257
 678 940 l 257
 345 942 l 257
 345 1167 l 257
 687 1168 l 257
 687 1544 l 257
 225 1544 l 257
 225 1455 l 257
EndSplineSet
PickledDataWithLists: "(dp0
Vcom.fontlab.hintData
p1
(dp2
Vhhints
p3
(lp4
(dp5
Vposition
p6
I892
sVwidth
p7
I104
sa(dp8
g6
I944
sg7
I52
sa(dp9
g6
I1192
sg7
I109
sa(dp10
g6
I1465
sg7
I83
sasVvhints
p11
(lp12
(dp13
g6
I366
sg7
I122
sa(dp14
g6
I485
sg7
I2
sa(dp15
g6
I672
sg7
I6
sa(dp16
g6
I672
sg7
I16
sass."
EndChar

StartChar: uni00B3
Encoding: 114 179 313
GlifName: uni00B_3
Width: 1024
VWidth: 0
GlyphClass: 2
Flags: W
HStem: 887 100 970 17 1184 8 1276 15 1451 95
VStem: 660 36 660 83
LayerCount: 2
Fore
SplineSet
193 1215 m 257
 645 1215 l 257
 645 990 l 257
 164 990 l 257
 171 908 l 257
 782 908 l 257
 785 1553 l 257
 185 1553 l 257
 185 1471 l 257
 644 1471 l 257
 644 1298 l 257
 193 1298 l 257
 193 1215 l 257
EndSplineSet
PickledDataWithLists: "(dp0
Vcom.fontlab.hintData
p1
(dp2
Vhhints
p3
(lp4
(dp5
Vposition
p6
I887
sVwidth
p7
I100
sa(dp8
g6
I970
sg7
I17
sa(dp9
g6
I1184
sg7
I8
sa(dp10
g6
I1276
sg7
I15
sa(dp11
g6
I1451
sg7
I95
sasVvhints
p12
(lp13
(dp14
g6
I660
sg7
I36
sa(dp15
g6
I660
sg7
I83
sass."
EndChar

StartChar: uni00B9
Encoding: 120 185 314
GlifName: uni00B_9
Width: 1024
VWidth: 0
GlyphClass: 2
Flags: W
VStem: 511 110
LayerCount: 2
Fore
SplineSet
412 0 m 257
 611 0 l 257
 611 1551 l 257
 412 1551 l 257
 412 0 l 257
416 1549 m 257
 218 1252 l 257
 368 1152 l 257
 566 1449 l 257
 416 1549 l 257
EndSplineSet
PickledDataWithLists: "(dp0
Vcom.fontlab.hintData
p1
(dp2
Vvhints
p3
(lp4
(dp5
Vposition
p6
I511
sVwidth
p7
I110
sass."
EndChar

StartChar: uni0123
Encoding: 226 291 316
GlifName: uni0123
Width: 1024
VWidth: 0
GlyphClass: 2
Flags: W
LayerCount: 2
Fore
SplineSet
297 1024 m 257
 297 0 l 257
 489 0 l 257
 489 1024 l 257
 297 1024 l 257
337 1024 m 257
 337 823 l 257
 853 823 l 257
 853 1024 l 257
 337 1024 l 257
681 1024 m 257
 681 -411 l 257
 875 -411 l 257
 875 1024 l 257
 681 1024 l 257
360 198 m 257
 360 -1 l 257
 817 -1 l 257
 817 198 l 257
 360 198 l 257
291 -214 m 257
 291 -413 l 257
 826 -413 l 257
 826 -214 l 257
 291 -214 l 257
447 1496 m 257
 447 1198 l 257
 577 1198 l 257
 577 1496 l 257
 447 1496 l 257
EndSplineSet
EndChar

StartChar: uni0192
Encoding: 310 402 327
GlifName: uni0192
Width: 1024
VWidth: 0
GlyphClass: 2
Flags: W
LayerCount: 2
Fore
SplineSet
413 1025 m 257
 413 -406 l 257
 613 -406 l 257
 613 1025 l 257
 413 1025 l 257
475 1025 m 257
 475 831 l 257
 957 831 l 257
 957 1025 l 257
 475 1025 l 257
229 559 m 257
 229 356 l 257
 860 356 l 257
 860 559 l 257
 229 559 l 257
167 -201 m 257
 167 -404 l 257
 615 -404 l 257
 615 -201 l 257
 167 -201 l 257
EndSplineSet
EndChar

StartChar: uni0237
Encoding: 315 567 332
GlifName: uni0237
Width: 1024
VWidth: 0
GlyphClass: 2
Flags: W
VStem: 197 629<-409 -209 -409 -409>
LayerCount: 2
Fore
SplineSet
627 1024 m 257
 627 -411 l 257
 826 -411 l 257
 826 1024 l 257
 627 1024 l 257
197 -209 m 257
 197 -409 l 257
 727 -409 l 257
 727 -209 l 257
 197 -209 l 257
198 -6 m 257
 198 -351 l 257
 398 -351 l 257
 398 -6 l 257
 198 -6 l 257
EndSplineSet
PickledDataWithLists: "(dp0
Vcom.fontlab.hintData
p1
(dp2
Vvhints
p3
(lp4
(dp5
Vposition
p6
I197
sVwidth
p7
I629
sass."
EndChar

StartChar: uni02C9
Encoding: 318 713 333
GlifName: uni02C_9
Width: 1024
VWidth: 0
GlyphClass: 2
Flags: W
HStem: 1552 78<226 786>
VStem: 226 560<1552 1630 1552 1630>
LayerCount: 2
Fore
SplineSet
226 1630 m 257
 226 1552 l 257
 786 1552 l 257
 786 1630 l 257
 226 1630 l 257
EndSplineSet
PickledDataWithLists: "(dp0
Vcom.fontlab.hintData
p1
(dp2
Vhhints
p3
(lp4
(dp5
Vposition
p6
I1552
sVwidth
p7
I78
sasVvhints
p8
(lp9
(dp10
g6
I226
sg7
I560
sass."
EndChar

StartChar: uni02CA
Encoding: 319 714 334
GlifName: uni02C_A_
Width: 1024
VWidth: 0
GlyphClass: 2
Flags: W
LayerCount: 2
Fore
SplineSet
551 2180 m 257
 421 1926 l 257
 509 1880 l 257
 640 2135 l 257
 551 2180 l 257
EndSplineSet
EndChar

StartChar: uni02CB
Encoding: 320 715 335
GlifName: uni02C_B_
Width: 1024
VWidth: 0
GlyphClass: 2
Flags: W
LayerCount: 2
Fore
SplineSet
421 2107 m 257
 541 1871 l 257
 632 1917 l 257
 513 2154 l 257
 421 2107 l 257
EndSplineSet
EndChar

StartChar: uni0302
Encoding: 329 770 336
GlifName: uni0302
Width: 1024
VWidth: 0
GlyphClass: 4
Flags: W
LayerCount: 2
Fore
SplineSet
502 2158 m 257
 442 2158 l 257
 336 1911 l 257
 396 1886 l 257
 502 2158 l 257
444 2110 m 257
 547 1886 l 257
 607 1908 l 257
 502 2158 l 257
 444 2110 l 257
EndSplineSet
EndChar

StartChar: uni0304
Encoding: 331 772 337
GlifName: uni0304
Width: 1024
VWidth: 0
GlyphClass: 4
Flags: W
HStem: 1552 78<226 786>
VStem: 226 560<1552 1630 1552 1630>
LayerCount: 2
Fore
SplineSet
226 1630 m 257
 226 1552 l 257
 786 1552 l 257
 786 1630 l 257
 226 1630 l 257
EndSplineSet
PickledDataWithLists: "(dp0
Vcom.fontlab.hintData
p1
(dp2
Vhhints
p3
(lp4
(dp5
Vposition
p6
I1552
sVwidth
p7
I78
sasVvhints
p8
(lp9
(dp10
g6
I226
sg7
I560
sass."
EndChar

StartChar: uni0306
Encoding: 332 774 338
GlifName: uni0306
Width: 1024
VWidth: 0
GlyphClass: 4
Flags: W
HStem: 1480 72<332 656> 1625 20<821 821>
VStem: 161 660<1552 1630 1552 1645>
LayerCount: 2
Fore
SplineSet
656 1552 m 257
 656 1480 l 257
 821 1552 l 257
 821 1645 l 257
 656 1552 l 257
332 1552 m 257
 331 1480 l 257
 656 1480 l 257
 656 1552 l 257
 332 1552 l 257
161 1630 m 257
 161 1552 l 257
 332 1480 l 257
 332 1550 l 257
 161 1630 l 257
EndSplineSet
PickledDataWithLists: "(dp0
Vcom.fontlab.hintData
p1
(dp2
Vhhints
p3
(lp4
(dp5
Vposition
p6
I1480
sVwidth
p7
I72
sa(dp8
g6
I1625
sg7
I20
sasVvhints
p9
(lp10
(dp11
g6
I161
sg7
I660
sass."
EndChar

StartChar: uni0307
Encoding: 333 775 339
GlifName: uni0307
Width: 1024
VWidth: 0
GlyphClass: 4
Flags: W
HStem: 1637 101
VStem: 290 112
LayerCount: 2
Fore
SplineSet
400 1788.5 m 261
 400 1586.5 l 261
 624 1586.5 l 261
 624 1788.5 l 261
 400 1788.5 l 261
EndSplineSet
PickledDataWithLists: "(dp0
Vcom.fontlab.hintData
p1
(dp2
Vhhints
p3
(lp4
(dp5
Vposition
p6
I1637
sVwidth
p7
I101
sasVvhints
p8
(lp9
(dp10
g6
I290
sg7
I112
sass."
EndChar

StartChar: uni0308
Encoding: 334 776 340
GlifName: uni0308
Width: 1024
VWidth: 0
GlyphClass: 4
Flags: W
HStem: 1637 101<335 447 577 689>
VStem: 290 112 532 112
LayerCount: 2
Fore
SplineSet
335 1738 m 257
 335 1637 l 257
 447 1637 l 257
 447 1738 l 257
 335 1738 l 257
577 1738 m 257
 577 1637 l 257
 689 1637 l 257
 689 1738 l 257
 577 1738 l 257
EndSplineSet
PickledDataWithLists: "(dp0
Vcom.fontlab.hintData
p1
(dp2
Vhhints
p3
(lp4
(dp5
Vposition
p6
I1637
sVwidth
p7
I101
sasVvhints
p8
(lp9
(dp10
g6
I290
sg7
I112
sa(dp11
g6
I532
sg7
I112
sass."
EndChar

StartChar: uni030A
Encoding: 335 778 341
GlifName: uni030A_
Width: 1024
VWidth: 0
GlyphClass: 4
Flags: W
HStem: 1538 309<362 722>
VStem: 362 360<1538 1847 1538 1847>
LayerCount: 2
Fore
SplineSet
467 1756.5 m 257
 615 1756.5 l 257
 615 1626.5 l 257
 467 1626.5 l 257
 467 1756.5 l 257
362 1847 m 257
 362 1538 l 257
 722 1538 l 257
 722 1847 l 257
 362 1847 l 257
EndSplineSet
PickledDataWithLists: "(dp0
Vcom.fontlab.hintData
p1
(dp2
Vhhints
p3
(lp4
(dp5
Vposition
p6
I1538
sVwidth
p7
I309
sasVvhints
p8
(lp9
(dp10
g6
I362
sg7
I360
sass."
EndChar

StartChar: uni030C
Encoding: 337 780 343
GlifName: uni030C_
Width: 1024
VWidth: 0
GlyphClass: 4
Flags: W
HStem: 1748 272
VStem: 396 271
LayerCount: 2
Fore
SplineSet
552 1349 m 257
 446 1621 l 257
 386 1596 l 257
 492 1349 l 257
 552 1349 l 257
494 1397 m 257
 552 1349 l 257
 657 1599 l 257
 597 1621 l 257
 494 1397 l 257
EndSplineSet
PickledDataWithLists: "(dp0
Vcom.fontlab.hintData
p1
(dp2
Vhhints
p3
(lp4
(dp5
Vposition
p6
I1748
sVwidth
p7
I272
sasVvhints
p8
(lp9
(dp10
g6
I396
sg7
I271
sass."
EndChar

StartChar: uni0326
Encoding: 339 806 344
GlifName: uni0326
Width: 1024
VWidth: 0
GlyphClass: 4
Flags: W
LayerCount: 2
Fore
SplineSet
397 -1 m 257
 397 -230 l 257
 645 -230 l 257
 645 -1 l 257
 397 -1 l 257
496 -103 m 257
 378 -384 l 257
 521 -444 l 257
 643 -234 l 257
 496 -103 l 257
EndSplineSet
EndChar

StartChar: uni0327
Encoding: 340 807 345
GlifName: uni0327
Width: 1024
VWidth: 0
GlyphClass: 4
Flags: W
HStem: -408 120<578 1024> -372 84<872 1024> -144 144<578 578 578 733 733 733>
VStem: 578 155<-408 180 -156 180 -144 0> 872 152<-372 -288 -288 0 -372 -372>
LayerCount: 2
Fore
SplineSet
577 180 m 257
 577 -144 l 257
 733 -144 l 257
 733 180 l 257
 577 180 l 257
578 -288 m 257
 578 -408 l 257
 1024 -408 l 257
 1024 -288 l 257
 578 -288 l 257
872 0 m 257
 872 -372 l 257
 1024 -372 l 257
 1024 0 l 257
 872 0 l 257
578 0 m 257
 578 -156 l 257
 1024 -156 l 257
 1024 0 l 257
 578 0 l 257
EndSplineSet
PickledDataWithLists: "(dp0
Vcom.fontlab.hintData
p1
(dp2
Vhhints
p3
(lp4
(dp5
Vposition
p6
I-408
sVwidth
p7
I120
sa(dp8
g6
I-372
sg7
I84
sa(dp9
g6
I-144
sg7
I144
sasVvhints
p10
(lp11
(dp12
g6
I578
sg7
I155
sa(dp13
g6
I872
sg7
I152
sass."
EndChar

StartChar: uni0328
Encoding: 341 808 346
GlifName: uni0328
Width: 1024
VWidth: 0
GlyphClass: 4
Flags: W
HStem: -410 122<482 1024 482 600 600 600> -121 121<482 1024>
VStem: 482 118<-410 -288 -410 0 -410 0 -410 0 -121 -121 -121 0>
LayerCount: 2
Fore
SplineSet
482 -288 m 257
 482 -410 l 257
 1024 -410 l 257
 1024 -288 l 257
 482 -288 l 257
482 0 m 257
 482 -410 l 257
 600 -410 l 257
 600 0 l 257
 482 0 l 257
482 0 m 257
 482 -121 l 257
 1024 -121 l 257
 1024 0 l 257
 482 0 l 257
EndSplineSet
PickledDataWithLists: "(dp0
Vcom.fontlab.hintData
p1
(dp2
Vhhints
p3
(lp4
(dp5
Vposition
p6
I-410
sVwidth
p7
I122
sa(dp8
g6
I-121
sg7
I121
sasVvhints
p9
(lp10
(dp11
g6
I482
sg7
I118
sass."
EndChar

StartChar: uni0900
Encoding: 343 2304 347
GlifName: uni0900
Width: 1024
VWidth: 0
GlyphClass: 4
Flags: W
LayerCount: 2
Fore
SplineSet
-8 1546 m 257
 -8 1347 l 257
 1021 1347 l 257
 1021 1546 l 257
 -8 1546 l 257
110 2124 m 257
 110 1639 l 257
 309 1639 l 257
 309 2124 l 257
 110 2124 l 257
156 2126 m 257
 156 1925 l 257
 790 1925 l 257
 790 2126 l 257
 156 2126 l 257
422 1865 m 257
 422 1665 l 257
 622 1665 l 257
 622 1865 l 257
 422 1865 l 257
714 2127 m 257
 714 1636 l 257
 914 1636 l 257
 914 2127 l 257
 714 2127 l 257
EndSplineSet
PickledDataWithLists: "(dp0
."
EndChar

StartChar: uni0901
Encoding: 344 2305 348
GlifName: uni0901
Width: 1024
VWidth: 0
GlyphClass: 4
Flags: W
LayerCount: 2
Fore
SplineSet
-4 1546 m 257
 -4 1347 l 257
 1025 1347 l 257
 1025 1546 l 257
 -4 1546 l 257
153 2124 m 257
 153 1639 l 257
 352 1639 l 257
 352 2124 l 257
 153 2124 l 257
199 1842 m 257
 199 1641 l 257
 833 1641 l 257
 833 1842 l 257
 199 1842 l 257
455 2095 m 257
 455 1895 l 257
 655 1895 l 257
 655 2095 l 257
 455 2095 l 257
757 2132 m 257
 757 1641 l 257
 957 1641 l 257
 957 2132 l 257
 757 2132 l 257
EndSplineSet
PickledDataWithLists: "(dp0
."
EndChar

StartChar: uni0902
Encoding: 345 2306 349
GlifName: uni0902
Width: 1024
VWidth: 0
GlyphClass: 4
Flags: W
LayerCount: 2
Fore
SplineSet
412 1949 m 257
 412 1749 l 257
 612 1749 l 257
 612 1949 l 257
 412 1949 l 257
-4 1546 m 257
 -4 1347 l 257
 1025 1347 l 257
 1025 1546 l 257
 -4 1546 l 257
EndSplineSet
EndChar

StartChar: uni0903
Encoding: 346 2307 350
GlifName: uni0903
Width: 1024
VWidth: 0
GlyphClass: 2
Flags: W
VStem: 412 200<449 649 449 649 1117 1317>
LayerCount: 2
Fore
SplineSet
412 649 m 257
 412 449 l 257
 612 449 l 257
 612 649 l 257
 412 649 l 257
412 1317 m 257
 412 1117 l 257
 612 1117 l 257
 612 1317 l 257
 412 1317 l 257
EndSplineSet
PickledDataWithLists: "(dp0
Vcom.fontlab.hintData
p1
(dp2
Vvhints
p3
(lp4
(dp5
Vposition
p6
I412
sVwidth
p7
I200
sass."
EndChar

StartChar: uni0904
Encoding: 347 2308 351
GlifName: uni0904
Width: 1024
VWidth: 0
GlyphClass: 2
Flags: W
LayerCount: 2
Fore
SplineSet
266 2155 m 257
 266 1836 l 257
 464 1836 l 257
 464 2155 l 257
 266 2155 l 257
265 1967 m 257
 265 1768 l 257
 948 1768 l 257
 948 1967 l 257
 265 1967 l 257
749 1956 m 257
 749 1516 l 257
 950 1516 l 257
 950 1956 l 257
 749 1956 l 257
716 1543 m 257
 716 1343 l 257
 1013 1343 l 257
 1013 1543 l 257
 716 1543 l 257
777 1419 m 257
 777 1 l 257
 976 1 l 257
 976 1419 l 257
 777 1419 l 257
50 1547 m 257
 50 1348 l 257
 573 1348 l 257
 573 1547 l 257
 50 1547 l 257
399 1550 m 257
 399 140 l 257
 599 140 l 257
 599 1550 l 257
 399 1550 l 257
134 894 m 257
 134 693 l 257
 831 693 l 257
 831 894 l 257
 134 894 l 257
25 201 m 257
 25 1 l 257
 599 1 l 257
 599 201 l 257
 25 201 l 257
EndSplineSet
EndChar

StartChar: uni0905
Encoding: 348 2309 352
GlifName: a-deva
Width: 1024
VWidth: 0
GlyphClass: 2
Flags: W
LayerCount: 2
Fore
SplineSet
716 1548 m 257
 716 1348 l 257
 1027 1348 l 257
 1027 1548 l 257
 716 1548 l 257
777 1419 m 257
 777 1 l 257
 976 1 l 257
 976 1419 l 257
 777 1419 l 257
50 1547 m 257
 50 1348 l 257
 573 1348 l 257
 573 1547 l 257
 50 1547 l 257
399 1548 m 257
 399 140 l 257
 599 140 l 257
 599 1548 l 257
 399 1548 l 257
134 894 m 257
 134 693 l 257
 831 693 l 257
 831 894 l 257
 134 894 l 257
25 201 m 257
 25 1 l 257
 599 1 l 257
 599 201 l 257
 25 201 l 257
EndSplineSet
EndChar

StartChar: uni0906
Encoding: 349 2310 353
GlifName: aa-deva
Width: 1024
VWidth: 0
GlyphClass: 2
Flags: W
LayerCount: 2
Fore
SplineSet
528 1548 m 257
 528 1343 l 257
 1016 1343 l 257
 1016 1548 l 257
 528 1548 l 257
544 1419 m 257
 544 1 l 257
 743 1 l 257
 743 1419 l 257
 544 1419 l 257
25 1548 m 257
 25 1348 l 257
 385 1348 l 257
 385 1548 l 257
 25 1548 l 257
211 1548 m 257
 211 140 l 257
 411 140 l 257
 411 1548 l 257
 211 1548 l 257
109 894 m 257
 109 693 l 257
 643 693 l 257
 643 894 l 257
 109 894 l 257
0 201 m 257
 0 1 l 257
 411 1 l 257
 411 201 l 257
 0 201 l 257
811 1420 m 257
 811 2 l 257
 1010 2 l 257
 1010 1420 l 257
 811 1420 l 257
EndSplineSet
EndChar

StartChar: uni0907
Encoding: 350 2311 354
GlifName: i-deva
Width: 1024
VWidth: 0
GlyphClass: 2
Flags: W
HStem: 285 13<639 838 838 838>
LayerCount: 2
Fore
SplineSet
-12 1556 m 257
 -12 1355 l 257
 1025 1355 l 257
 1025 1556 l 257
 -12 1556 l 257
546 1553 m 257
 546 1110 l 257
 746 1110 l 257
 746 1553 l 257
 546 1553 l 257
165 1205 m 257
 165 1004 l 257
 746 1004 l 257
 746 1205 l 257
 165 1205 l 257
165 1181 m 257
 165 738 l 257
 335 738 l 257
 335 1181 l 257
 165 1181 l 257
165 881 m 257
 165 681 l 257
 760 681 l 257
 760 881 l 257
 165 881 l 257
639 881 m 257
 639 285 l 257
 838 285 l 257
 838 881 l 257
 639 881 l 257
143 298 m 257
 143 97 l 257
 841 97 l 257
 841 298 l 257
 143 298 l 257
259 298 m 257
 259 -244 l 257
 459 -244 l 257
 459 298 l 257
 259 298 l 257
EndSplineSet
PickledDataWithLists: "(dp0
Vcom.fontlab.hintData
p1
(dp2
Vhhints
p3
(lp4
(dp5
Vposition
p6
I285
sVwidth
p7
I13
sass."
EndChar

StartChar: uni0908
Encoding: 351 2312 355
GlifName: ii-deva
Width: 1024
VWidth: 0
GlyphClass: 2
Flags: W
HStem: 285 13<657 838 838 838>
LayerCount: 2
Fore
SplineSet
-12 1556 m 257
 -12 1355 l 257
 1025 1355 l 257
 1025 1556 l 257
 -12 1556 l 257
546 1553 m 257
 546 1110 l 257
 746 1110 l 257
 746 1553 l 257
 546 1553 l 257
165 1205 m 257
 165 1004 l 257
 746 1004 l 257
 746 1205 l 257
 165 1205 l 257
165 1181 m 257
 165 738 l 257
 365 738 l 257
 365 1181 l 257
 165 1181 l 257
165 881 m 257
 165 681 l 257
 760 681 l 257
 760 881 l 257
 165 881 l 257
657 881 m 257
 657 285 l 257
 838 285 l 257
 838 881 l 257
 657 881 l 257
143 298 m 257
 143 97 l 257
 841 97 l 257
 841 298 l 257
 143 298 l 257
259 298 m 257
 259 -244 l 257
 482 -244 l 257
 482 298 l 257
 259 298 l 257
268 1770 m 257
 515 1423 l 257
 678 1539 l 257
 430 1886 l 257
 268 1770 l 257
EndSplineSet
PickledDataWithLists: "(dp0
Vcom.fontlab.hintData
p1
(dp2
Vhhints
p3
(lp4
(dp5
Vposition
p6
I285
sVwidth
p7
I13
sass."
EndChar

StartChar: uni0909
Encoding: 352 2313 356
GlifName: u-deva
Width: 1024
VWidth: 0
GlyphClass: 2
Flags: W
LayerCount: 2
Fore
SplineSet
-4 1548 m 257
 -4 1349 l 257
 1022 1349 l 257
 1022 1548 l 257
 -4 1548 l 257
480 1530 m 257
 480 1001 l 257
 679 1001 l 257
 679 1530 l 257
 480 1530 l 257
235 1044 m 257
 235 845 l 257
 877 845 l 257
 877 1044 l 257
 235 1044 l 257
678 994 m 257
 678 8 l 257
 878 8 l 257
 878 994 l 257
 678 994 l 257
130 201 m 257
 130 2 l 257
 867 2 l 257
 867 201 l 257
 130 201 l 257
130 363 m 257
 130 36 l 257
 330 36 l 257
 330 363 l 257
 130 363 l 257
EndSplineSet
PickledDataWithLists: "(dp0
."
EndChar

StartChar: uni090A
Encoding: 353 2314 357
GlifName: uu-deva
Width: 1024
VWidth: 0
GlyphClass: 2
Flags: W
LayerCount: 2
Fore
SplineSet
-4 1548 m 257
 -4 1349 l 257
 1022 1349 l 257
 1022 1548 l 257
 -4 1548 l 257
308 1530 m 257
 308 1001 l 257
 507 1001 l 257
 507 1530 l 257
 308 1530 l 257
151 1044 m 257
 151 845 l 257
 974 845 l 257
 974 1044 l 257
 151 1044 l 257
487 994 m 257
 487 11 l 257
 687 11 l 257
 687 994 l 257
 487 994 l 257
46 204 m 257
 46 5 l 257
 684 5 l 257
 684 204 l 257
 46 204 l 257
46 366 m 257
 46 39 l 257
 246 39 l 257
 246 366 l 257
 46 366 l 257
775 946 m 257
 775 217 l 257
 974 217 l 257
 974 946 l 257
 775 946 l 257
EndSplineSet
PickledDataWithLists: "(dp0
."
EndChar

StartChar: uni090B
Encoding: 354 2315 358
GlifName: rV_ocalic-deva
Width: 1024
VWidth: 0
GlyphClass: 2
Flags: W
LayerCount: 2
Fore
SplineSet
8 1546 m 257
 8 1347 l 257
 1022 1347 l 257
 1022 1546 l 257
 8 1546 l 257
518 1525 m 257
 518 -8 l 257
 717 -8 l 257
 717 1525 l 257
 518 1525 l 257
22 1044 m 257
 22 845 l 257
 326 845 l 257
 326 1044 l 257
 22 1044 l 257
511 496 m 257
 118 329 l 257
 200 136 l 257
 593 303 l 257
 511 496 l 257
326 1044 m 257
 326 846 l 257
 608 742 l 257
 608 944 l 257
 326 1044 l 257
695 897 m 257
 695 699 l 257
 1010 699 l 257
 1010 897 l 257
 695 897 l 257
788 897 m 257
 788 262 l 257
 987 262 l 257
 987 897 l 257
 788 897 l 257
864 464 m 257
 864 264 l 257
 1028 264 l 257
 1028 464 l 257
 864 464 l 257
EndSplineSet
EndChar

StartChar: uni090C
Encoding: 355 2316 359
GlifName: lV_ocalic-deva
Width: 1024
VWidth: 0
GlyphClass: 2
Flags: W
HStem: 590 187<42 243>
VStem: 745 12<689 792>
LayerCount: 2
Fore
SplineSet
-16 1551 m 257
 -16 1352 l 257
 1023 1352 l 257
 1023 1551 l 257
 -16 1551 l 257
557 1551 m 257
 557 689 l 257
 757 689 l 257
 757 1551 l 257
 557 1551 l 257
956 791 m 257
 42 791 l 257
 42 590 l 257
 956 590 l 257
 956 791 l 257
42 777 m 257
 42 252 l 257
 243 252 l 257
 243 777 l 257
 42 777 l 257
393 791 m 257
 393 433 l 257
 594 433 l 257
 594 791 l 257
 393 791 l 257
745 792 m 257
 745 73 l 257
 945 73 l 257
 945 792 l 257
 745 792 l 257
820 259 m 257
 820 71 l 257
 1021 71 l 257
 1021 259 l 257
 820 259 l 257
EndSplineSet
PickledDataWithLists: "(dp0
Vcom.fontlab.hintData
p1
(dp2
Vhhints
p3
(lp4
(dp5
Vposition
p6
I590
sVwidth
p7
I187
sasVvhints
p8
(lp9
(dp10
g6
I745
sg7
I12
sass."
EndChar

StartChar: uni090D
Encoding: 356 2317 360
GlifName: uni090D_
Width: 1024
VWidth: 0
GlyphClass: 2
Flags: W
LayerCount: 2
Fore
SplineSet
-5 1550 m 257
 -5 1349 l 257
 1030 1349 l 257
 1030 1550 l 257
 -5 1550 l 257
729 1545 m 257
 729 779 l 257
 928 779 l 257
 928 1545 l 257
 729 1545 l 257
635 839 m 257
 635 639 l 257
 928 639 l 257
 928 839 l 257
 635 839 l 257
142 1542 m 257
 142 338 l 257
 341 338 l 257
 341 1542 l 257
 142 1542 l 257
142 496 m 257
 142 297 l 257
 749 297 l 257
 749 496 l 257
 142 496 l 257
550 358 m 257
 550 -98 l 257
 749 -98 l 257
 749 358 l 257
 550 358 l 257
387 101 m 257
 387 -98 l 257
 747 -98 l 257
 747 101 l 257
 387 101 l 257
157 2124 m 257
 157 1639 l 257
 356 1639 l 257
 356 2124 l 257
 157 2124 l 257
203 1840 m 257
 203 1641 l 257
 797 1641 l 257
 797 1840 l 257
 203 1840 l 257
622 2132 m 257
 622 1641 l 257
 821 1641 l 257
 821 2132 l 257
 622 2132 l 257
EndSplineSet
EndChar

StartChar: uni090E
Encoding: 357 2318 361
GlifName: uni090E_
Width: 1024
VWidth: 0
GlyphClass: 2
Flags: W
LayerCount: 2
Fore
SplineSet
-5 1550 m 257
 -5 1351 l 257
 1030 1351 l 257
 1030 1550 l 257
 -5 1550 l 257
729 1545 m 257
 729 779 l 257
 928 779 l 257
 928 1545 l 257
 729 1545 l 257
635 979 m 257
 635 779 l 257
 928 779 l 257
 928 979 l 257
 635 979 l 257
142 1542 m 257
 142 338 l 257
 341 338 l 257
 341 1542 l 257
 142 1542 l 257
142 358 m 257
 142 159 l 257
 742 159 l 257
 742 358 l 257
 142 358 l 257
548 358 m 257
 548 -98 l 257
 749 -98 l 257
 749 358 l 257
 548 358 l 257
387 -38 m 257
 387 -238 l 257
 747 -238 l 257
 747 -38 l 257
 387 -38 l 257
270 2062 m 257
 270 1823 l 257
 470 1823 l 257
 470 2062 l 257
 270 2062 l 257
269 1868 m 257
 269 1667 l 257
 952 1667 l 257
 952 1868 l 257
 269 1868 l 257
750 1858 m 257
 750 1540 l 257
 952 1540 l 257
 952 1858 l 257
 750 1858 l 257
EndSplineSet
EndChar

StartChar: uni090F
Encoding: 358 2319 362
GlifName: e-deva
Width: 1024
VWidth: 0
GlyphClass: 2
Flags: W
LayerCount: 2
Fore
SplineSet
-1 1548 m 257
 -1 1348 l 257
 1026 1348 l 257
 1026 1548 l 257
 -1 1548 l 257
724 1548 m 257
 724 782 l 257
 924 782 l 257
 924 1548 l 257
 724 1548 l 257
631 979 m 257
 631 779 l 257
 924 779 l 257
 924 979 l 257
 631 979 l 257
138 1542 m 257
 138 338 l 257
 338 338 l 257
 338 1542 l 257
 138 1542 l 257
138 497 m 257
 138 297 l 257
 738 297 l 257
 738 497 l 257
 138 497 l 257
545 473 m 257
 545 -98 l 257
 745 -98 l 257
 745 473 l 257
 545 473 l 257
383 102 m 257
 383 -98 l 257
 743 -98 l 257
 743 102 l 257
 383 102 l 257
EndSplineSet
PickledDataWithLists: "(dp0
."
EndChar

StartChar: uni0910
Encoding: 359 2320 363
GlifName: ai-deva
Width: 1024
VWidth: 0
GlyphClass: 2
Flags: W
LayerCount: 2
Fore
SplineSet
3 1548 m 257
 3 1348 l 257
 1026 1348 l 257
 1026 1548 l 257
 3 1548 l 257
724 1545 m 257
 724 779 l 257
 924 779 l 257
 924 1545 l 257
 724 1545 l 257
631 979 m 257
 631 779 l 257
 924 779 l 257
 924 979 l 257
 631 979 l 257
138 1542 m 257
 138 338 l 257
 338 338 l 257
 338 1542 l 257
 138 1542 l 257
138 497 m 257
 138 297 l 257
 738 297 l 257
 738 497 l 257
 138 497 l 257
545 473 m 257
 545 -98 l 257
 745 -98 l 257
 745 473 l 257
 545 473 l 257
383 102 m 257
 383 -98 l 257
 743 -98 l 257
 743 102 l 257
 383 102 l 257
442 1883 m 257
 758 1433 l 257
 922 1547 l 257
 606 1998 l 257
 442 1883 l 257
EndSplineSet
PickledDataWithLists: "(dp0
."
EndChar

StartChar: uni0911
Encoding: 360 2321 364
GlifName: oC_andra-deva
Width: 1024
VWidth: 0
GlyphClass: 2
Flags: W
LayerCount: 2
Fore
SplineSet
528 1548 m 257
 528 1343 l 257
 1016 1343 l 257
 1016 1548 l 257
 528 1548 l 257
544 1419 m 257
 544 1 l 257
 743 1 l 257
 743 1419 l 257
 544 1419 l 257
25 1548 m 257
 25 1348 l 257
 385 1348 l 257
 385 1548 l 257
 25 1548 l 257
211 1548 m 257
 211 140 l 257
 411 140 l 257
 411 1548 l 257
 211 1548 l 257
109 894 m 257
 109 693 l 257
 643 693 l 257
 643 894 l 257
 109 894 l 257
0 201 m 257
 0 1 l 257
 411 1 l 257
 411 201 l 257
 0 201 l 257
811 1420 m 257
 811 2 l 257
 1010 2 l 257
 1010 1420 l 257
 811 1420 l 257
526 2085 m 257
 526 1639 l 257
 726 1639 l 257
 726 2085 l 257
 526 2085 l 257
532 1842 m 257
 532 1641 l 257
 1023 1641 l 257
 1023 1842 l 257
 532 1842 l 257
823 2083 m 257
 823 1641 l 257
 1023 1641 l 257
 1023 2083 l 257
 823 2083 l 257
EndSplineSet
EndChar

StartChar: uni0912
Encoding: 361 2322 365
GlifName: oS_hort-deva
Width: 1024
VWidth: 0
GlyphClass: 2
Flags: W
LayerCount: 2
Fore
SplineSet
528 1543 m 257
 528 1343 l 257
 1016 1343 l 257
 1016 1543 l 257
 528 1543 l 257
549 1419 m 257
 549 1 l 257
 748 1 l 257
 748 1419 l 257
 549 1419 l 257
25 1548 m 257
 25 1348 l 257
 385 1348 l 257
 385 1548 l 257
 25 1548 l 257
211 1548 m 257
 211 140 l 257
 411 140 l 257
 411 1548 l 257
 211 1548 l 257
109 894 m 257
 109 693 l 257
 643 693 l 257
 643 894 l 257
 109 894 l 257
0 201 m 257
 0 1 l 257
 411 1 l 257
 411 201 l 257
 0 201 l 257
811 1420 m 257
 811 2 l 257
 1010 2 l 257
 1010 1420 l 257
 811 1420 l 257
266 2155 m 257
 266 1836 l 257
 464 1836 l 257
 464 2155 l 257
 266 2155 l 257
265 1967 m 257
 265 1768 l 257
 948 1768 l 257
 948 1967 l 257
 265 1967 l 257
749 1956 m 257
 749 1516 l 257
 950 1516 l 257
 950 1956 l 257
 749 1956 l 257
EndSplineSet
EndChar

StartChar: uni0913
Encoding: 362 2323 366
GlifName: o-deva
Width: 1024
VWidth: 0
GlyphClass: 2
Flags: W
LayerCount: 2
Fore
SplineSet
528 1548 m 257
 528 1343 l 257
 1016 1343 l 257
 1016 1548 l 257
 528 1548 l 257
544 1419 m 257
 544 1 l 257
 743 1 l 257
 743 1419 l 257
 544 1419 l 257
25 1548 m 257
 25 1348 l 257
 385 1348 l 257
 385 1548 l 257
 25 1548 l 257
211 1548 m 257
 211 140 l 257
 411 140 l 257
 411 1548 l 257
 211 1548 l 257
109 894 m 257
 109 693 l 257
 643 693 l 257
 643 894 l 257
 109 894 l 257
0 201 m 257
 0 1 l 257
 411 1 l 257
 411 201 l 257
 0 201 l 257
811 1423 m 257
 811 5 l 257
 1010 5 l 257
 1010 1423 l 257
 811 1423 l 257
639 1768 m 257
 800 1458 l 257
 978 1550 l 257
 816 1861 l 257
 639 1768 l 257
EndSplineSet
EndChar

StartChar: uni0914
Encoding: 363 2324 367
GlifName: au-deva
Width: 1024
VWidth: 0
GlyphClass: 2
Flags: W
HStem: 1546 2<619 911 911 911>
LayerCount: 2
Fore
SplineSet
528 1548 m 257
 528 1343 l 257
 1016 1343 l 257
 1016 1548 l 257
 528 1548 l 257
544 1419 m 257
 544 1 l 257
 743 1 l 257
 743 1419 l 257
 544 1419 l 257
25 1548 m 257
 25 1348 l 257
 385 1348 l 257
 385 1548 l 257
 25 1548 l 257
211 1548 m 257
 211 140 l 257
 411 140 l 257
 411 1548 l 257
 211 1548 l 257
109 894 m 257
 109 693 l 257
 643 693 l 257
 643 894 l 257
 109 894 l 257
0 201 m 257
 0 1 l 257
 411 1 l 257
 411 201 l 257
 0 201 l 257
811 1420 m 257
 811 2 l 257
 1010 2 l 257
 1010 1420 l 257
 811 1420 l 257
339 1750 m 257
 619 1546 l 257
 911 1546 l 257
 475 1903 l 257
 339 1750 l 257
728 1949 m 257
 791 1522 l 257
 1003 1547 l 257
 925 1988 l 257
 728 1949 l 257
EndSplineSet
PickledDataWithLists: "(dp0
Vcom.fontlab.hintData
p1
(dp2
Vhhints
p3
(lp4
(dp5
Vposition
p6
I1546
sVwidth
p7
I2
sass."
EndChar

StartChar: uni0915
Encoding: 364 2325 368
GlifName: ka-deva
Width: 1024
VWidth: 0
GlyphClass: 2
Flags: W
LayerCount: 2
Fore
SplineSet
0 1547 m 257
 0 1347 l 257
 1016 1347 l 257
 1016 1547 l 257
 0 1547 l 257
522 1516 m 257
 522 10 l 257
 722 10 l 257
 722 1516 l 257
 522 1516 l 257
132 1029 m 257
 132 828 l 257
 614 828 l 257
 614 1029 l 257
 132 1029 l 257
135 989 m 257
 135 443 l 257
 333 443 l 257
 333 989 l 257
 135 989 l 257
150 643 m 257
 150 439 l 257
 576 439 l 257
 576 643 l 257
 150 643 l 257
628 874 m 257
 628 675 l 257
 934 675 l 257
 934 874 l 257
 628 874 l 257
785 879 m 257
 785 587 l 257
 984 587 l 257
 984 879 l 257
 785 879 l 257
EndSplineSet
EndChar

StartChar: uni0915_uni094D.half
Encoding: 540 -1 369
GlifName: uni0915_uni094D_.half
Width: 1024
VWidth: 0
GlyphClass: 2
Flags: W
LayerCount: 2
Fore
SplineSet
0 1547 m 257
 0 1347 l 257
 1016 1347 l 257
 1016 1547 l 257
 0 1547 l 257
522 1516 m 257
 522 10 l 257
 722 10 l 257
 722 1516 l 257
 522 1516 l 257
132 1029 m 257
 132 828 l 257
 614 828 l 257
 614 1029 l 257
 132 1029 l 257
135 989 m 257
 135 443 l 257
 333 443 l 257
 333 989 l 257
 135 989 l 257
150 643 m 257
 150 439 l 257
 576 439 l 257
 576 643 l 257
 150 643 l 257
628 874 m 257
 628 675 l 257
 1013 675 l 257
 1013 874 l 257
 628 874 l 257
EndSplineSet
Ligature2: "halfHalfFormsinDevanagarilookup0 subtable" uni0915 uni094D
EndChar

StartChar: uni0915_uni094D_uni0937.akhn
Encoding: 542 -1 371
GlifName: uni0915_uni094D__uni0937.akhn
Width: 1024
VWidth: 0
GlyphClass: 3
Flags: W
LayerCount: 2
Fore
SplineSet
665 1550 m 257
 665 1351 l 257
 1024 1351 l 257
 1024 1550 l 257
 665 1550 l 257
722 1511 m 257
 722 4 l 257
 921 4 l 257
 921 1511 l 257
 722 1511 l 257
48 1078 m 257
 48 878 l 257
 921 878 l 257
 921 1078 l 257
 48 1078 l 257
47 1023 m 257
 248 1023 l 257
 248 1422 l 257
 47 1422 l 257
 47 1023 l 257
48 1435 m 257
 48 1235 l 257
 567 1235 l 257
 567 1435 l 257
 48 1435 l 257
368 1422 m 257
 368 882 l 257
 566 882 l 257
 566 1422 l 257
 368 1422 l 257
158 635 m 257
 355 635 l 257
 565 880 l 257
 367 880 l 257
 158 635 l 257
158 635 m 257
 158 200 l 257
 357 200 l 257
 357 635 l 257
 158 635 l 257
158 367 m 257
 158 166 l 257
 882 166 l 257
 882 367 l 257
 158 367 l 257
EndSplineSet
PickledDataWithLists: "(dp0
."
Ligature2: "akhnAkhandinDevanagarilookup0 subtable" uni0915 uni094D uni0937
EndChar

StartChar: uni0916
Encoding: 365 2326 373
GlifName: uni0916
Width: 1024
VWidth: 0
GlyphClass: 2
Flags: W
LayerCount: 2
Fore
SplineSet
-7 1549 m 257
 -7 1349 l 257
 1023 1349 l 257
 1023 1549 l 257
 -7 1549 l 257
690 1514 m 257
 690 0 l 257
 890 0 l 257
 890 1514 l 257
 690 1514 l 257
429 979 m 257
 429 779 l 257
 657 779 l 257
 657 979 l 257
 429 979 l 257
399 979 m 257
 399 457 l 257
 599 457 l 257
 599 979 l 257
 399 979 l 257
399 568 m 257
 399 368 l 257
 742 368 l 257
 742 568 l 257
 399 568 l 257
114 1441 m 257
 114 120 l 257
 314 120 l 257
 314 1441 l 257
 114 1441 l 257
9 734 m 257
 9 534 l 257
 313 534 l 257
 313 734 l 257
 9 734 l 257
113 270 m 257
 113 70 l 257
 827 70 l 257
 827 270 l 257
 113 270 l 257
EndSplineSet
EndChar

StartChar: uni0916_uni094D.half
Encoding: 544 -1 374
GlifName: uni0916_uni094D_.half
Width: 1024
VWidth: 0
GlyphClass: 2
Flags: W
LayerCount: 2
Fore
SplineSet
-7 1549 m 257
 -5 1349 l 257
 1023 1349 l 257
 1023 1549 l 257
 -7 1549 l 257
623 979 m 257
 623 779 l 257
 851 779 l 257
 851 979 l 257
 623 979 l 257
593 979 m 257
 593 457 l 257
 793 457 l 257
 793 979 l 257
 593 979 l 257
593 568 m 257
 593 368 l 257
 1015 368 l 257
 1015 568 l 257
 593 568 l 257
308 1441 m 257
 308 120 l 257
 508 120 l 257
 508 1441 l 257
 308 1441 l 257
203 734 m 257
 203 534 l 257
 507 534 l 257
 507 734 l 257
 203 734 l 257
307 270 m 257
 307 70 l 257
 1021 70 l 257
 1021 270 l 257
 307 270 l 257
EndSplineSet
Ligature2: "halfHalfFormsinDevanagarilookup0 subtable" uni0916 uni094D
EndChar

StartChar: uni0917
Encoding: 366 2327 376
GlifName: uni0917
Width: 1024
VWidth: 0
GlyphClass: 2
Flags: W
HStem: 683 361<102 301 102 578 102 578> 812 70<379 578> 853 29<102 301 301 301> 1348 200<261 1012 261 1012> 1348 175<732 732 732 931>
VStem: 102 199<853 882 683 1044 853 1044 853 1044> 379 199<812 882 882 1548 812 812> 732 199<0 1523 0 1523>
LayerCount: 2
Fore
SplineSet
102 853 m 257x27
 301 853 l 257x27
 301 1044 l 257
 102 1044 l 257x87
 102 853 l 257x27
102 882 m 257
 102 683 l 257
 578 683 l 257x87
 578 882 l 257x47
 102 882 l 257
379 1548 m 257x57
 379 812 l 257
 578 812 l 257
 578 1548 l 257
 379 1548 l 257x57
1012 1548 m 257
 261 1548 l 257
 261 1348 l 257
 1012 1348 l 257
 1012 1548 l 257
732 1523 m 257x0f
 732 0 l 257
 931 0 l 257
 931 1523 l 257
 732 1523 l 257x0f
EndSplineSet
PickledDataWithLists: "(dp0
Vcom.fontlab.hintData
p1
(dp2
Vhhints
p3
(lp4
(dp5
Vposition
p6
I683
sVwidth
p7
I361
sa(dp8
g6
I812
sg7
I70
sa(dp9
g6
I853
sg7
I29
sa(dp10
g6
I1348
sg7
I200
sa(dp11
g6
I1348
sg7
I175
sasVvhints
p12
(lp13
(dp14
g6
I102
sg7
I199
sa(dp15
g6
I379
sg7
I199
sa(dp16
g6
I732
sg7
I199
sass."
EndChar

StartChar: uni0917_uni094D.half
Encoding: 546 -1 377
GlifName: uni0917_uni094D_.half
Width: 1024
VWidth: 0
GlyphClass: 3
Flags: W
LayerCount: 2
Fore
SplineSet
102 853 m 257
 301 853 l 257
 301 1044 l 257
 102 1044 l 257
 102 853 l 257
102 882 m 257
 102 683 l 257
 578 683 l 257
 578 882 l 257
 102 882 l 257
379 1548 m 257
 379 812 l 257
 578 812 l 257
 578 1548 l 257
 379 1548 l 257
1012 1548 m 257
 261 1548 l 257
 261 1348 l 257
 1012 1348 l 257
 1012 1548 l 257
EndSplineSet
Ligature2: "halfHalfFormsinDevanagarilookup0 subtable" uni0917 uni094D
EndChar

StartChar: uni0918
Encoding: 367 2328 379
GlifName: gha-deva
Width: 1024
VWidth: 0
GlyphClass: 2
Flags: W
LayerCount: 2
Fore
SplineSet
1 1554 m 257
 1 1354 l 257
 1022 1354 l 257
 1022 1554 l 257
 1 1554 l 257
701 1522 m 257
 701 13 l 257
 901 13 l 257
 901 1522 l 257
 701 1522 l 257
173 1515 m 257
 173 883 l 257
 372 883 l 257
 372 1515 l 257
 173 1515 l 257
267 917 m 257
 267 717 l 257
 511 717 l 257
 511 917 l 257
 267 917 l 257
179 469 m 257
 179 269 l 257
 877 269 l 257
 877 469 l 257
 179 469 l 257
173 269 m 257
 372 269 l 257
 372 764 l 257
 173 764 l 257
 173 269 l 257
EndSplineSet
PickledDataWithLists: "(dp0
."
EndChar

StartChar: uni0918_uni094D.half
Encoding: 548 -1 380
GlifName: uni0918_uni094D_.half
Width: 1024
VWidth: 0
GlyphClass: 3
Flags: W
LayerCount: 2
Fore
SplineSet
1 1554 m 257
 1 1354 l 257
 1022 1354 l 257
 1022 1554 l 257
 1 1554 l 257
173 1515 m 257
 173 883 l 257
 372 883 l 257
 372 1515 l 257
 173 1515 l 257
267 917 m 257
 267 717 l 257
 511 717 l 257
 511 917 l 257
 267 917 l 257
179 469 m 257
 179 269 l 257
 1014 269 l 257
 1014 469 l 257
 179 469 l 257
173 269 m 257
 372 269 l 257
 372 764 l 257
 173 764 l 257
 173 269 l 257
EndSplineSet
Ligature2: "halfHalfFormsinDevanagarilookup0 subtable" uni0918 uni094D
EndChar

StartChar: uni0919
Encoding: 368 2329 382
GlifName: nga-deva
Width: 1024
VWidth: 0
GlyphClass: 2
Flags: W
LayerCount: 2
Fore
SplineSet
-4 1554 m 257
 -4 1354 l 257
 1022 1354 l 257
 1022 1554 l 257
 -4 1554 l 257
509 1543 m 257
 509 1026 l 257
 709 1026 l 257
 709 1543 l 257
 509 1543 l 257
700 1226 m 257
 226 1226 l 257
 226 1026 l 257
 700 1026 l 257
 700 1226 l 257
225 1083 m 257
 225 629 l 257
 430 629 l 257
 430 1083 l 257
 225 1083 l 257
225 820 m 257
 225 620 l 257
 786 620 l 257
 786 820 l 257
 225 820 l 257
586 680 m 257
 586 29 l 257
 786 29 l 257
 786 680 l 257
 586 680 l 257
112 201 m 257
 112 0 l 257
 787 0 l 257
 787 201 l 257
 112 201 l 257
112 423 m 257
 112 8 l 257
 313 8 l 257
 313 423 l 257
 112 423 l 257
813 1037 m 257
 813 890 l 257
 970 890 l 257
 970 1037 l 257
 813 1037 l 257
EndSplineSet
PickledDataWithLists: "(dp0
."
EndChar

StartChar: uni0919_uni094D.half
Encoding: 550 -1 383
GlifName: uni0919_uni094D_.half
Width: 1024
VWidth: 0
GlyphClass: 3
Flags: W
LayerCount: 2
Fore
SplineSet
-4 1554 m 257
 -4 1354 l 257
 1022 1354 l 257
 1022 1554 l 257
 -4 1554 l 257
509 1543 m 257
 509 1026 l 257
 709 1026 l 257
 709 1543 l 257
 509 1543 l 257
700 1226 m 257
 226 1226 l 257
 226 1026 l 257
 700 1026 l 257
 700 1226 l 257
225 1083 m 257
 225 629 l 257
 430 629 l 257
 430 1083 l 257
 225 1083 l 257
225 820 m 257
 225 620 l 257
 786 620 l 257
 786 820 l 257
 225 820 l 257
586 680 m 257
 586 165 l 257
 786 165 l 257
 786 680 l 257
 586 680 l 257
112 337 m 257
 112 134 l 257
 787 136 l 257
 787 337 l 257
 112 337 l 257
112 559 m 257
 112 144 l 257
 313 144 l 257
 313 559 l 257
 112 559 l 257
813 1037 m 257
 813 890 l 257
 970 890 l 257
 970 1037 l 257
 813 1037 l 257
339 55 m 257
 215 -141 l 257
 572 -141 l 257
 696 55 l 257
 339 55 l 257
549 -106 m 257
 886 -511 l 257
 1030 -348 l 257
 692 56 l 257
 549 -106 l 257
EndSplineSet
Ligature2: "halfHalfFormsinDevanagarilookup0 subtable" uni0919 uni094D
EndChar

StartChar: uni091A
Encoding: 369 2330 385
GlifName: ca-deva
Width: 1024
VWidth: 0
GlyphClass: 2
Flags: W
LayerCount: 2
Fore
SplineSet
0 1556 m 257
 0 1356 l 257
 1022 1356 l 257
 1022 1556 l 257
 0 1556 l 257
636 1553 m 257
 636 -2 l 257
 836 -2 l 257
 836 1553 l 257
 636 1553 l 257
803 280 m 257
 803 480 l 257
 296 480 l 257
 296 280 l 257
 803 280 l 257
296 837 m 257
 296 421 l 257
 496 421 l 257
 496 837 l 257
 296 837 l 257
72 991 m 257
 72 791 l 257
 568 791 l 257
 568 991 l 257
 72 991 l 257
EndSplineSet
PickledDataWithLists: "(dp0
."
EndChar

StartChar: uni091B
Encoding: 370 2331 387
GlifName: cha-deva
Width: 1024
VWidth: 0
GlyphClass: 2
Flags: W
LayerCount: 2
Fore
SplineSet
-6 1555 m 257
 -6 1355 l 257
 1016 1355 l 257
 1016 1555 l 257
 -6 1555 l 257
433 1130 m 257
 92 1130 l 257
 92 931 l 257
 433 931 l 257
 433 1130 l 257
89 1130 m 257
 89 584 l 257
 289 584 l 257
 289 1130 l 257
 89 1130 l 257
167 639 m 257
 167 439 l 257
 417 439 l 257
 417 639 l 257
 167 639 l 257
84 493 m 257
 84 0 l 257
 284 0 l 257
 284 493 l 257
 84 493 l 257
84 199 m 257
 84 0 l 257
 719 0 l 257
 719 199 l 257
 84 199 l 257
518 6 m 257
 719 6 l 257
 719 1515 l 257
 518 1515 l 257
 518 6 l 257
659 1007 m 257
 659 808 l 257
 997 808 l 257
 997 1007 l 257
 659 1007 l 257
796 868 m 257
 796 471 l 257
 997 471 l 257
 997 868 l 257
 796 868 l 257
EndSplineSet
PickledDataWithLists: "(dp0
."
EndChar

StartChar: uni091C
Encoding: 371 2332 389
GlifName: ja-deva
Width: 1024
VWidth: 0
GlyphClass: 2
Flags: W
LayerCount: 2
Fore
SplineSet
-34 1551 m 257
 -34 1350 l 257
 1024 1350 l 257
 1024 1551 l 257
 -34 1551 l 257
678 1551 m 257
 678 -12 l 257
 877 -12 l 257
 877 1551 l 257
 678 1551 l 257
397 860 m 257
 397 663 l 257
 811 663 l 257
 811 860 l 257
 397 860 l 257
351 860 m 257
 351 413 l 257
 551 413 l 257
 551 860 l 257
 351 860 l 257
41 567 m 257
 41 367 l 257
 551 367 l 257
 551 567 l 257
 41 567 l 257
41 727 m 257
 41 509 l 257
 241 509 l 257
 241 727 l 257
 41 727 l 257
EndSplineSet
PickledDataWithLists: "(dp0
."
EndChar

StartChar: uni091C_uni094D_uni091E.akhn
Encoding: 555 -1 391
GlifName: uni091C__uni094D__uni091E_.akhn
Width: 1024
VWidth: 0
GlyphClass: 3
Flags: W
LayerCount: 2
Fore
SplineSet
-34 1551 m 257
 -34 1350 l 257
 1024 1350 l 257
 1024 1551 l 257
 -34 1551 l 257
678 1551 m 257
 678 -12 l 257
 877 -12 l 257
 877 1551 l 257
 678 1551 l 257
397 860 m 257
 397 663 l 257
 811 663 l 257
 811 860 l 257
 397 860 l 257
351 860 m 257
 351 413 l 257
 551 413 l 257
 551 860 l 257
 351 860 l 257
41 567 m 257
 41 367 l 257
 551 367 l 257
 551 567 l 257
 41 567 l 257
41 368 m 257
 189 77 l 257
 447 75 l 257
 284 368 l 257
 41 368 l 257
EndSplineSet
Ligature2: "akhnAkhandinDevanagarilookup0 subtable" uni091C uni094D uni091E
EndChar

StartChar: uni091D
Encoding: 372 2333 393
GlifName: jha-deva
Width: 1024
VWidth: 0
GlyphClass: 2
Flags: W
LayerCount: 2
Fore
SplineSet
-18 1549 m 257
 -18 1349 l 257
 1023 1349 l 257
 1023 1549 l 257
 -18 1549 l 257
679 1539 m 257
 679 -5 l 257
 880 -5 l 257
 880 1539 l 257
 679 1539 l 257
447 1537 m 257
 447 1024 l 257
 646 1024 l 257
 646 1537 l 257
 447 1537 l 257
125 1223 m 257
 125 1024 l 257
 646 1024 l 257
 646 1223 l 257
 125 1223 l 257
125 1085 m 257
 125 651 l 257
 325 651 l 257
 325 1085 l 257
 125 1085 l 257
125 837 m 257
 125 638 l 257
 874 638 l 257
 874 837 l 257
 125 837 l 257
418 691 m 257
 418 7 l 257
 618 7 l 257
 618 691 l 257
 418 691 l 257
125 203 m 257
 125 3 l 257
 618 3 l 257
 618 203 l 257
 125 203 l 257
125 63 m 257
 125 -148 l 257
 325 -148 l 257
 325 63 l 257
 125 63 l 257
EndSplineSet
PickledDataWithLists: "(dp0
."
EndChar

StartChar: uni091E
Encoding: 373 2334 395
GlifName: nya-deva
Width: 1024
VWidth: 0
GlyphClass: 2
Flags: W
LayerCount: 2
Fore
SplineSet
-5 1548 m 257
 -5 1348 l 257
 1029 1348 l 257
 1029 1548 l 257
 -5 1548 l 257
735 1538 m 257
 735 -8 l 257
 935 -8 l 257
 935 1538 l 257
 735 1538 l 257
465 737 m 257
 465 537 l 257
 832 537 l 257
 832 737 l 257
 465 737 l 257
84 960 m 257
 84 760 l 257
 442 760 l 257
 442 960 l 257
 84 960 l 257
411 960 m 257
 411 316 l 257
 611 316 l 257
 611 960 l 257
 411 960 l 257
61 460 m 257
 61 260 l 257
 611 260 l 257
 611 460 l 257
 61 460 l 257
EndSplineSet
PickledDataWithLists: "(dp0
."
EndChar

StartChar: uni091F
Encoding: 374 2335 397
GlifName: tta-deva
Width: 1024
VWidth: 0
GlyphClass: 2
Flags: W
LayerCount: 2
Fore
SplineSet
10 1549 m 257
 10 1348 l 257
 1024 1348 l 257
 1024 1549 l 257
 10 1549 l 257
569 1528 m 257
 569 988 l 257
 769 988 l 257
 769 1528 l 257
 569 1528 l 257
769 1023 m 257
 120 1023 l 257
 120 822 l 257
 769 822 l 257
 769 1023 l 257
99 1024 m 257
 99 5 l 257
 299 5 l 257
 299 1024 l 257
 99 1024 l 257
99 201 m 257
 99 0 l 257
 812 0 l 257
 812 201 l 257
 99 201 l 257
EndSplineSet
PickledDataWithLists: "(dp0
."
EndChar

StartChar: uni0920
Encoding: 375 2336 399
GlifName: ttha-deva
Width: 1024
VWidth: 0
GlyphClass: 2
Flags: W
HStem: 1023 12<457 657 657 657>
LayerCount: 2
Fore
SplineSet
0 1551 m 257
 0 1350 l 257
 1026 1350 l 257
 1026 1551 l 257
 0 1551 l 257
457 1484 m 257
 457 1023 l 257
 657 1023 l 257
 657 1484 l 257
 457 1484 l 257
85 1035 m 257
 85 834 l 257
 963 834 l 257
 963 1035 l 257
 85 1035 l 257
72 1035 m 257
 72 13 l 257
 272 13 l 257
 272 1035 l 257
 72 1035 l 257
763 1035 m 257
 763 -2 l 257
 963 -2 l 257
 963 1035 l 257
 763 1035 l 257
73 198 m 257
 73 -3 l 257
 943 -3 l 257
 943 198 l 257
 73 198 l 257
EndSplineSet
PickledDataWithLists: "(dp0
Vcom.fontlab.hintData
p1
(dp2
Vhhints
p3
(lp4
(dp5
Vposition
p6
I1023
sVwidth
p7
I12
sass."
EndChar

StartChar: uni0921
Encoding: 376 2337 401
GlifName: dda-deva
Width: 1024
VWidth: 0
GlyphClass: 2
Flags: W
HStem: 1014 11<384 583 583 583>
LayerCount: 2
Fore
SplineSet
2 1549 m 257
 2 1345 l 257
 1029 1345 l 257
 1029 1549 l 257
 2 1549 l 257
384 1545 m 257
 384 1014 l 257
 583 1014 l 257
 583 1545 l 257
 384 1545 l 257
384 1025 m 257
 384 815 l 257
 927 815 l 257
 927 1025 l 257
 384 1025 l 257
754 1025 m 257
 754 5 l 257
 953 5 l 257
 953 1025 l 257
 754 1025 l 257
62 200 m 257
 62 0 l 257
 953 0 l 257
 953 200 l 257
 62 200 l 257
62 331 m 257
 62 5 l 257
 262 5 l 257
 262 331 l 257
 62 331 l 257
EndSplineSet
PickledDataWithLists: "(dp0
Vcom.fontlab.hintData
p1
(dp2
Vhhints
p3
(lp4
(dp5
Vposition
p6
I1014
sVwidth
p7
I11
sass."
EndChar

StartChar: uni0922
Encoding: 377 2338 403
GlifName: ddha-deva
Width: 1024
VWidth: 0
GlyphClass: 2
Flags: W
LayerCount: 2
Fore
SplineSet
10 1549 m 257
 10 1348 l 257
 1024 1348 l 257
 1024 1549 l 257
 10 1549 l 257
569 1528 m 257
 569 988 l 257
 769 988 l 257
 769 1528 l 257
 569 1528 l 257
769 1023 m 257
 120 1023 l 257
 120 822 l 257
 769 822 l 257
 769 1023 l 257
99 1024 m 257
 99 5 l 257
 299 5 l 257
 299 1024 l 257
 99 1024 l 257
99 201 m 257
 99 0 l 257
 812 0 l 257
 812 201 l 257
 99 201 l 257
613 544 m 257
 613 -2 l 257
 814 -2 l 257
 814 544 l 257
 613 544 l 257
560 547 m 257
 560 347 l 257
 812 347 l 257
 812 547 l 257
 560 547 l 257
EndSplineSet
PickledDataWithLists: "(dp0
."
EndChar

StartChar: uni0923
Encoding: 378 2339 405
GlifName: nna-deva
Width: 1024
VWidth: 0
GlyphClass: 2
Flags: W
LayerCount: 2
Fore
SplineSet
-1 1548 m 257
 -1 1350 l 257
 1029 1350 l 257
 1029 1548 l 257
 -1 1548 l 257
721 1530 m 257
 721 -1 l 257
 921 -1 l 257
 921 1530 l 257
 721 1530 l 257
109 1543 m 257
 109 855 l 257
 309 855 l 257
 309 1543 l 257
 109 1543 l 257
465 1528 m 257
 465 844 l 257
 665 844 l 257
 665 1528 l 257
 465 1528 l 257
109 1024 m 257
 109 825 l 257
 665 825 l 257
 665 1024 l 257
 109 1024 l 257
EndSplineSet
PickledDataWithLists: "(dp0
."
EndChar

StartChar: uni0924
Encoding: 379 2340 407
GlifName: ta-deva
Width: 1024
VWidth: 0
GlyphClass: 2
Flags: W
LayerCount: 2
Fore
SplineSet
-30 1562 m 257
 -30 1362 l 257
 1020 1362 l 257
 1020 1562 l 257
 -30 1562 l 257
630 1562 m 257
 630 1 l 257
 829 1 l 257
 829 1562 l 257
 630 1562 l 257
784 788 m 257
 105 788 l 257
 105 588 l 257
 784 588 l 257
 784 788 l 257
105 766 m 257
 105 26 l 257
 305 26 l 257
 305 766 l 257
 105 766 l 257
EndSplineSet
PickledDataWithLists: "(dp0
."
EndChar

StartChar: uni0925
Encoding: 380 2341 409
GlifName: tha-deva
Width: 1024
VWidth: 0
GlyphClass: 2
Flags: W
LayerCount: 2
Fore
SplineSet
646 1548 m 257
 646 1350 l 257
 1030 1350 l 257
 1030 1548 l 257
 646 1548 l 257
782 1541 m 257
 782 -18 l 257
 981 -18 l 257
 981 1541 l 257
 782 1541 l 257
34 1550 m 257
 34 1350 l 257
 479 1350 l 257
 479 1550 l 257
 34 1550 l 257
278 1413 m 257
 278 927 l 257
 478 927 l 257
 478 1413 l 257
 278 1413 l 257
479 1018 m 257
 38 1018 l 257
 38 810 l 257
 479 810 l 257
 479 1018 l 257
38 946 m 257
 38 132 l 257
 237 132 l 257
 237 946 l 257
 38 946 l 257
38 331 m 257
 38 132 l 257
 981 132 l 257
 981 331 l 257
 38 331 l 257
EndSplineSet
PickledDataWithLists: "(dp0
."
EndChar

StartChar: uni0926
Encoding: 381 2342 411
GlifName: da-deva
Width: 1024
VWidth: 0
GlyphClass: 2
Flags: W
LayerCount: 2
Fore
SplineSet
7 1550 m 257
 7 1350 l 257
 1022 1350 l 257
 1022 1550 l 257
 7 1550 l 257
484 1509 m 257
 484 923 l 257
 684 923 l 257
 684 1509 l 257
 484 1509 l 257
683 1020 m 257
 61 1020 l 257
 61 821 l 257
 683 821 l 257
 683 1020 l 257
57 996 m 257
 57 219 l 257
 257 219 l 257
 257 996 l 257
 57 996 l 257
57 346 m 257
 57 146 l 257
 809 146 l 257
 809 346 l 257
 57 346 l 257
613 406 m 257
 613 -7 l 257
 813 -7 l 257
 813 406 l 257
 613 406 l 257
EndSplineSet
PickledDataWithLists: "(dp0
."
EndChar

StartChar: uni0927
Encoding: 382 2343 413
GlifName: dha-deva
Width: 1024
VWidth: 0
GlyphClass: 2
Flags: W
LayerCount: 2
Fore
SplineSet
734 1548 m 257
 734 1348 l 257
 1035 1348 l 257
 1035 1548 l 257
 734 1548 l 257
783 1440 m 257
 783 -6 l 257
 982 -6 l 257
 982 1440 l 257
 783 1440 l 257
119 1545 m 257
 119 1346 l 257
 505 1346 l 257
 505 1545 l 257
 119 1545 l 257
113 1501 m 257
 113 808 l 257
 312 808 l 257
 312 1501 l 257
 113 1501 l 257
112 882 m 257
 112 681 l 257
 511 681 l 257
 511 882 l 257
 112 882 l 257
146 711 m 257
 146 205 l 257
 346 205 l 257
 346 711 l 257
 146 711 l 257
146 326 m 257
 146 126 l 257
 849 126 l 257
 849 326 l 257
 146 326 l 257
EndSplineSet
PickledDataWithLists: "(dp0
."
EndChar

StartChar: uni0928
Encoding: 383 2344 415
GlifName: na-deva
Width: 1024
VWidth: 0
GlyphClass: 2
Flags: W
LayerCount: 2
Fore
SplineSet
6 1545 m 257
 6 1347 l 257
 1021 1347 l 257
 1021 1545 l 257
 6 1545 l 257
706 1548 m 257
 706 3 l 257
 905 3 l 257
 905 1548 l 257
 706 1548 l 257
101 744 m 257
 101 544 l 257
 875 544 l 257
 875 744 l 257
 101 744 l 257
102 741 m 257
 102 456 l 257
 303 456 l 257
 303 741 l 257
 102 741 l 257
EndSplineSet
PickledDataWithLists: "(dp0
."
EndChar

StartChar: uni0929
Encoding: 384 2345 417
GlifName: uni0929
Width: 1024
VWidth: 0
GlyphClass: 2
Flags: W
LayerCount: 2
Fore
SplineSet
6 1545 m 257
 6 1347 l 257
 1021 1347 l 257
 1021 1545 l 257
 6 1545 l 257
706 1548 m 257
 706 3 l 257
 905 3 l 257
 905 1548 l 257
 706 1548 l 257
101 744 m 257
 101 544 l 257
 875 544 l 257
 875 744 l 257
 101 744 l 257
102 741 m 257
 102 456 l 257
 303 456 l 257
 303 741 l 257
 102 741 l 257
373.5 -57 m 257
 375.5 -304 l 257
 640.5 -304 l 257
 638.5 -57 l 257
 373.5 -57 l 257
EndSplineSet
Ligature2: "nuktNuktaFormsinDevanagarilookup0 subtable" uni0928 uni093C
EndChar

StartChar: uni092A
Encoding: 385 2346 419
GlifName: pa-deva
Width: 1024
VWidth: 0
GlyphClass: 2
Flags: W
LayerCount: 2
Fore
SplineSet
-30 1549 m 257
 -30 1349 l 257
 1031 1349 l 257
 1031 1549 l 257
 -30 1549 l 257
691 1539 m 257
 691 2 l 257
 891 2 l 257
 891 1539 l 257
 691 1539 l 257
94 1551 m 257
 94 837 l 257
 295 837 l 257
 295 1551 l 257
 94 1551 l 257
94 1025 m 257
 94 825 l 257
 857 825 l 257
 857 1025 l 257
 94 1025 l 257
EndSplineSet
PickledDataWithLists: "(dp0
."
EndChar

StartChar: uni092B
Encoding: 386 2347 421
GlifName: pha-deva
Width: 1024
VWidth: 0
GlyphClass: 2
Flags: W
LayerCount: 2
Fore
SplineSet
-30 1549 m 257
 -30 1349 l 257
 1031 1349 l 257
 1031 1549 l 257
 -30 1549 l 257
513 1539 m 257
 513 2 l 257
 713 2 l 257
 713 1539 l 257
 513 1539 l 257
94 1551 m 257
 94 837 l 257
 295 837 l 257
 295 1551 l 257
 94 1551 l 257
94 1024 m 257
 94 824 l 257
 971 824 l 257
 971 1024 l 257
 94 1024 l 257
781 1024 m 257
 781 686 l 257
 980 686 l 257
 980 1024 l 257
 781 1024 l 257
EndSplineSet
PickledDataWithLists: "(dp0
."
EndChar

StartChar: uni092C
Encoding: 387 2348 423
GlifName: ba-deva
Width: 1024
VWidth: 0
GlyphClass: 2
Flags: W
LayerCount: 2
Fore
SplineSet
-1 1550 m 257
 -1 1351 l 257
 1027 1351 l 257
 1027 1550 l 257
 -1 1550 l 257
662 1437 m 257
 662 1 l 257
 862 1 l 257
 862 1437 l 257
 662 1437 l 257
76 1021 m 257
 76 232 l 257
 276 232 l 257
 276 1021 l 257
 76 1021 l 257
77 404 m 257
 77 204 l 257
 812 204 l 257
 812 404 l 257
 77 404 l 257
101 926 m 257
 531 224 l 257
 701 328 l 257
 271 1030 l 257
 101 926 l 257
75 1037 m 257
 75 820 l 257
 613 820 l 257
 613 1037 l 257
 75 1037 l 257
EndSplineSet
PickledDataWithLists: "(dp0
."
EndChar

StartChar: uni092D
Encoding: 388 2349 425
GlifName: bha-deva
Width: 1024
VWidth: 0
GlyphClass: 2
Flags: W
LayerCount: 2
Fore
SplineSet
0 169 m 257
 0 0 l 257
 462 0 l 257
 462 169 l 257
 0 169 l 257
0 473 m 257
 0 0 l 257
 186 0 l 257
 186 473 l 257
 0 473 l 257
586 1548 m 257
 586 1348 l 257
 1031 1348 l 257
 1031 1548 l 257
 586 1548 l 257
756 1543 m 257
 756 0 l 257
 955 0 l 257
 955 1543 l 257
 756 1543 l 257
41 1532 m 257
 41 1079 l 257
 241 1079 l 257
 241 1532 l 257
 41 1532 l 257
67 1538 m 257
 67 1338 l 257
 359 1338 l 257
 359 1538 l 257
 67 1538 l 257
294 1538 m 257
 294 5 l 257
 493 5 l 257
 493 1538 l 257
 294 1538 l 257
100 473 m 257
 100 273 l 257
 927 273 l 257
 927 473 l 257
 100 473 l 257
EndSplineSet
PickledDataWithLists: "(dp0
."
EndChar

StartChar: uni092E
Encoding: 389 2350 427
GlifName: ma-deva
Width: 1024
VWidth: 0
GlyphClass: 2
Flags: W
LayerCount: 2
Fore
SplineSet
0 169 m 257
 0 0 l 257
 462 0 l 257
 462 169 l 257
 0 169 l 257
0 473 m 257
 0 0 l 257
 186 0 l 257
 186 473 l 257
 0 473 l 257
6 1548 m 257
 6 1348 l 257
 1031 1348 l 257
 1031 1548 l 257
 6 1548 l 257
756 1543 m 257
 756 0 l 257
 955 0 l 257
 955 1543 l 257
 756 1543 l 257
294 1538 m 257
 294 3 l 257
 493 3 l 257
 493 1538 l 257
 294 1538 l 257
100 473 m 257
 100 273 l 257
 927 273 l 257
 927 473 l 257
 100 473 l 257
EndSplineSet
PickledDataWithLists: "(dp0
."
EndChar

StartChar: uni092F
Encoding: 390 2351 429
GlifName: ya-deva
Width: 1024
VWidth: 0
GlyphClass: 2
Flags: W
LayerCount: 2
Fore
SplineSet
-18 1550 m 257
 -18 1351 l 257
 1023 1351 l 257
 1023 1550 l 257
 -18 1550 l 257
688 1531 m 257
 688 0 l 257
 889 0 l 257
 889 1531 l 257
 688 1531 l 257
125 1484 m 257
 318 847 l 257
 528 846 l 257
 319 1536 l 257
 125 1484 l 257
318 847 m 257
 127 472 l 257
 290 405 l 257
 528 846 l 257
 318 847 l 257
213 640 m 257
 128 472 l 257
 741 199 l 257
 818 372 l 257
 213 640 l 257
EndSplineSet
PickledDataWithLists: "(dp0
."
EndChar

StartChar: uni0930
Encoding: 391 2352 431
GlifName: ra-deva
Width: 1024
VWidth: 0
GlyphClass: 2
Flags: W
LayerCount: 2
Fore
SplineSet
-1 1549 m 257
 -1 1350 l 257
 1020 1350 l 257
 1020 1549 l 257
 -1 1549 l 257
585 1540 m 257
 585 790 l 257
 785 790 l 257
 785 1540 l 257
 585 1540 l 257
785 802 m 257
 352 802 l 257
 352 603 l 257
 785 603 l 257
 785 802 l 257
352 603 m 257
 700 -50 l 257
 873 41 l 257
 524 694 l 257
 352 603 l 257
EndSplineSet
PickledDataWithLists: "(dp0
."
EndChar

StartChar: uni0930_uni094D.blwf
Encoding: 576 -1 432
GlifName: uni0930_uni094D_.blwf
Width: 1024
VWidth: 0
GlyphClass: 4
Flags: W
LayerCount: 2
Fore
SplineSet
-14 1550 m 257
 -14 1351 l 257
 1026 1351 l 257
 1026 1550 l 257
 -14 1550 l 257
-971 -210 m 257
 -747 -584 l 257
 -465 -590 l 257
 -849 -41 l 257
 -971 -210 l 257
-849 -41 m 257
 -1256 -605 l 257
 -1035 -599 l 257
 -734 -206 l 257
 -849 -41 l 257
EndSplineSet
PickledDataWithLists: "(dp0
."
Ligature2: "blwfBelowBaseFormsinDevanagarilookup0 subtable" uni0930 uni094D
Substitution2: "Single Substituion lookup15-1" uni0930_uni094D.vatu
EndChar

StartChar: uni0930_uni094D.rphf
Encoding: 578 -1 434
GlifName: uni0930_uni094D_.rphf
Width: 1024
VWidth: 0
GlyphClass: 4
Flags: W
LayerCount: 2
Fore
SplineSet
-11 1552 m 257
 -11 1352 l 257
 1028 1352 l 257
 1028 1552 l 257
 -11 1552 l 257
-520 1552 m 257
 -318 1551 l 257
 -318 1871 l 257
 -516 1874 l 257
 -520 1552 l 257
-256 2142 m 257
 -256 1942 l 257
 72 1942 l 257
 72 2142 l 257
 -256 2142 l 257
-256 2142 m 257
 -517 1875 l 257
 -319 1869 l 257
 -256 1942 l 257
 -256 2142 l 257
EndSplineSet
PickledDataWithLists: "(dp0
."
Ligature2: "rphfRephForminDevanagarilookup0 subtable" uni0930 uni094D
EndChar

StartChar: uni0931
Encoding: 392 2353 435
GlifName: uni0931
Width: 1024
VWidth: 0
GlyphClass: 2
Flags: W
LayerCount: 2
Fore
SplineSet
-1 1549 m 257
 -1 1350 l 257
 1020 1350 l 257
 1020 1549 l 257
 -1 1549 l 257
585 1540 m 257
 585 790 l 257
 785 790 l 257
 785 1540 l 257
 585 1540 l 257
785 802 m 257
 352 802 l 257
 352 603 l 257
 785 603 l 257
 785 802 l 257
352 603 m 257
 700 -50 l 257
 873 41 l 257
 524 694 l 257
 352 603 l 257
331.5 -45 m 257
 333.5 -292 l 257
 598.5 -292 l 257
 596.5 -45 l 257
 331.5 -45 l 257
EndSplineSet
Ligature2: "nuktNuktaFormsinDevanagarilookup0 subtable" uni0930 uni093C
EndChar

StartChar: uni0932
Encoding: 393 2354 437
GlifName: la-deva
Width: 1024
VWidth: 0
GlyphClass: 2
Flags: W
LayerCount: 2
Fore
SplineSet
-11 1550 m 257
 -11 1344 l 257
 1025 1344 l 257
 1025 1550 l 257
 -11 1550 l 257
900 1544 m 257
 700 1544 l 257
 700 2 l 257
 900 2 l 257
 900 1544 l 257
32 703 m 257
 32 194 l 257
 235 194 l 257
 235 703 l 257
 32 703 l 257
32 782 m 257
 32 582 l 257
 814 582 l 257
 814 782 l 257
 32 782 l 257
375 689 m 257
 375 374 l 257
 575 374 l 257
 575 689 l 257
 375 689 l 257
EndSplineSet
PickledDataWithLists: "(dp0
."
EndChar

StartChar: uni0933
Encoding: 394 2355 439
GlifName: lla-deva
Width: 1024
VWidth: 0
GlyphClass: 2
Flags: W
LayerCount: 2
Fore
SplineSet
-11 1550 m 257
 -11 1344 l 257
 1025 1344 l 257
 1025 1550 l 257
 -11 1550 l 257
900 1544 m 257
 700 1544 l 257
 700 194 l 257
 900 194 l 257
 900 1544 l 257
32 703 m 257
 32 194 l 257
 235 194 l 257
 235 703 l 257
 32 703 l 257
32 782 m 257
 32 582 l 257
 814 582 l 257
 814 782 l 257
 32 782 l 257
375 689 m 257
 375 374 l 257
 575 374 l 257
 575 689 l 257
 375 689 l 257
34 391 m 257
 34 191 l 257
 900 191 l 257
 900 391 l 257
 34 391 l 257
EndSplineSet
PickledDataWithLists: "(dp0
."
EndChar

StartChar: uni0934
Encoding: 395 2356 441
GlifName: uni0934
Width: 1024
VWidth: 0
GlyphClass: 2
Flags: W
LayerCount: 2
Fore
SplineSet
-11 1550 m 257
 -11 1344 l 257
 1025 1344 l 257
 1025 1550 l 257
 -11 1550 l 257
900 1544 m 257
 700 1544 l 257
 700 194 l 257
 900 194 l 257
 900 1544 l 257
32 703 m 257
 32 194 l 257
 235 194 l 257
 235 703 l 257
 32 703 l 257
32 782 m 257
 32 582 l 257
 814 582 l 257
 814 782 l 257
 32 782 l 257
375 689 m 257
 375 374 l 257
 575 374 l 257
 575 689 l 257
 375 689 l 257
34 391 m 257
 34 191 l 257
 900 191 l 257
 900 391 l 257
 34 391 l 257
601.5 -54 m 257
 603.5 -301 l 257
 868.5 -301 l 257
 866.5 -54 l 257
 601.5 -54 l 257
EndSplineSet
Ligature2: "nuktNuktaFormsinDevanagarilookup0 subtable" uni0933 uni093C
EndChar

StartChar: uni0935
Encoding: 396 2357 443
GlifName: va-deva
Width: 1024
VWidth: 0
GlyphClass: 2
Flags: W
LayerCount: 2
Fore
SplineSet
-1 1550 m 257
 -1 1351 l 257
 1027 1351 l 257
 1027 1550 l 257
 -1 1550 l 257
662 1437 m 257
 662 1 l 257
 862 1 l 257
 862 1437 l 257
 662 1437 l 257
76 1021 m 257
 76 232 l 257
 276 232 l 257
 276 1021 l 257
 76 1021 l 257
77 404 m 257
 77 204 l 257
 812 204 l 257
 812 404 l 257
 77 404 l 257
75 1037 m 257
 75 820 l 257
 613 820 l 257
 613 1037 l 257
 75 1037 l 257
EndSplineSet
PickledDataWithLists: "(dp0
."
EndChar

StartChar: uni0936
Encoding: 397 2358 445
GlifName: uni0936
Width: 1024
VWidth: 0
GlyphClass: 2
Flags: W
LayerCount: 2
Fore
SplineSet
647 1549 m 257
 647 1349 l 257
 1024 1349 l 257
 1024 1549 l 257
 647 1549 l 257
774 1520 m 257
 774 -4 l 257
 975 -4 l 257
 975 1520 l 257
 774 1520 l 257
100 1543 m 257
 100 1224 l 257
 300 1224 l 257
 300 1543 l 257
 100 1543 l 257
100 1550 m 257
 100 1348 l 257
 531 1348 l 257
 531 1550 l 257
 100 1550 l 257
407 1549 m 257
 407 816 l 257
 607 816 l 257
 607 1549 l 257
 407 1549 l 257
163 1023 m 257
 163 816 l 257
 598 816 l 257
 598 1023 l 257
 163 1023 l 257
160 822 m 257
 480 8 l 257
 647 68 l 257
 327 882 l 257
 160 822 l 257
EndSplineSet
PickledDataWithLists: "(dp0
."
EndChar

StartChar: uni0937
Encoding: 398 2359 447
GlifName: uni0937
Width: 1024
VWidth: 0
GlyphClass: 2
Flags: W
LayerCount: 2
Fore
SplineSet
-8 1550 m 257
 -8 1350 l 257
 1031 1350 l 257
 1031 1550 l 257
 -8 1550 l 257
691 1539 m 257
 691 2 l 257
 891 2 l 257
 891 1539 l 257
 691 1539 l 257
94 1551 m 257
 94 965 l 257
 293 965 l 257
 293 1551 l 257
 94 1551 l 257
94 1025 m 257
 94 824 l 257
 857 824 l 257
 857 1025 l 257
 94 1025 l 257
97 1361 m 257
 690 985 l 257
 891 981 l 257
 291 1362 l 257
 97 1361 l 257
EndSplineSet
PickledDataWithLists: "(dp0
."
EndChar

StartChar: uni0938
Encoding: 399 2360 449
GlifName: uni0938
Width: 1024
VWidth: 0
GlyphClass: 2
Flags: W
LayerCount: 2
Fore
SplineSet
-2 1550 m 257
 -2 1350 l 257
 1030 1350 l 257
 1030 1550 l 257
 -2 1550 l 257
716 1544 m 257
 716 3 l 257
 916 3 l 257
 916 1544 l 257
 716 1544 l 257
156 1509 m 257
 156 729 l 257
 355 729 l 257
 355 1509 l 257
 156 1509 l 257
156 858 m 257
 156 659 l 257
 864 659 l 257
 864 858 l 257
 156 858 l 257
156 658 m 257
 483 4 l 257
 680 0 l 257
 346 742 l 257
 156 658 l 257
EndSplineSet
PickledDataWithLists: "(dp0
."
EndChar

StartChar: uni0939
Encoding: 400 2361 451
GlifName: uni0939
Width: 1024
VWidth: 0
GlyphClass: 2
Flags: W
LayerCount: 2
Fore
SplineSet
-6 1551 m 257
 -6 1351 l 257
 1025 1351 l 257
 1025 1551 l 257
 -6 1551 l 257
453 1511 m 257
 453 1174 l 257
 653 1174 l 257
 650 1510 l 257
 453 1511 l 257
655 1196 m 257
 322 1196 l 257
 322 996 l 257
 655 996 l 257
 655 1196 l 257
194 1195 m 257
 202 785 l 257
 402 785 l 257
 395 1195 l 257
 194 1195 l 257
501 789 m 257
 501 577 l 257
 699 577 l 257
 699 789 l 257
 501 789 l 257
139 838 m 257
 139 637 l 257
 699 643 l 257
 699 841 l 257
 139 838 l 257
139 793 m 257
 139 215 l 257
 339 215 l 257
 339 793 l 257
 139 793 l 257
338 215 m 257
 139 215 l 257
 389 4 l 257
 596 -1 l 257
 338 215 l 257
EndSplineSet
PickledDataWithLists: "(dp0
."
EndChar

StartChar: uni093A
Encoding: 401 2362 453
GlifName: uni093A_
Width: 1024
VWidth: 0
GlyphClass: 4
Flags: W
LayerCount: 2
Fore
SplineSet
-2 1633 m 257
 -2 1090 l 257
 170 1090 l 257
 170 1633 l 257
 -2 1633 l 257
EndSplineSet
PickledDataWithLists: "(dp0
."
EndChar

StartChar: uni093B
Encoding: 402 2363 454
GlifName: uni093B_
Width: 1024
VWidth: 0
GlyphClass: 2
Flags: W
LayerCount: 2
Fore
SplineSet
412 1819 m 257
 412 4 l 257
 612 4 l 257
 612 1819 l 257
 412 1819 l 257
8 1550 m 257
 8 1350 l 257
 1003 1350 l 257
 1003 1550 l 257
 8 1550 l 257
EndSplineSet
EndChar

StartChar: uni093C
Encoding: 403 2364 455
GlifName: uni093C_
Width: 1024
VWidth: 0
GlyphClass: 4
Flags: W
HStem: -1 247
VStem: 380 265
LayerCount: 2
Fore
SplineSet
-422.5 -54 m 257
 -420.5 -301 l 257
 -155.5 -301 l 257
 -157.5 -54 l 257
 -422.5 -54 l 257
EndSplineSet
PickledDataWithLists: "(dp0
Vcom.fontlab.hintData
p1
(dp2
Vhhints
p3
(lp4
(dp5
Vposition
p6
I-1
sVwidth
p7
I247
sasVvhints
p8
(lp9
(dp10
g6
I380
sg7
I265
sass."
EndChar

StartChar: uni093D
Encoding: 404 2365 456
GlifName: uni093D_
Width: 1024
VWidth: 0
GlyphClass: 2
Flags: W
LayerCount: 2
Fore
SplineSet
351 1264 m 257
 351 1080 l 257
 876 1080 l 257
 876 1264 l 257
 351 1264 l 257
352 1080 m 257
 656 268 l 257
 846 269 l 257
 553 1079 l 257
 352 1080 l 257
462 269 m 257
 462 104 l 257
 846 104 l 257
 846 269 l 257
 462 269 l 257
162 457 m 257
 461 104 l 257
 463 270 l 257
 307 548 l 257
 162 457 l 257
EndSplineSet
PickledDataWithLists: "(dp0
."
EndChar

StartChar: uni093E
Encoding: 405 2366 457
GlifName: uni093E_
Width: 1024
VWidth: 0
GlyphClass: 2
Flags: W
LayerCount: 2
Fore
SplineSet
-1 1550 m 257
 -1 1350 l 257
 1029 1350 l 257
 1029 1550 l 257
 -1 1550 l 257
412 1514 m 257
 412 1 l 257
 612 1 l 257
 612 1514 l 257
 412 1514 l 257
EndSplineSet
PickledDataWithLists: "(dp0
."
EndChar

StartChar: uni093F
Encoding: 406 2367 458
GlifName: uni093F_
Width: 1024
VWidth: 0
GlyphClass: 2
Flags: W
LayerCount: 2
Fore
SplineSet
13 1551 m 257
 13 1352 l 257
 1022 1352 l 257
 1022 1551 l 257
 13 1551 l 257
353 1784 m 257
 353 2 l 257
 552 2 l 257
 552 1784 l 257
 353 1784 l 257
350 1933 m 257
 350 1733 l 257
 1146 1733 l 257
 1146 1933 l 257
 350 1933 l 257
949 1909 m 257
 949 1621 l 257
 1149 1621 l 257
 1149 1909 l 257
 949 1909 l 257
EndSplineSet
PickledDataWithLists: "(dp0
."
EndChar

StartChar: uni0940
Encoding: 407 2368 459
GlifName: uni0940
Width: 1024
VWidth: 0
GlyphClass: 2
Flags: W
LayerCount: 2
Fore
SplineSet
-2 1551 m 257
 -2 1350 l 257
 1023 1350 l 257
 1023 1551 l 257
 -2 1551 l 257
423 1748 m 257
 423 12 l 257
 622 12 l 257
 622 1748 l 257
 423 1748 l 257
622 1694 m 257
 622 1895 l 257
 -232 1895 l 257
 -232 1694 l 257
 622 1694 l 257
-243 1895 m 257
 -243 1563 l 257
 -44 1563 l 257
 -44 1895 l 257
 -243 1895 l 257
EndSplineSet
PickledDataWithLists: "(dp0
."
EndChar

StartChar: uni0941
Encoding: 408 2369 460
GlifName: uni0941
Width: 1024
VWidth: 0
GlyphClass: 4
Flags: W
LayerCount: 2
Fore
SplineSet
-12 1550 m 257
 -12 1350 l 257
 1032 1350 l 257
 1032 1550 l 257
 -12 1550 l 257
-180 -23 m 257
 -180 -222 l 257
 249 -222 l 257
 249 -23 l 257
 -180 -23 l 257
49 -40 m 257
 49 -458 l 257
 249 -458 l 257
 249 -40 l 257
 49 -40 l 257
-449 -351 m 257
 -449 -550 l 257
 250 -550 l 257
 250 -351 l 257
 -449 -351 l 257
-449 -183 m 257
 -449 -448 l 257
 -249 -448 l 257
 -249 -183 l 257
 -449 -183 l 257
EndSplineSet
PickledDataWithLists: "(dp0
."
EndChar

StartChar: uni0942
Encoding: 409 2370 461
GlifName: uni0942
Width: 1024
VWidth: 0
GlyphClass: 4
Flags: W
LayerCount: 2
Fore
SplineSet
-11 1552 m 257
 -11 1353 l 257
 1023 1353 l 257
 1023 1552 l 257
 -11 1552 l 257
-36 -485 m 257
 -36 -285 l 257
 -350 -285 l 257
 -350 -485 l 257
 -36 -485 l 257
-149 -289 m 257
 -149 0 l 257
 -350 0 l 257
 -350 -289 l 257
 -149 -289 l 257
-350 0 m 257
 -350 -199 l 257
 66 -199 l 257
 66 0 l 257
 -350 0 l 257
65 -196 m 257
 320 -406 l 257
 583 -409 l 257
 66 0 l 257
 65 -196 l 257
EndSplineSet
PickledDataWithLists: "(dp0
."
EndChar

StartChar: uni0943
Encoding: 410 2371 462
GlifName: uni0943
Width: 1024
VWidth: 0
GlyphClass: 4
Flags: W
LayerCount: 2
Fore
SplineSet
-4 1549 m 257
 -4 1349 l 257
 1031 1349 l 257
 1031 1549 l 257
 -4 1549 l 257
-7 9 m 257
 -389 -133 l 257
 -319 -320 l 257
 62 -178 l 257
 -7 9 l 257
-389 -132 m 257
 -211 -611 l 257
 -23 -541 l 257
 -201 -62 l 257
 -389 -132 l 257
-269 -455 m 257
 -199 -643 l 257
 262 -471 l 257
 192 -284 l 257
 -269 -455 l 257
EndSplineSet
PickledDataWithLists: "(dp0
."
EndChar

StartChar: uni0944
Encoding: 411 2372 463
GlifName: uni0944
Width: 1024
VWidth: 0
GlyphClass: 4
Flags: W
LayerCount: 2
Fore
SplineSet
-13 1547 m 257
 -13 1347 l 257
 1029 1347 l 257
 1029 1547 l 257
 -13 1547 l 257
-115 4 m 257
 -460 4 l 257
 -460 -196 l 257
 -115 -196 l 257
 -115 4 l 257
-515 3 m 257
 -515 -872 l 257
 -315 -872 l 257
 -315 3 l 257
 -515 3 l 257
-450 -321 m 257
 -450 -522 l 257
 -89 -522 l 257
 -89 -321 l 257
 -450 -321 l 257
-443 -672 m 257
 -448 -872 l 257
 -81 -872 l 257
 -76 -672 l 257
 -443 -672 l 257
EndSplineSet
PickledDataWithLists: "(dp0
."
EndChar

StartChar: uni0945
Encoding: 412 2373 464
GlifName: uni0945
Width: 1024
VWidth: 0
GlyphClass: 4
Flags: W
LayerCount: 2
Fore
SplineSet
3 1553 m 257
 3 1354 l 257
 1026 1354 l 257
 1026 1553 l 257
 3 1553 l 257
-522 2124 m 257
 -522 1639 l 257
 -320 1639 l 257
 -320 2124 l 257
 -522 2124 l 257
-333 1841 m 257
 -333 1641 l 257
 261 1641 l 257
 261 1841 l 257
 -333 1841 l 257
225 2132 m 257
 225 1641 l 257
 425 1641 l 257
 425 2132 l 257
 225 2132 l 257
EndSplineSet
PickledDataWithLists: "(dp0
."
EndChar

StartChar: uni0946
Encoding: 413 2374 465
GlifName: uni0946
Width: 1024
VWidth: 0
GlyphClass: 4
Flags: W
LayerCount: 2
Fore
SplineSet
-9 1549 m 257
 -9 1350 l 257
 1026 1350 l 257
 1026 1549 l 257
 -9 1549 l 257
-450 2123 m 257
 -450 1823 l 257
 -250 1823 l 257
 -250 2123 l 257
 -450 2123 l 257
-451 1963 m 257
 -451 1763 l 257
 232 1763 l 257
 232 1963 l 257
 -451 1963 l 257
32 1858 m 257
 32 1540 l 257
 232 1540 l 257
 232 1858 l 257
 32 1858 l 257
EndSplineSet
PickledDataWithLists: "(dp0
."
EndChar

StartChar: uni0947
Encoding: 414 2375 466
GlifName: uni0947
Width: 1024
VWidth: 0
GlyphClass: 4
Flags: W
LayerCount: 2
Fore
SplineSet
-9 1550 m 257
 -9 1350 l 257
 1026 1350 l 257
 1026 1550 l 257
 -9 1550 l 257
-305 1919 m 257
 66 1447 l 257
 225 1555 l 257
 -124 2044 l 257
 -305 1919 l 257
EndSplineSet
PickledDataWithLists: "(dp0
."
EndChar

StartChar: uni0948
Encoding: 415 2376 467
GlifName: uni0948
Width: 1024
VWidth: 0
GlyphClass: 4
Flags: W
LayerCount: 2
Fore
SplineSet
-2 1548 m 257
 -2 1343 l 257
 1022 1343 l 257
 1022 1548 l 257
 -2 1548 l 257
-191 1750 m 257
 89 1546 l 257
 381 1546 l 257
 -55 1903 l 257
 -191 1750 l 257
198 1949 m 257
 261 1522 l 257
 473 1547 l 257
 395 1988 l 257
 198 1949 l 257
EndSplineSet
EndChar

StartChar: uni0949
Encoding: 416 2377 468
GlifName: uni0949
Width: 1024
VWidth: 0
GlyphClass: 2
Flags: W
LayerCount: 2
Fore
SplineSet
17 1548 m 257
 17 1347 l 257
 1018 1347 l 257
 1018 1548 l 257
 17 1548 l 257
412 1504 m 257
 412 2 l 257
 613 2 l 257
 613 1504 l 257
 412 1504 l 257
125 2085 m 257
 125 1639 l 257
 324 1639 l 257
 324 2085 l 257
 125 2085 l 257
269 1841 m 257
 269 1641 l 257
 760 1641 l 257
 760 1841 l 257
 269 1841 l 257
689 2083 m 257
 689 1641 l 257
 888 1641 l 257
 888 2083 l 257
 689 2083 l 257
EndSplineSet
PickledDataWithLists: "(dp0
."
EndChar

StartChar: uni094A
Encoding: 417 2378 469
GlifName: uni094A_
Width: 1024
VWidth: 0
GlyphClass: 2
Flags: W
LayerCount: 2
Fore
SplineSet
-14 1545 m 257
 -14 1345 l 257
 1020 1352 l 257
 1020 1552 l 257
 -14 1545 l 257
412 1518 m 257
 412 1 l 257
 606 1 l 257
 606 1518 l 257
 412 1518 l 257
-249 2062 m 257
 -249 1823 l 257
 -49 1823 l 257
 -49 2062 l 257
 -249 2062 l 257
-249 1866 m 257
 -249 1665 l 257
 434 1665 l 257
 434 1866 l 257
 -249 1866 l 257
406 1866 m 257
 406 1545 l 257
 605 1545 l 257
 605 1866 l 257
 406 1866 l 257
EndSplineSet
PickledDataWithLists: "(dp0
."
EndChar

StartChar: uni094B
Encoding: 418 2379 470
GlifName: uni094B_
Width: 1024
VWidth: 0
GlyphClass: 2
Flags: W
LayerCount: 2
Fore
SplineSet
1 1548 m 257
 1 1343 l 257
 1026 1343 l 257
 1026 1548 l 257
 1 1548 l 257
414 1423 m 257
 411 5 l 257
 610 5 l 257
 613 1423 l 257
 414 1423 l 257
-162 1999 m 257
 288 1458 l 257
 466 1550 l 257
 15 2092 l 257
 -162 1999 l 257
EndSplineSet
EndChar

StartChar: uni094C
Encoding: 419 2380 471
GlifName: uni094C_
Width: 1024
VWidth: 0
GlyphClass: 2
Flags: W
LayerCount: 2
Fore
SplineSet
13 1548 m 257
 13 1343 l 257
 1025 1343 l 257
 1025 1548 l 257
 13 1548 l 257
420 1421 m 257
 412 3 l 257
 611 1 l 257
 619 1419 l 257
 420 1421 l 257
-335 1805 m 257
 23 1546 l 257
 396 1546 l 257
 -161 2000 l 257
 -335 1805 l 257
213 2058 m 257
 276 1522 l 257
 498 1548 l 257
 410 2107 l 257
 213 2058 l 257
EndSplineSet
EndChar

StartChar: uni094D
Encoding: 420 2381 472
GlifName: uni094D_
Width: 1024
VWidth: 0
GlyphClass: 4
Flags: W
LayerCount: 2
Fore
SplineSet
-553 -22 m 257
 -553 -218 l 257
 -196 -218 l 257
 -196 -22 l 257
 -553 -22 l 257
-337 -183 m 257
 133 -588 l 257
 277 -425 l 257
 -194 -21 l 257
 -337 -183 l 257
2 1552 m 257
 2 1353 l 257
 1026 1353 l 257
 1026 1552 l 257
 2 1552 l 257
EndSplineSet
EndChar

StartChar: uni094E
Encoding: 421 2382 473
GlifName: uni094E_
Width: 1024
VWidth: 0
GlyphClass: 2
Flags: W
LayerCount: 2
Fore
SplineSet
423 1537 m 257
 423 1 l 257
 624 1 l 257
 624 1537 l 257
 423 1537 l 257
436 1544 m 257
 436 1342 l 257
 884 1342 l 257
 884 1544 l 257
 436 1544 l 257
EndSplineSet
PickledDataWithLists: "(dp0
."
EndChar

StartChar: uni094F
Encoding: 422 2383 474
GlifName: uni094F_
Width: 1024
VWidth: 0
GlyphClass: 2
Flags: W
LayerCount: 2
Fore
SplineSet
-37 1548 m 257
 -37 1347 l 257
 1020 1354 l 257
 1020 1555 l 257
 -37 1548 l 257
347 1518 m 257
 347 1 l 257
 549 1 l 257
 549 1518 l 257
 347 1518 l 257
-287 2062 m 257
 -287 1823 l 257
 -88 1823 l 257
 -88 2062 l 257
 -287 2062 l 257
-288 1866 m 257
 -288 1666 l 257
 395 1666 l 257
 395 1866 l 257
 -288 1866 l 257
197 1863 m 257
 197 1545 l 257
 395 1545 l 257
 395 1863 l 257
 197 1863 l 257
260 2450 m 257
 79 2104 l 257
 234 2029 l 257
 424 2355 l 257
 260 2450 l 257
221 2283 m 257
 109 2089 l 257
 651 1816 l 257
 774 1987 l 257
 221 2283 l 257
773 1986 m 257
 442 1530 l 257
 721 1528 l 257
 945 1879 l 257
 773 1986 l 257
EndSplineSet
PickledDataWithLists: "(dp0
."
EndChar

StartChar: uni0950
Encoding: 423 2384 475
GlifName: uni0950
Width: 1024
VWidth: 0
GlyphClass: 2
Flags: W
LayerCount: 2
Fore
SplineSet
801 894 m 257
 801 510 l 257
 1002 510 l 257
 1002 894 l 257
 801 894 l 257
50 1547 m 257
 50 1348 l 257
 428 1348 l 257
 428 1547 l 257
 50 1547 l 257
268 1548 m 257
 268 140 l 257
 468 140 l 257
 468 1548 l 257
 268 1548 l 257
134 894 m 257
 134 693 l 257
 831 693 l 257
 831 894 l 257
 134 894 l 257
25 201 m 257
 25 1 l 257
 466 1 l 257
 466 201 l 257
 25 201 l 257
532 1417 m 257
 532 988 l 257
 633 988 l 257
 633 1417 l 257
 532 1417 l 257
566 1088 m 257
 566 988 l 257
 943 985 l 257
 943 1085 l 257
 566 1088 l 257
862 1420 m 257
 862 985 l 257
 962 985 l 257
 962 1420 l 257
 862 1420 l 257
699 1269 m 257
 699 1188 l 257
 804 1188 l 257
 804 1269 l 257
 699 1269 l 257
EndSplineSet
EndChar

StartChar: uni0951
Encoding: 424 2385 476
GlifName: uni0951
Width: 1024
VWidth: 0
GlyphClass: 4
Flags: W
LayerCount: 2
Fore
SplineSet
-399 2128 m 257
 -399 1738 l 257
 -201 1738 l 257
 -201 2128 l 257
 -399 2128 l 257
EndSplineSet
PickledDataWithLists: "(dp0
."
EndChar

StartChar: uni0952
Encoding: 425 2386 477
GlifName: uni0952
Width: 1024
VWidth: 0
GlyphClass: 4
Flags: W
LayerCount: 2
Fore
SplineSet
-877 -134 m 257
 -877 -285 l 257
 -48 -285 l 257
 -48 -134 l 257
 -877 -134 l 257
EndSplineSet
PickledDataWithLists: "(dp0
."
EndChar

StartChar: uni0953
Encoding: 426 2387 478
GlifName: uni0953
Width: 1024
VWidth: 0
GlyphClass: 4
Flags: W
LayerCount: 2
Fore
SplineSet
-579 1786 m 257
 -249 1318 l 257
 -146 1339 l 257
 -364 1841 l 257
 -579 1786 l 257
EndSplineSet
PickledDataWithLists: "(dp0
."
EndChar

StartChar: uni0954
Encoding: 427 2388 479
GlifName: uni0954
Width: 1024
VWidth: 0
GlyphClass: 4
Flags: W
LayerCount: 2
Fore
SplineSet
-205 1894 m 257
 -359 1385 l 257
 -218 1376 l 257
 27 1850 l 257
 -205 1894 l 257
EndSplineSet
PickledDataWithLists: "(dp0
."
EndChar

StartChar: uni0955
Encoding: 428 2389 480
GlifName: uni0955
Width: 1024
VWidth: 0
GlyphClass: 4
Flags: W
LayerCount: 2
Fore
SplineSet
-9 1553 m 257
 -9 1354 l 257
 1026 1354 l 257
 1026 1553 l 257
 -9 1553 l 257
-386 2190 m 257
 -386 1849 l 257
 -187 1849 l 257
 -187 2190 l 257
 -386 2190 l 257
-340 2047 m 257
 -340 1848 l 257
 254 1848 l 257
 254 2047 l 257
 -340 2047 l 257
79 2190 m 257
 79 1848 l 257
 278 1848 l 257
 278 2190 l 257
 79 2190 l 257
-479 1787 m 257
 -479 1588 l 257
 349 1588 l 257
 349 1787 l 257
 -479 1787 l 257
EndSplineSet
PickledDataWithLists: "(dp0
."
EndChar

StartChar: uni0956
Encoding: 429 2390 481
GlifName: uni0956
Width: 1024
VWidth: 0
GlyphClass: 4
Flags: W
LayerCount: 2
Fore
SplineSet
-9 1553 m 257
 -9 1354 l 257
 1026 1354 l 257
 1026 1553 l 257
 -9 1553 l 257
-766 -58 m 257
 -763 -391 l 257
 -564 -391 l 257
 -567 -58 l 257
 -766 -58 l 257
-574 -191 m 257
 -574 -390 l 257
 20 -390 l 257
 20 -191 l 257
 -574 -191 l 257
-156 -53 m 257
 -156 -391 l 257
 44 -391 l 257
 44 -53 l 257
 -156 -53 l 257
EndSplineSet
PickledDataWithLists: "(dp0
."
EndChar

StartChar: uni0957
Encoding: 430 2391 482
GlifName: uueM_atra-deva
Width: 1024
VWidth: 0
GlyphClass: 4
Flags: W
LayerCount: 2
Fore
SplineSet
-9 1553 m 257
 -9 1353 l 257
 1026 1353 l 257
 1026 1553 l 257
 -9 1553 l 257
-620 1 m 257
 -619 -236 l 257
 -549 -236 l 257
 -550 1 l 257
 -620 1 l 257
-574 -175 m 257
 -574 -235 l 257
 20 -235 l 257
 20 -175 l 257
 -574 -175 l 257
-15 1 m 257
 -15 -236 l 257
 44 -236 l 257
 44 1 l 257
 -15 1 l 257
-620 -394 m 257
 -619 -639 l 257
 -549 -639 l 257
 -550 -394 l 257
 -620 -394 l 257
-574 -578 m 257
 -574 -638 l 257
 20 -638 l 257
 20 -578 l 257
 -574 -578 l 257
-15 -394 m 257
 -15 -641 l 257
 44 -641 l 257
 44 -394 l 257
 -15 -394 l 257
EndSplineSet
PickledDataWithLists: "(dp0
."
EndChar

StartChar: uni0958
Encoding: 431 2392 483
GlifName: uni0958
Width: 1024
VWidth: 0
GlyphClass: 2
Flags: W
LayerCount: 2
Fore
SplineSet
0 1547 m 257
 0 1347 l 257
 1016 1347 l 257
 1016 1547 l 257
 0 1547 l 257
522 1516 m 257
 522 10 l 257
 722 10 l 257
 722 1516 l 257
 522 1516 l 257
132 1029 m 257
 132 828 l 257
 614 828 l 257
 614 1029 l 257
 132 1029 l 257
135 989 m 257
 135 443 l 257
 333 443 l 257
 333 989 l 257
 135 989 l 257
150 643 m 257
 150 439 l 257
 576 439 l 257
 576 643 l 257
 150 643 l 257
628 874 m 257
 628 675 l 257
 934 675 l 257
 934 874 l 257
 628 874 l 257
785 879 m 257
 785 587 l 257
 984 587 l 257
 984 879 l 257
 785 879 l 257
401.5 -54 m 257
 403.5 -301 l 257
 668.5 -301 l 257
 666.5 -54 l 257
 401.5 -54 l 257
EndSplineSet
Ligature2: "nuktNuktaFormsinDevanagarilookup0 subtable" uni0915 uni093C
EndChar

StartChar: uni0959
Encoding: 432 2393 485
GlifName: uni0959
Width: 1024
VWidth: 0
GlyphClass: 2
Flags: W
LayerCount: 2
Fore
SplineSet
-7 1549 m 257
 -7 1349 l 257
 1023 1349 l 257
 1023 1549 l 257
 -7 1549 l 257
690 1514 m 257
 690 0 l 257
 890 0 l 257
 890 1514 l 257
 690 1514 l 257
429 979 m 257
 429 779 l 257
 657 779 l 257
 657 979 l 257
 429 979 l 257
399 979 m 257
 399 457 l 257
 599 457 l 257
 599 979 l 257
 399 979 l 257
399 568 m 257
 399 368 l 257
 742 368 l 257
 742 568 l 257
 399 568 l 257
114 1441 m 257
 114 120 l 257
 314 120 l 257
 314 1441 l 257
 114 1441 l 257
9 734 m 257
 9 534 l 257
 313 534 l 257
 313 734 l 257
 9 734 l 257
113 270 m 257
 113 70 l 257
 827 70 l 257
 827 270 l 257
 113 270 l 257
401.5 -54 m 257
 403.5 -301 l 257
 668.5 -301 l 257
 666.5 -54 l 257
 401.5 -54 l 257
EndSplineSet
Ligature2: "nuktNuktaFormsinDevanagarilookup0 subtable" uni0916 uni093C
EndChar

StartChar: uni095A
Encoding: 433 2394 487
GlifName: uni095A_
Width: 1024
VWidth: 0
GlyphClass: 2
Flags: W
LayerCount: 2
Fore
SplineSet
102 853 m 257
 301 853 l 257
 301 1044 l 257
 102 1044 l 257
 102 853 l 257
102 882 m 257
 102 683 l 257
 578 683 l 257
 578 882 l 257
 102 882 l 257
379 1548 m 257
 379 812 l 257
 578 812 l 257
 578 1548 l 257
 379 1548 l 257
1012 1548 m 257
 261 1548 l 257
 261 1348 l 257
 1012 1348 l 257
 1012 1548 l 257
732 1523 m 257
 732 0 l 257
 931 0 l 257
 931 1523 l 257
 732 1523 l 257
401.5 -54 m 257
 403.5 -301 l 257
 668.5 -301 l 257
 666.5 -54 l 257
 401.5 -54 l 257
EndSplineSet
Ligature2: "nuktNuktaFormsinDevanagarilookup0 subtable" uni0917 uni093C
EndChar

StartChar: uni095B
Encoding: 434 2395 489
GlifName: uni095B_
Width: 1024
VWidth: 0
GlyphClass: 2
Flags: W
LayerCount: 2
Fore
SplineSet
-34 1551 m 257
 -34 1350 l 257
 1024 1350 l 257
 1024 1551 l 257
 -34 1551 l 257
678 1551 m 257
 678 -12 l 257
 877 -12 l 257
 877 1551 l 257
 678 1551 l 257
397 860 m 257
 397 663 l 257
 811 663 l 257
 811 860 l 257
 397 860 l 257
351 860 m 257
 351 413 l 257
 551 413 l 257
 551 860 l 257
 351 860 l 257
41 567 m 257
 41 367 l 257
 551 367 l 257
 551 567 l 257
 41 567 l 257
41 727 m 257
 41 509 l 257
 241 509 l 257
 241 727 l 257
 41 727 l 257
401.5 -54 m 257
 403.5 -301 l 257
 668.5 -301 l 257
 666.5 -54 l 257
 401.5 -54 l 257
EndSplineSet
Ligature2: "nuktNuktaFormsinDevanagarilookup0 subtable" uni091C uni093C
EndChar

StartChar: uni095C
Encoding: 435 2396 491
GlifName: uni095C_
Width: 1024
VWidth: 0
GlyphClass: 2
Flags: W
LayerCount: 2
Fore
SplineSet
2 1549 m 257
 2 1345 l 257
 1029 1345 l 257
 1029 1549 l 257
 2 1549 l 257
384 1545 m 257
 384 1014 l 257
 583 1014 l 257
 583 1545 l 257
 384 1545 l 257
384 1025 m 257
 384 815 l 257
 927 815 l 257
 927 1025 l 257
 384 1025 l 257
754 1025 m 257
 754 5 l 257
 953 5 l 257
 953 1025 l 257
 754 1025 l 257
62 200 m 257
 62 0 l 257
 953 0 l 257
 953 200 l 257
 62 200 l 257
62 331 m 257
 62 5 l 257
 262 5 l 257
 262 331 l 257
 62 331 l 257
401.5 -54 m 257
 403.5 -301 l 257
 668.5 -301 l 257
 666.5 -54 l 257
 401.5 -54 l 257
EndSplineSet
Ligature2: "nuktNuktaFormsinDevanagarilookup0 subtable" uni0921 uni093C
EndChar

StartChar: uni095D
Encoding: 436 2397 493
GlifName: uni095D_
Width: 1024
VWidth: 0
GlyphClass: 2
Flags: W
LayerCount: 2
Fore
SplineSet
10 1549 m 257
 10 1348 l 257
 1024 1348 l 257
 1024 1549 l 257
 10 1549 l 257
569 1528 m 257
 569 988 l 257
 769 988 l 257
 769 1528 l 257
 569 1528 l 257
769 1023 m 257
 120 1023 l 257
 120 822 l 257
 769 822 l 257
 769 1023 l 257
99 1024 m 257
 99 5 l 257
 299 5 l 257
 299 1024 l 257
 99 1024 l 257
99 201 m 257
 99 0 l 257
 812 0 l 257
 812 201 l 257
 99 201 l 257
613 544 m 257
 613 -2 l 257
 814 -2 l 257
 814 544 l 257
 613 544 l 257
560 547 m 257
 560 347 l 257
 812 347 l 257
 812 547 l 257
 560 547 l 257
365.5 -58 m 257
 367.5 -305 l 257
 632.5 -305 l 257
 630.5 -58 l 257
 365.5 -58 l 257
EndSplineSet
Ligature2: "nuktNuktaFormsinDevanagarilookup0 subtable" uni0922 uni093C
EndChar

StartChar: uni095E
Encoding: 437 2398 495
GlifName: uni095E_
Width: 1024
VWidth: 0
GlyphClass: 2
Flags: W
LayerCount: 2
Fore
SplineSet
-30 1549 m 257
 -30 1349 l 257
 1031 1349 l 257
 1031 1549 l 257
 -30 1549 l 257
513 1539 m 257
 513 2 l 257
 713 2 l 257
 713 1539 l 257
 513 1539 l 257
94 1551 m 257
 94 837 l 257
 295 837 l 257
 295 1551 l 257
 94 1551 l 257
94 1024 m 257
 94 824 l 257
 971 824 l 257
 971 1024 l 257
 94 1024 l 257
781 1024 m 257
 781 686 l 257
 980 686 l 257
 980 1024 l 257
 781 1024 l 257
197.5 6 m 257
 199.5 -241 l 257
 464.5 -241 l 257
 462.5 6 l 257
 197.5 6 l 257
EndSplineSet
Ligature2: "nuktNuktaFormsinDevanagarilookup0 subtable" uni092B uni093C
EndChar

StartChar: uni095F
Encoding: 438 2399 497
GlifName: uni095F_
Width: 1024
VWidth: 0
GlyphClass: 2
Flags: W
LayerCount: 2
Fore
SplineSet
-18 1550 m 257
 -18 1351 l 257
 1023 1351 l 257
 1023 1550 l 257
 -18 1550 l 257
688 1531 m 257
 688 0 l 257
 889 0 l 257
 889 1531 l 257
 688 1531 l 257
125 1484 m 257
 318 847 l 257
 528 846 l 257
 319 1536 l 257
 125 1484 l 257
318 847 m 257
 127 472 l 257
 290 405 l 257
 528 846 l 257
 318 847 l 257
213 640 m 257
 128 472 l 257
 741 199 l 257
 818 372 l 257
 213 640 l 257
401.5 -54 m 257
 403.5 -301 l 257
 668.5 -301 l 257
 666.5 -54 l 257
 401.5 -54 l 257
EndSplineSet
Ligature2: "nuktNuktaFormsinDevanagarilookup0 subtable" uni092F uni093C
EndChar

StartChar: uni0960
Encoding: 439 2400 499
GlifName: uni0960
Width: 1024
VWidth: 0
GlyphClass: 2
Flags: W
LayerCount: 2
Fore
SplineSet
8 1546 m 257
 8 1347 l 257
 1022 1347 l 257
 1022 1546 l 257
 8 1546 l 257
508 1530 m 257
 508 -3 l 257
 707 -3 l 257
 723 1529 l 257
 508 1530 l 257
22 1044 m 257
 22 845 l 257
 326 845 l 257
 326 1044 l 257
 22 1044 l 257
511 496 m 257
 118 329 l 257
 200 136 l 257
 593 303 l 257
 511 496 l 257
326 1044 m 257
 326 846 l 257
 608 742 l 257
 608 944 l 257
 326 1044 l 257
695 897 m 257
 695 699 l 257
 1010 699 l 257
 1010 897 l 257
 695 897 l 257
788 897 m 257
 788 158 l 257
 987 158 l 257
 987 897 l 257
 788 897 l 257
864 358 m 257
 864 158 l 257
 1028 158 l 257
 1028 358 l 257
 864 358 l 257
854 637 m 257
 854 437 l 257
 1018 437 l 257
 1018 637 l 257
 854 637 l 257
EndSplineSet
EndChar

StartChar: uni0961
Encoding: 440 2401 500
GlifName: uni0961
Width: 1024
VWidth: 0
GlyphClass: 2
Flags: W
LayerCount: 2
Fore
SplineSet
-16 1551 m 257
 -16 1352 l 257
 1023 1352 l 257
 1023 1551 l 257
 -16 1551 l 257
557 1551 m 257
 557 689 l 257
 757 689 l 257
 757 1551 l 257
 557 1551 l 257
956 791 m 257
 42 791 l 257
 42 590 l 257
 956 590 l 257
 956 791 l 257
42 777 m 257
 42 252 l 257
 243 252 l 257
 243 777 l 257
 42 777 l 257
393 791 m 257
 393 433 l 257
 594 433 l 257
 594 791 l 257
 393 791 l 257
745 792 m 257
 745 73 l 257
 945 73 l 257
 945 792 l 257
 745 792 l 257
820 259 m 257
 820 71 l 257
 1021 71 l 257
 1021 259 l 257
 820 259 l 257
820 509 m 257
 820 321 l 257
 1021 321 l 257
 1021 509 l 257
 820 509 l 257
EndSplineSet
EndChar

StartChar: uni0962
Encoding: 441 2402 501
GlifName: uni0962
Width: 1024
VWidth: 0
GlyphClass: 4
Flags: W
LayerCount: 2
Fore
SplineSet
-7 1551 m 257
 -7 1351 l 257
 1032 1351 l 257
 1032 1551 l 257
 -7 1551 l 257
119 -16 m 257
 -798 -16 l 257
 -798 -216 l 257
 119 -216 l 257
 119 -16 l 257
-795 -30 m 257
 -795 -555 l 257
 -595 -555 l 257
 -595 -30 l 257
 -795 -30 l 257
-443 -16 m 257
 -443 -374 l 257
 -243 -374 l 257
 -243 -16 l 257
 -443 -16 l 257
-92 -15 m 257
 -92 -503 l 257
 108 -503 l 257
 108 -15 l 257
 -92 -15 l 257
79 -303 m 257
 78 -503 l 257
 170 -503 l 257
 171 -303 l 257
 79 -303 l 257
EndSplineSet
PickledDataWithLists: "(dp0
."
EndChar

StartChar: uni0963
Encoding: 442 2403 502
GlifName: uni0963
Width: 1024
VWidth: 0
GlyphClass: 4
Flags: W
LayerCount: 2
Fore
SplineSet
-7 1551 m 257
 -7 1351 l 257
 1032 1351 l 257
 1032 1551 l 257
 -7 1551 l 257
100 -16 m 257
 -798 -16 l 257
 -798 -217 l 257
 100 -217 l 257
 100 -16 l 257
-795 -30 m 257
 -795 -555 l 257
 -596 -555 l 257
 -596 -30 l 257
 -795 -30 l 257
-443 -16 m 257
 -443 -374 l 257
 -242 -374 l 257
 -242 -16 l 257
 -443 -16 l 257
-93 -15 m 257
 -93 -734 l 257
 108 -734 l 257
 108 -15 l 257
 -93 -15 l 257
78 -534 m 257
 78 -734 l 257
 170 -734 l 257
 170 -534 l 257
 78 -534 l 257
78 -238 m 257
 78 -438 l 257
 170 -438 l 257
 170 -238 l 257
 78 -238 l 257
EndSplineSet
PickledDataWithLists: "(dp0
."
EndChar

StartChar: uni0964
Encoding: 443 2404 503
GlifName: uni0964
Width: 1024
VWidth: 0
GlyphClass: 2
Flags: W
LayerCount: 2
Fore
SplineSet
413 1027 m 257
 413 -79 l 257
 612 -79 l 257
 612 1027 l 257
 413 1027 l 257
EndSplineSet
PickledDataWithLists: "(dp0
."
EndChar

StartChar: uni0965
Encoding: 444 2405 504
GlifName: uni0965
Width: 1024
VWidth: 0
GlyphClass: 2
Flags: W
LayerCount: 2
Fore
SplineSet
262 1027 m 257
 262 -79 l 257
 461 -79 l 257
 461 1027 l 257
 262 1027 l 257
562 1027 m 257
 562 -79 l 257
 761 -79 l 257
 761 1027 l 257
 562 1027 l 257
EndSplineSet
PickledDataWithLists: "(dp0
."
EndChar

StartChar: uni0966
Encoding: 445 2406 505
GlifName: uni0966
Width: 1024
VWidth: 0
GlyphClass: 2
Flags: W
LayerCount: 2
Fore
SplineSet
119 994 m 257
 119 336 l 257
 319 336 l 257
 319 994 l 257
 119 994 l 257
119 1024 m 257
 119 823 l 257
 867 823 l 257
 867 1024 l 257
 119 1024 l 257
668 1023 m 257
 668 341 l 257
 869 341 l 257
 869 1023 l 257
 668 1023 l 257
119 488 m 257
 119 288 l 257
 869 288 l 257
 869 488 l 257
 119 488 l 257
EndSplineSet
PickledDataWithLists: "(dp0
."
EndChar

StartChar: uni0967
Encoding: 446 2407 506
GlifName: uni0967
Width: 1024
VWidth: 0
GlyphClass: 2
Flags: W
LayerCount: 2
Fore
SplineSet
227 1279 m 257
 227 748 l 257
 428 748 l 257
 428 1279 l 257
 227 1279 l 257
298 1279 m 257
 298 1078 l 257
 841 1078 l 257
 841 1279 l 257
 298 1279 l 257
687 1279 m 257
 687 -29 l 257
 887 -29 l 257
 887 1279 l 257
 687 1279 l 257
274 948 m 257
 274 749 l 257
 821 749 l 257
 821 948 l 257
 274 948 l 257
EndSplineSet
PickledDataWithLists: "(dp0
."
EndChar

StartChar: uni0968
Encoding: 447 2408 507
GlifName: uni0968
Width: 1024
VWidth: 0
GlyphClass: 2
Flags: W
LayerCount: 2
Fore
SplineSet
177 1275 m 257
 177 1076 l 257
 817 1076 l 257
 817 1275 l 257
 177 1275 l 257
669 1274 m 257
 669 497 l 257
 869 497 l 257
 869 1274 l 257
 669 1274 l 257
224 687 m 257
 224 488 l 257
 869 488 l 257
 869 687 l 257
 224 687 l 257
221 486 m 257
 777 4 l 257
 972 68 l 257
 359 583 l 257
 221 486 l 257
172 1275 m 257
 172 913 l 257
 372 913 l 257
 372 1275 l 257
 172 1275 l 257
EndSplineSet
PickledDataWithLists: "(dp0
."
EndChar

StartChar: uni0969
Encoding: 448 2409 508
GlifName: uni0969
Width: 1024
VWidth: 0
GlyphClass: 2
Flags: W
LayerCount: 2
Fore
SplineSet
315 1258 m 257
 315 1057 l 257
 792 1057 l 257
 792 1258 l 257
 315 1258 l 257
591 1247 m 257
 591 311 l 257
 792 311 l 257
 792 1247 l 257
 591 1247 l 257
355 863 m 257
 355 664 l 257
 789 664 l 257
 789 863 l 257
 355 863 l 257
333 495 m 257
 333 295 l 257
 792 295 l 257
 792 495 l 257
 333 495 l 257
333 295 m 257
 412 -107 l 257
 608 -67 l 257
 527 336 l 257
 333 295 l 257
EndSplineSet
PickledDataWithLists: "(dp0
."
EndChar

StartChar: uni096A
Encoding: 449 2410 509
GlifName: uni096A_
Width: 1024
VWidth: 0
GlyphClass: 2
Flags: W
LayerCount: 2
Fore
SplineSet
736 970 m 257
 158 317 l 257
 358 317 l 257
 935 970 l 257
 736 970 l 257
161 963 m 257
 717 317 l 257
 916 316 l 257
 359 963 l 257
 161 963 l 257
158 227 m 257
 158 28 l 257
 917 28 l 257
 917 230 l 257
 158 227 l 257
158 317 m 257
 158 95 l 257
 358 95 l 257
 358 317 l 257
 158 317 l 257
717 317 m 257
 717 95 l 257
 917 95 l 257
 917 317 l 257
 717 317 l 257
161 1169 m 257
 161 963 l 257
 362 963 l 257
 362 1169 l 257
 161 1169 l 257
735 1171 m 257
 735 970 l 257
 935 970 l 257
 935 1171 l 257
 735 1171 l 257
EndSplineSet
PickledDataWithLists: "(dp0
."
EndChar

StartChar: uni096B
Encoding: 450 2411 510
GlifName: uni096B_
Width: 1024
VWidth: 0
GlyphClass: 2
Flags: W
LayerCount: 2
Fore
SplineSet
123 1285 m 257
 123 524 l 257
 322 524 l 257
 322 1285 l 257
 123 1285 l 257
121 670 m 257
 121 471 l 257
 767 471 l 257
 767 670 l 257
 121 670 l 257
699 911 m 257
 706 -8 l 257
 906 -6 l 257
 899 912 l 257
 699 911 l 257
449 162 m 257
 449 -39 l 257
 902 -39 l 257
 902 162 l 257
 449 162 l 257
EndSplineSet
PickledDataWithLists: "(dp0
."
EndChar

StartChar: uni096C
Encoding: 451 2412 511
GlifName: uni096C_
Width: 1024
VWidth: 0
GlyphClass: 2
Flags: W
LayerCount: 2
Fore
SplineSet
146 1264 m 257
 146 1065 l 257
 776 1065 l 257
 776 1264 l 257
 146 1264 l 257
89 1269 m 257
 89 136 l 257
 289 136 l 257
 289 1269 l 257
 89 1269 l 257
124 795 m 257
 124 595 l 257
 766 595 l 257
 766 795 l 257
 124 795 l 257
159 335 m 257
 159 135 l 257
 856 135 l 257
 856 335 l 257
 159 335 l 257
656 397 m 257
 656 -96 l 257
 856 -96 l 257
 856 397 l 257
 656 397 l 257
EndSplineSet
PickledDataWithLists: "(dp0
."
EndChar

StartChar: uni096D
Encoding: 452 2413 512
GlifName: uni096D_
Width: 1024
VWidth: 0
GlyphClass: 2
Flags: W
LayerCount: 2
Fore
SplineSet
59 1168 m 257
 59 230 l 257
 257 230 l 257
 257 1168 l 257
 59 1168 l 257
59 315 m 257
 59 116 l 257
 926 116 l 257
 926 315 l 257
 59 315 l 257
774 1073 m 257
 774 116 l 257
 976 116 l 257
 976 1073 l 257
 774 1073 l 257
933 1073 m 257
 505 1073 l 257
 505 871 l 257
 933 871 l 257
 933 1073 l 257
471 1073 m 257
 470 708 l 257
 668 708 l 257
 669 1073 l 257
 471 1073 l 257
EndSplineSet
PickledDataWithLists: "(dp0
."
EndChar

StartChar: uni096E
Encoding: 453 2414 513
GlifName: uni096E_
Width: 1024
VWidth: 0
GlyphClass: 2
Flags: HW
LayerCount: 2
Fore
SplineSet
118.5 47.5 m 257
 319.5 47.5 l 257
 319.5 495.5 l 257
 118.5 495.5 l 257
 118.5 47.5 l 257
119 246 m 257
 119 45 l 257
 907 45 l 257
 907 246 l 257
 119 246 l 257
636 1232 m 257
 119 501 l 257
 299 413 l 257
 816 1144 l 257
 636 1232 l 257
EndSplineSet
PickledDataWithLists: "(dp0
."
EndChar

StartChar: uni096F
Encoding: 454 2415 514
GlifName: uni096F_
Width: 1024
VWidth: 0
GlyphClass: 2
Flags: W
LayerCount: 2
Fore
SplineSet
321 804 m 257
 321 606 l 257
 814 606 l 257
 814 804 l 257
 321 804 l 257
654 607 m 257
 853 607 l 257
 853 1209 l 257
 654 1209 l 257
 654 607 l 257
226 1265 m 257
 226 1066 l 257
 853 1066 l 257
 853 1265 l 257
 226 1265 l 257
230 1261 m 257
 230 490 l 257
 429 490 l 257
 429 1261 l 257
 230 1261 l 257
230 493 m 257
 637 -36 l 257
 805 71 l 257
 397 601 l 257
 230 493 l 257
EndSplineSet
PickledDataWithLists: "(dp0
."
EndChar

StartChar: uni0970
Encoding: 455 2416 515
GlifName: uni0970
Width: 1024
VWidth: 0
GlyphClass: 2
Flags: W
HStem: 587 370
VStem: 1816 398
LayerCount: 2
Fore
SplineSet
311.75 507.75 m 257
 314.75 137.25 l 257
 712.25 137.25 l 257
 709.25 507.75 l 257
 311.75 507.75 l 257
EndSplineSet
PickledDataWithLists: "(dp0
Vcom.fontlab.hintData
p1
(dp2
Vhhints
p3
(lp4
(dp5
Vposition
p6
I587
sVwidth
p7
I370
sasVvhints
p8
(lp9
(dp10
g6
I1816
sg7
I398
sass."
EndChar

StartChar: uni0971
Encoding: 456 2417 516
GlifName: uni0971
Width: 1024
VWidth: 0
GlyphClass: 2
Flags: W
HStem: 999 247
VStem: 1181 265
LayerCount: 2
Fore
SplineSet
378.5 946 m 257
 380.5 699 l 257
 645.5 699 l 257
 643.5 946 l 257
 378.5 946 l 257
EndSplineSet
PickledDataWithLists: "(dp0
Vcom.fontlab.hintData
p1
(dp2
Vhhints
p3
(lp4
(dp5
Vposition
p6
I999
sVwidth
p7
I247
sasVvhints
p8
(lp9
(dp10
g6
I1181
sg7
I265
sass."
EndChar

StartChar: uni0972
Encoding: 457 2418 517
GlifName: uni0972
Width: 1024
VWidth: 0
GlyphClass: 2
Flags: W
LayerCount: 2
Fore
SplineSet
716 1548 m 257
 716 1348 l 257
 1027 1348 l 257
 1027 1548 l 257
 716 1548 l 257
777 1419 m 257
 777 1 l 257
 976 1 l 257
 976 1419 l 257
 777 1419 l 257
50 1547 m 257
 50 1348 l 257
 573 1348 l 257
 573 1547 l 257
 50 1547 l 257
399 1548 m 257
 399 140 l 257
 599 140 l 257
 599 1548 l 257
 399 1548 l 257
134 894 m 257
 134 693 l 257
 831 693 l 257
 831 894 l 257
 134 894 l 257
25 201 m 257
 25 1 l 257
 599 1 l 257
 599 201 l 257
 25 201 l 257
349 1970 m 257
 349 1629 l 257
 548 1629 l 257
 548 1970 l 257
 349 1970 l 257
395 1827 m 257
 395 1628 l 257
 989 1628 l 257
 989 1827 l 257
 395 1827 l 257
814 1970 m 257
 814 1628 l 257
 1013 1628 l 257
 1013 1970 l 257
 814 1970 l 257
EndSplineSet
EndChar

StartChar: uni0973
Encoding: 458 2419 518
GlifName: uni0973
Width: 1024
VWidth: 0
GlyphClass: 2
Flags: W
LayerCount: 2
Fore
SplineSet
716 1548 m 257
 716 1348 l 257
 1027 1348 l 257
 1027 1548 l 257
 716 1548 l 257
777 1419 m 257
 777 1 l 257
 976 1 l 257
 976 1419 l 257
 777 1419 l 257
50 1547 m 257
 50 1348 l 257
 573 1348 l 257
 573 1547 l 257
 50 1547 l 257
399 1548 m 257
 399 140 l 257
 599 140 l 257
 599 1548 l 257
 399 1548 l 257
134 894 m 257
 134 693 l 257
 831 693 l 257
 831 894 l 257
 134 894 l 257
25 201 m 257
 25 1 l 257
 599 1 l 257
 599 201 l 257
 25 201 l 257
782 1933 m 257
 782 1510 l 257
 954 1510 l 257
 954 1933 l 257
 782 1933 l 257
EndSplineSet
EndChar

StartChar: uni0974
Encoding: 459 2420 519
GlifName: uni0974
Width: 1024
VWidth: 0
GlyphClass: 2
Flags: W
LayerCount: 2
Fore
SplineSet
522 1548 m 257
 522 1348 l 257
 1027 1348 l 257
 1027 1548 l 257
 522 1548 l 257
521 1419 m 257
 521 1 l 257
 720 1 l 257
 720 1419 l 257
 521 1419 l 257
50 1547 m 257
 50 1348 l 257
 389 1348 l 257
 389 1547 l 257
 50 1547 l 257
215 1548 m 257
 215 140 l 257
 415 140 l 257
 415 1548 l 257
 215 1548 l 257
86 894 m 257
 86 693 l 257
 647 693 l 257
 647 894 l 257
 86 894 l 257
25 201 m 257
 25 1 l 257
 415 1 l 257
 415 201 l 257
 25 201 l 257
784 1819 m 257
 784 4 l 257
 984 4 l 257
 984 1819 l 257
 784 1819 l 257
EndSplineSet
EndChar

StartChar: uni0975
Encoding: 460 2421 520
GlifName: uni0975
Width: 1024
VWidth: 0
GlyphClass: 2
Flags: W
LayerCount: 2
Fore
SplineSet
528 1543 m 257
 528 1343 l 257
 1016 1343 l 257
 1016 1543 l 257
 528 1543 l 257
549 1860 m 257
 549 1 l 257
 748 1 l 257
 748 1860 l 257
 549 1860 l 257
25 1548 m 257
 25 1348 l 257
 385 1348 l 257
 385 1548 l 257
 25 1548 l 257
211 1548 m 257
 211 140 l 257
 411 140 l 257
 411 1548 l 257
 211 1548 l 257
109 894 m 257
 109 693 l 257
 643 693 l 257
 643 894 l 257
 109 894 l 257
0 201 m 257
 0 1 l 257
 411 1 l 257
 411 201 l 257
 0 201 l 257
811 1420 m 257
 811 2 l 257
 1010 2 l 257
 1010 1420 l 257
 811 1420 l 257
32 2062 m 257
 32 1823 l 257
 231 1823 l 257
 231 2062 l 257
 32 2062 l 257
31 1866 m 257
 31 1666 l 257
 714 1666 l 257
 714 1866 l 257
 31 1866 l 257
579 2450 m 257
 398 2104 l 257
 553 2029 l 257
 743 2355 l 257
 579 2450 l 257
540 2283 m 257
 428 2089 l 257
 970 1816 l 257
 1093 1987 l 257
 540 2283 l 257
1092 1986 m 257
 761 1530 l 257
 1040 1528 l 257
 1264 1879 l 257
 1092 1986 l 257
EndSplineSet
EndChar

StartChar: uni0976
Encoding: 461 2422 521
GlifName: uni0976
Width: 1024
VWidth: 0
GlyphClass: 2
Flags: W
LayerCount: 2
Fore
SplineSet
716 1548 m 257
 716 1348 l 257
 1027 1348 l 257
 1027 1548 l 257
 716 1548 l 257
777 1419 m 257
 777 1 l 257
 976 1 l 257
 976 1419 l 257
 777 1419 l 257
50 1547 m 257
 50 1348 l 257
 573 1348 l 257
 573 1547 l 257
 50 1547 l 257
399 1548 m 257
 399 140 l 257
 599 140 l 257
 599 1548 l 257
 399 1548 l 257
134 894 m 257
 134 693 l 257
 831 693 l 257
 831 894 l 257
 134 894 l 257
25 201 m 257
 25 1 l 257
 599 1 l 257
 599 201 l 257
 25 201 l 257
75 -58 m 257
 78 -391 l 257
 277 -391 l 257
 274 -58 l 257
 75 -58 l 257
267 -191 m 257
 267 -390 l 257
 861 -390 l 257
 861 -191 l 257
 267 -191 l 257
685 -53 m 257
 685 -391 l 257
 885 -391 l 257
 885 -53 l 257
 685 -53 l 257
EndSplineSet
EndChar

StartChar: uni0977
Encoding: 462 2423 522
GlifName: uni0977
Width: 1024
VWidth: 0
GlyphClass: 2
Flags: W
LayerCount: 2
Fore
SplineSet
716 1548 m 257
 716 1348 l 257
 1027 1348 l 257
 1027 1548 l 257
 716 1548 l 257
777 1419 m 257
 784 -1 l 257
 976 1 l 257
 976 1419 l 257
 777 1419 l 257
50 1547 m 257
 50 1348 l 257
 573 1348 l 257
 573 1547 l 257
 50 1547 l 257
399 1548 m 257
 399 140 l 257
 599 140 l 257
 599 1548 l 257
 399 1548 l 257
134 894 m 257
 134 693 l 257
 831 693 l 257
 831 894 l 257
 134 894 l 257
25 201 m 257
 25 1 l 257
 599 1 l 257
 599 201 l 257
 25 201 l 257
181 -40 m 257
 182 -277 l 257
 252 -277 l 257
 251 -40 l 257
 181 -40 l 257
227 -216 m 257
 227 -276 l 257
 821 -276 l 257
 821 -216 l 257
 227 -216 l 257
786 -40 m 257
 786 -277 l 257
 845 -277 l 257
 845 -40 l 257
 786 -40 l 257
181 -394 m 257
 182 -639 l 257
 252 -639 l 257
 251 -394 l 257
 181 -394 l 257
227 -578 m 257
 227 -638 l 257
 821 -638 l 257
 821 -578 l 257
 227 -578 l 257
786 -394 m 257
 786 -641 l 257
 845 -641 l 257
 845 -394 l 257
 786 -394 l 257
EndSplineSet
EndChar

StartChar: uni0978
Encoding: 463 2424 523
GlifName: uni0978
Width: 1024
VWidth: 0
GlyphClass: 2
Flags: W
LayerCount: 2
Fore
SplineSet
7 1550 m 257
 7 1350 l 257
 1022 1350 l 257
 1022 1550 l 257
 7 1550 l 257
135 1509 m 257
 135 737 l 257
 335 737 l 257
 335 1509 l 257
 135 1509 l 257
759 1023 m 257
 61 1023 l 257
 61 824 l 257
 759 824 l 257
 759 1023 l 257
689 1023 m 257
 689 246 l 257
 889 246 l 257
 889 1023 l 257
 689 1023 l 257
EndSplineSet
EndChar

StartChar: uni0979
Encoding: 464 2425 524
GlifName: uni0979
Width: 1024
VWidth: 0
GlyphClass: 2
Flags: W
LayerCount: 2
Fore
SplineSet
-34 1551 m 257
 -34 1350 l 257
 1024 1350 l 257
 1024 1551 l 257
 -34 1551 l 257
678 1551 m 257
 678 -12 l 257
 877 -12 l 257
 877 1551 l 257
 678 1551 l 257
397 860 m 257
 397 663 l 257
 811 663 l 257
 811 860 l 257
 397 860 l 257
351 860 m 257
 351 413 l 257
 551 413 l 257
 551 860 l 257
 351 860 l 257
41 567 m 257
 41 367 l 257
 551 367 l 257
 551 567 l 257
 41 567 l 257
41 727 m 257
 41 509 l 257
 241 509 l 257
 241 727 l 257
 41 727 l 257
477 281 m 257
 478 116 l 257
 638 116 l 257
 637 281 l 257
 477 281 l 257
123 281 m 257
 124 116 l 257
 284 116 l 257
 283 281 l 257
 123 281 l 257
311 54 m 257
 312 -111 l 257
 472 -111 l 257
 471 54 l 257
 311 54 l 257
EndSplineSet
EndChar

StartChar: uni097A
Encoding: 465 2426 525
GlifName: uni097A_
Width: 1024
VWidth: 0
GlyphClass: 2
Flags: W
LayerCount: 2
Fore
SplineSet
-18 1550 m 257
 -18 1351 l 257
 1023 1351 l 257
 1023 1550 l 257
 -18 1550 l 257
688 1531 m 257
 688 0 l 257
 889 0 l 257
 889 1531 l 257
 688 1531 l 257
125 1484 m 257
 318 847 l 257
 528 846 l 257
 319 1536 l 257
 125 1484 l 257
318 847 m 257
 127 472 l 257
 290 405 l 257
 528 846 l 257
 318 847 l 257
213 640 m 257
 128 472 l 257
 741 199 l 257
 818 372 l 257
 213 640 l 257
347 1271 m 257
 271 1153 l 257
 735 465 l 257
 812 629 l 257
 347 1271 l 257
EndSplineSet
EndChar

StartChar: uni097B
Encoding: 466 2427 526
GlifName: uni097B_
Width: 1024
VWidth: 0
GlyphClass: 2
Flags: W
HStem: 683 361<102 301 102 578 102 578> 812 70<379 578> 853 29<102 301 301 301> 1348 200<261 1012 261 1012> 1348 175<732 732 732 931>
VStem: 102 199<853 882 683 1044 853 1044 853 1044> 379 199<812 882 882 1548 812 812> 732 199<0 1523 0 1523>
LayerCount: 2
Fore
SplineSet
102 853 m 257
 301 853 l 257
 301 1044 l 257
 102 1044 l 257
 102 853 l 257
102 882 m 257
 102 683 l 257
 578 683 l 257
 578 882 l 257
 102 882 l 257
379 1548 m 257
 379 812 l 257
 578 812 l 257
 578 1548 l 257
 379 1548 l 257
1012 1548 m 257
 261 1548 l 257
 261 1348 l 257
 1012 1348 l 257
 1012 1548 l 257
732 1523 m 257
 732 0 l 257
 931 0 l 257
 931 1523 l 257
 732 1523 l 257
162 201 m 257
 162 0 l 257
 908 0 l 257
 908 201 l 257
 162 201 l 257
EndSplineSet
PickledDataWithLists: "(dp0
Vcom.fontlab.hintData
p1
(dp2
Vhhints
p3
(lp4
(dp5
Vposition
p6
I683
sVwidth
p7
I361
sa(dp8
g6
I812
sg7
I70
sa(dp9
g6
I853
sg7
I29
sa(dp10
g6
I1348
sg7
I200
sa(dp11
g6
I1348
sg7
I175
sasVvhints
p12
(lp13
(dp14
g6
I102
sg7
I199
sa(dp15
g6
I379
sg7
I199
sa(dp16
g6
I732
sg7
I199
sass."
EndChar

StartChar: uni097C
Encoding: 467 2428 527
GlifName: uni097C_
Width: 1024
VWidth: 0
GlyphClass: 2
Flags: W
LayerCount: 2
Fore
SplineSet
-34 1551 m 257
 -34 1350 l 257
 1024 1350 l 257
 1024 1551 l 257
 -34 1551 l 257
678 1551 m 257
 678 -3 l 257
 877 -3 l 257
 877 1551 l 257
 678 1551 l 257
397 860 m 257
 397 663 l 257
 811 663 l 257
 811 860 l 257
 397 860 l 257
351 860 m 257
 351 413 l 257
 551 413 l 257
 551 860 l 257
 351 860 l 257
41 567 m 257
 41 367 l 257
 551 367 l 257
 551 567 l 257
 41 567 l 257
41 727 m 257
 41 509 l 257
 241 509 l 257
 241 727 l 257
 41 727 l 257
59 197 m 257
 59 -2 l 257
 733 -2 l 257
 733 197 l 257
 59 197 l 257
EndSplineSet
EndChar

StartChar: uni097D
Encoding: 468 2429 528
GlifName: uni097D_
Width: 1024
VWidth: 0
GlyphClass: 2
Flags: W
VStem: 192 641
LayerCount: 2
Fore
SplineSet
191.5 1519 m 257
 191.5 1333 l 257
 828.5 1333 l 257
 828.5 1519 l 257
 191.5 1519 l 257
638.5 1514 m 257
 638.5 966 l 257
 832.5 966 l 257
 832.5 1514 l 257
 638.5 1514 l 257
368.5 1015 m 257
 368.5 816 l 257
 832.5 816 l 257
 832.5 1015 l 257
 368.5 1015 l 257
368.5 1011 m 257
 368.5 206 l 257
 616.5 206 l 257
 616.5 1011 l 257
 368.5 1011 l 257
EndSplineSet
PickledDataWithLists: "(dp0
Vcom.fontlab.hintData
p1
(dp2
Vvhints
p3
(lp4
(dp5
Vposition
p6
I192
sVwidth
p7
I641
sass."
EndChar

StartChar: uni097E
Encoding: 469 2430 529
GlifName: uni097E_
Width: 1024
VWidth: 0
GlyphClass: 2
Flags: W
HStem: 1014 11<384 583 583 583>
LayerCount: 2
Fore
SplineSet
2 1549 m 257
 2 1345 l 257
 1029 1345 l 257
 1029 1549 l 257
 2 1549 l 257
384 1545 m 257
 384 1014 l 257
 583 1014 l 257
 583 1545 l 257
 384 1545 l 257
384 1025 m 257
 384 815 l 257
 927 815 l 257
 927 1025 l 257
 384 1025 l 257
754 1025 m 257
 754 5 l 257
 953 5 l 257
 953 1025 l 257
 754 1025 l 257
62 200 m 257
 62 0 l 257
 953 0 l 257
 953 200 l 257
 62 200 l 257
62 331 m 257
 62 5 l 257
 262 5 l 257
 262 331 l 257
 62 331 l 257
28 -81 m 257
 28 -280 l 257
 1020 -280 l 257
 1020 -81 l 257
 28 -81 l 257
EndSplineSet
PickledDataWithLists: "(dp0
Vcom.fontlab.hintData
p1
(dp2
Vhhints
p3
(lp4
(dp5
Vposition
p6
I1014
sVwidth
p7
I11
sass."
EndChar

StartChar: uni097F
Encoding: 470 2431 530
GlifName: uni097F_
Width: 1024
VWidth: 0
GlyphClass: 2
Flags: W
LayerCount: 2
Fore
SplineSet
-1 1550 m 257
 -1 1351 l 257
 1027 1351 l 257
 1027 1550 l 257
 -1 1550 l 257
662 1437 m 257
 662 -2 l 257
 861 0 l 257
 862 1437 l 257
 662 1437 l 257
76 1021 m 257
 76 232 l 257
 276 232 l 257
 276 1021 l 257
 76 1021 l 257
77 404 m 257
 77 204 l 257
 812 204 l 257
 812 404 l 257
 77 404 l 257
101 926 m 257
 531 224 l 257
 701 328 l 257
 271 1030 l 257
 101 926 l 257
75 1037 m 257
 75 820 l 257
 613 820 l 257
 613 1037 l 257
 75 1037 l 257
79 140 m 257
 79 -60 l 257
 861 -60 l 257
 861 140 l 257
 79 140 l 257
EndSplineSet
EndChar

StartChar: uni1E9E
Encoding: 511 7838 531
GlifName: uni1E_9E_
Width: 1024
VWidth: 0
GlyphClass: 2
Flags: W
LayerCount: 2
Fore
SplineSet
82 1547 m 257
 82 -4 l 257
 288 -4 l 257
 288 1547 l 257
 82 1547 l 257
230 1548 m 257
 230 1328 l 257
 836 1328 l 257
 836 1548 l 257
 230 1548 l 257
721 1548 m 257
 721 1023 l 257
 920 1023 l 257
 920 1548 l 257
 721 1548 l 257
721 1062 m 257
 490 1062 l 257
 490 826 l 257
 721 826 l 257
 721 1062 l 257
721 848 m 257
 721 175 l 257
 921 175 l 257
 921 848 l 257
 721 848 l 257
425 251 m 257
 425 40 l 257
 917 40 l 257
 917 251 l 257
 425 251 l 257
EndSplineSet
EndChar

StartChar: uni200C
Encoding: 514 8204 532
GlifName: uni200C_
Width: 1024
VWidth: 0
GlyphClass: 2
Flags: W
LayerCount: 2
Fore
SplineSet
321 1552 m 257
 321 1440 l 257
 666 1440 l 257
 666 1552 l 257
 321 1552 l 257
431 1640 m 257
 431 -5 l 257
 521 -5 l 257
 521 1640 l 257
 431 1640 l 257
EndSplineSet
EndChar

StartChar: uni200D
Encoding: 515 8205 533
GlifName: uni200D_
Width: 1024
VWidth: 0
GlyphClass: 2
Flags: W
LayerCount: 2
Fore
SplineSet
466 1552 m 257
 466 -12 l 257
 531 -12 l 257
 531 1552 l 257
 466 1552 l 257
EndSplineSet
EndChar

StartChar: uni2044
Encoding: 531 8260 534
GlifName: uni2044
Width: 1024
VWidth: 0
GlyphClass: 2
Flags: W
LayerCount: 2
Fore
SplineSet
703 1483 m 257
 133 6 l 257
 321 -67 l 257
 891 1410 l 257
 703 1483 l 257
EndSplineSet
EndChar

StartChar: uni20B9
Encoding: 533 8377 535
GlifName: uni20B_9
Width: 1024
VWidth: 0
GlyphClass: 2
Flags: W
LayerCount: 2
Fore
SplineSet
121 1172 m 257
 121 973 l 257
 886 973 l 257
 886 1172 l 257
 121 1172 l 257
121 1549 m 257
 121 1350 l 257
 886 1350 l 257
 886 1549 l 257
 121 1549 l 257
451 1540 m 257
 451 790 l 257
 651 790 l 257
 651 1540 l 257
 451 1540 l 257
651 802 m 257
 218 802 l 257
 218 603 l 257
 651 603 l 257
 651 802 l 257
218 603 m 257
 566 -50 l 257
 739 41 l 257
 390 694 l 257
 218 603 l 257
EndSplineSet
EndChar

StartChar: uni25CC
Encoding: 536 9676 536
GlifName: uni25C_C_
Width: 1024
VWidth: 0
GlyphClass: 2
Flags: W
LayerCount: 2
Fore
SplineSet
454 1065 m 257
 454 926 l 257
 576 926 l 257
 576 1065 l 257
 454 1065 l 257
719 953 m 257
 719 814 l 257
 841 814 l 257
 841 953 l 257
 719 953 l 257
193 957 m 257
 193 818 l 257
 315 818 l 257
 315 957 l 257
 193 957 l 257
813 709 m 257
 813 570 l 257
 935 570 l 257
 935 709 l 257
 813 709 l 257
722 438 m 257
 722 299 l 257
 844 299 l 257
 844 438 l 257
 722 438 l 257
105 713 m 257
 105 574 l 257
 227 574 l 257
 227 713 l 257
 105 713 l 257
461 371 m 257
 461 232 l 257
 583 232 l 257
 583 371 l 257
 461 371 l 257
193 455 m 257
 193 316 l 257
 315 316 l 257
 315 455 l 257
 193 455 l 257
EndSplineSet
PickledDataWithLists: "(dp0
."
EndChar

StartChar: uniFB01
Encoding: 537 64257 537
GlifName: uniF_B_01
Width: 1024
VWidth: 0
GlyphClass: 3
Flags: W
LayerCount: 2
Fore
SplineSet
196 1086 m 257
 196 -348 l 257
 395 -348 l 257
 395 1086 l 257
 196 1086 l 257
197 1225 m 257
 197 1025 l 257
 779 1025 l 257
 779 1225 l 257
 197 1225 l 257
583 686 m 257
 583 52 l 257
 782 52 l 257
 782 686 l 257
 583 686 l 257
455 199 m 257
 455 1 l 257
 911 1 l 257
 911 199 l 257
 455 199 l 257
113 677 m 257
 113 478 l 257
 600 478 l 257
 600 677 l 257
 113 677 l 257
EndSplineSet
PickledDataWithLists: "(dp0
."
LCarets2: 1 32
Ligature2: "dligDiscretionaryLigatureslookup0 subtable" f i
EndChar

StartChar: uniFB02
Encoding: 538 64258 538
GlifName: uniF_B_02
Width: 1024
VWidth: 0
GlyphClass: 3
Flags: W
LayerCount: 2
Fore
SplineSet
240 1024 m 257
 240 -410 l 257
 440 -410 l 257
 440 1024 l 257
 240 1024 l 257
241 1024 m 257
 241 824 l 257
 668 824 l 257
 668 1024 l 257
 241 1024 l 257
92 601 m 257
 92 402 l 257
 571 402 l 257
 571 601 l 257
 92 601 l 257
488 205 m 257
 492 4 l 257
 984 0 l 257
 981 200 l 257
 488 205 l 257
637 1553 m 257
 637 57 l 257
 836 57 l 257
 836 1553 l 257
 637 1553 l 257
411 1553 m 257
 411 1352 l 257
 646 1352 l 257
 646 1553 l 257
 411 1553 l 257
EndSplineSet
PickledDataWithLists: "(dp0
."
LCarets2: 1 84
Ligature2: "dligDiscretionaryLigatureslookup0 subtable" f l
EndChar

StartChar: v
Encoding: 87 118 542
GlifName: v
Width: 1024
VWidth: 0
GlyphClass: 2
Flags: W
LayerCount: 2
Fore
SplineSet
181 1025 m 257
 410 1 l 257
 617 1 l 257
 380 1025 l 257
 181 1025 l 257
643 1022 m 257
 408 3 l 257
 615 3 l 257
 843 1022 l 257
 643 1022 l 257
EndSplineSet
EndChar

StartChar: w
Encoding: 88 119 543
GlifName: w
Width: 1024
VWidth: 0
GlyphClass: 2
Flags: W
LayerCount: 2
Fore
SplineSet
103 1023 m 257
 103 0 l 257
 302 0 l 257
 302 1023 l 257
 103 1023 l 257
722 1028 m 257
 722 12 l 257
 921 12 l 257
 921 1028 l 257
 722 1028 l 257
408 610 m 257
 408 1 l 257
 609 1 l 257
 609 610 l 257
 408 610 l 257
102 276 m 257
 102 0 l 257
 921 0 l 257
 921 276 l 257
 102 276 l 257
EndSplineSet
EndChar

StartChar: x
Encoding: 89 120 548
GlifName: x
Width: 1024
VWidth: 0
GlyphClass: 2
Flags: W
HStem: 1003 22
LayerCount: 2
Fore
SplineSet
91 2 m 257
 292 2 l 257
 927 1023 l 257
 728 1023 l 257
 91 2 l 257
93 1025 m 257
 735 -2 l 257
 934 -2 l 257
 295 1025 l 257
 93 1025 l 257
EndSplineSet
PickledDataWithLists: "(dp0
Vcom.fontlab.hintData
p1
(dp2
Vhhints
p3
(lp4
(dp5
Vposition
p6
I1003
sVwidth
p7
I22
sass."
EndChar

StartChar: y
Encoding: 90 121 549
GlifName: y
Width: 1024
VWidth: 0
GlyphClass: 2
Flags: W
LayerCount: 2
Fore
SplineSet
680 1023 m 257
 680 -410 l 257
 880 -410 l 257
 880 1023 l 257
 680 1023 l 257
147 -211 m 257
 147 -410 l 257
 864 -410 l 257
 864 -211 l 257
 147 -211 l 257
147 1023 m 257
 147 264 l 257
 347 264 l 257
 347 1023 l 257
 147 1023 l 257
147 464 m 257
 147 264 l 257
 765 264 l 257
 765 464 l 257
 147 464 l 257
EndSplineSet
EndChar

StartChar: yen
Encoding: 101 165 553
GlifName: yen
Width: 1024
VWidth: 0
GlyphClass: 2
Flags: W
LayerCount: 2
Fore
SplineSet
228 775 m 257
 228 615 l 257
 774 615 l 257
 774 775 l 257
 228 775 l 257
228 540 m 257
 228 380 l 257
 774 380 l 257
 774 540 l 257
 228 540 l 257
411 897 m 257
 411 -1 l 257
 613 -1 l 257
 613 897 l 257
 411 897 l 257
160 1547 m 257
 160 859 l 257
 360 859 l 257
 360 1547 l 257
 160 1547 l 257
665 1547 m 257
 665 859 l 257
 864 859 l 257
 864 1547 l 257
 665 1547 l 257
228 1019 m 257
 228 859 l 257
 774 859 l 257
 774 1019 l 257
 228 1019 l 257
EndSplineSet
EndChar

StartChar: z
Encoding: 91 122 555
GlifName: z
Width: 1024
VWidth: 0
GlyphClass: 2
Flags: W
LayerCount: 2
Fore
SplineSet
98 1027 m 257
 98 826 l 257
 926 826 l 257
 926 1027 l 257
 98 1027 l 257
98 201 m 257
 98 1 l 257
 926 1 l 257
 926 201 l 257
 98 201 l 257
634 826 m 257
 98 201 l 257
 404 201 l 257
 926 826 l 257
 634 826 l 257
EndSplineSet
EndChar

StartChar: zero
Encoding: 17 48 559
GlifName: zero
Width: 1024
VWidth: 0
GlyphClass: 2
Flags: W
HStem: 0 208 883 79 1418 223
VStem: 49 202 93 158 779 198 779 140
LayerCount: 2
Fore
SplineSet
412 908 m 257
 613 908 l 257
 613 708 l 257
 412 708 l 257
 412 908 l 257
295 1359 m 257
 730 1359 l 257
 729 208 l 257
 295 208 l 257
 295 1359 l 257
93 1559 m 257
 93 7 l 257
 930 7 l 257
 930 1559 l 257
 93 1559 l 257
EndSplineSet
PickledDataWithLists: "(dp0
Vcom.fontlab.hintData
p1
(dp2
Vhhints
p3
(lp4
(dp5
Vposition
p6
I0
sVwidth
p7
I208
sa(dp8
g6
I883
sg7
I79
sa(dp9
g6
I1418
sg7
I223
sasVvhints
p10
(lp11
(dp12
g6
I49
sg7
I202
sa(dp13
g6
I93
sg7
I158
sa(dp14
g6
I779
sg7
I198
sa(dp15
g6
I779
sg7
I140
sass."
EndChar

StartChar: uni091A_uni094D.half
Encoding: 596 -1 560
GlifName: uni091A__uni094D_.half
Width: 1024
VWidth: 0
GlyphClass: 3
Flags: W
LayerCount: 2
Fore
SplineSet
0 1556 m 257
 0 1356 l 257
 1022 1356 l 257
 1022 1556 l 257
 0 1556 l 257
1053 280 m 257
 1053 480 l 257
 296 480 l 257
 296 280 l 257
 1053 280 l 257
296 837 m 257
 296 421 l 257
 496 421 l 257
 496 837 l 257
 296 837 l 257
72 991 m 257
 72 791 l 257
 568 791 l 257
 568 991 l 257
 72 991 l 257
EndSplineSet
Ligature2: "halfHalfFormsinDevanagarilookup0 subtable" uni091A uni094D
EndChar

StartChar: uni091B_uni094D.half
Encoding: 597 -1 561
GlifName: uni091B__uni094D_.half
Width: 1024
VWidth: 0
GlyphClass: 3
Flags: W
LayerCount: 2
Fore
SplineSet
-6 1555 m 257
 -6 1355 l 257
 1016 1355 l 257
 1016 1555 l 257
 -6 1555 l 257
683 1130 m 257
 342 1130 l 257
 342 931 l 257
 683 931 l 257
 683 1130 l 257
339 1130 m 257
 339 584 l 257
 539 584 l 257
 539 1130 l 257
 339 1130 l 257
417 639 m 257
 417 439 l 257
 667 439 l 257
 667 639 l 257
 417 639 l 257
334 493 m 257
 334 0 l 257
 534 0 l 257
 534 493 l 257
 334 493 l 257
334 199 m 257
 334 0 l 257
 1019 0 l 257
 1019 199 l 257
 334 199 l 257
EndSplineSet
Ligature2: "halfHalfFormsinDevanagarilookup0 subtable" uni091B uni094D
EndChar

StartChar: uni091C_uni094D.half
Encoding: 598 -1 562
GlifName: uni091C__uni094D_.half
Width: 1024
VWidth: 0
GlyphClass: 3
Flags: W
LayerCount: 2
Fore
SplineSet
-34 1551 m 257
 -34 1350 l 257
 1024 1350 l 257
 1024 1551 l 257
 -34 1551 l 257
547 860 m 257
 547 663 l 257
 1061 663 l 257
 1061 860 l 257
 547 860 l 257
501 860 m 257
 501 413 l 257
 701 413 l 257
 701 860 l 257
 501 860 l 257
191 567 m 257
 191 367 l 257
 701 367 l 257
 701 567 l 257
 191 567 l 257
191 727 m 257
 191 509 l 257
 391 509 l 257
 391 727 l 257
 191 727 l 257
EndSplineSet
Ligature2: "halfHalfFormsinDevanagarilookup0 subtable" uni091C uni094D
EndChar

StartChar: uni091D_uni094D.half
Encoding: 599 -1 563
GlifName: uni091D__uni094D_.half
Width: 1024
VWidth: 0
GlyphClass: 3
Flags: W
LayerCount: 2
Fore
SplineSet
-18 1549 m 257
 -18 1349 l 257
 1023 1349 l 257
 1023 1549 l 257
 -18 1549 l 257
447 1537 m 257
 447 1024 l 257
 646 1024 l 257
 646 1537 l 257
 447 1537 l 257
125 1223 m 257
 125 1024 l 257
 646 1024 l 257
 646 1223 l 257
 125 1223 l 257
125 1085 m 257
 125 651 l 257
 325 651 l 257
 325 1085 l 257
 125 1085 l 257
125 837 m 257
 125 638 l 257
 1074 638 l 257
 1074 837 l 257
 125 837 l 257
418 691 m 257
 418 7 l 257
 618 7 l 257
 618 691 l 257
 418 691 l 257
125 203 m 257
 125 3 l 257
 618 3 l 257
 618 203 l 257
 125 203 l 257
125 63 m 257
 125 -148 l 257
 325 -148 l 257
 325 63 l 257
 125 63 l 257
EndSplineSet
Ligature2: "halfHalfFormsinDevanagarilookup0 subtable" uni091D uni094D
EndChar

StartChar: uni091E_uni094D.half
Encoding: 600 -1 564
GlifName: uni091E__uni094D_.half
Width: 1024
VWidth: 0
GlyphClass: 3
Flags: W
LayerCount: 2
Fore
SplineSet
-5 1548 m 257
 -5 1348 l 257
 1029 1348 l 257
 1029 1548 l 257
 -5 1548 l 257
665 737 m 257
 665 537 l 257
 1032 537 l 257
 1032 737 l 257
 665 737 l 257
284 960 m 257
 284 760 l 257
 642 760 l 257
 642 960 l 257
 284 960 l 257
611 960 m 257
 611 316 l 257
 811 316 l 257
 811 960 l 257
 611 960 l 257
261 460 m 257
 261 260 l 257
 811 260 l 257
 811 460 l 257
 261 460 l 257
EndSplineSet
Ligature2: "halfHalfFormsinDevanagarilookup0 subtable" uni091E uni094D
EndChar

StartChar: uni091F_uni094D.half
Encoding: 601 -1 565
GlifName: uni091F__uni094D_.half
Width: 1024
VWidth: 0
GlyphClass: 3
Flags: W
LayerCount: 2
Fore
SplineSet
10 1549 m 257
 10 1348 l 257
 1024 1348 l 257
 1024 1549 l 257
 10 1549 l 257
569 1528 m 257
 569 988 l 257
 769 988 l 257
 769 1528 l 257
 569 1528 l 257
769 1023 m 257
 120 1023 l 257
 120 822 l 257
 769 822 l 257
 769 1023 l 257
99 1024 m 257
 99 205 l 257
 299 205 l 257
 299 1024 l 257
 99 1024 l 257
99 401 m 257
 99 200 l 257
 812 200 l 257
 812 401 l 257
 99 401 l 257
311 126 m 257
 311 -70 l 257
 668 -70 l 257
 668 126 l 257
 311 126 l 257
527 -35 m 257
 864 -440 l 257
 1008 -277 l 257
 670 127 l 257
 527 -35 l 257
EndSplineSet
Ligature2: "halfHalfFormsinDevanagarilookup0 subtable" uni091F uni094D
EndChar

StartChar: uni0920_uni094D.half
Encoding: 602 -1 566
GlifName: uni0920_uni094D_.half
Width: 1024
VWidth: 0
GlyphClass: 3
Flags: W
LayerCount: 2
Fore
SplineSet
0 1551 m 257
 0 1350 l 257
 1026 1350 l 257
 1026 1551 l 257
 0 1551 l 257
457 1484 m 257
 457 1023 l 257
 657 1023 l 257
 657 1484 l 257
 457 1484 l 257
85 1035 m 257
 85 834 l 257
 963 834 l 257
 963 1035 l 257
 85 1035 l 257
72 1035 m 257
 72 213 l 257
 272 213 l 257
 272 1035 l 257
 72 1035 l 257
763 1035 m 257
 763 198 l 257
 963 198 l 257
 963 1035 l 257
 763 1035 l 257
73 398 m 257
 73 197 l 257
 943 197 l 257
 943 398 l 257
 73 398 l 257
472 178 m 257
 472 -18 l 257
 829 -18 l 257
 829 178 l 257
 472 178 l 257
688 17 m 257
 1025 -388 l 257
 1169 -225 l 257
 831 179 l 257
 688 17 l 257
EndSplineSet
Ligature2: "halfHalfFormsinDevanagarilookup0 subtable" uni0920 uni094D
EndChar

StartChar: uni0921_uni094D.half
Encoding: 603 -1 567
GlifName: uni0921_uni094D_.half
Width: 1024
VWidth: 0
GlyphClass: 3
Flags: W
LayerCount: 2
Fore
SplineSet
2 1549 m 257
 2 1345 l 257
 1029 1345 l 257
 1029 1549 l 257
 2 1549 l 257
384 1545 m 257
 384 1014 l 257
 583 1014 l 257
 583 1545 l 257
 384 1545 l 257
384 1025 m 257
 384 815 l 257
 927 815 l 257
 927 1025 l 257
 384 1025 l 257
754 1025 m 257
 754 205 l 257
 953 205 l 257
 953 1025 l 257
 754 1025 l 257
62 400 m 257
 62 200 l 257
 953 200 l 257
 953 400 l 257
 62 400 l 257
62 531 m 257
 62 205 l 257
 262 205 l 257
 262 531 l 257
 62 531 l 257
447 178 m 257
 447 -18 l 257
 804 -18 l 257
 804 178 l 257
 447 178 l 257
663 17 m 257
 1000 -388 l 257
 1144 -225 l 257
 806 179 l 257
 663 17 l 257
EndSplineSet
Ligature2: "halfHalfFormsinDevanagarilookup0 subtable" uni0921 uni094D
EndChar

StartChar: uni0922_uni094D.half
Encoding: 604 -1 568
GlifName: uni0922_uni094D_.half
Width: 1024
VWidth: 0
GlyphClass: 3
Flags: W
LayerCount: 2
Fore
SplineSet
10 1549 m 257
 10 1348 l 257
 1024 1348 l 257
 1024 1549 l 257
 10 1549 l 257
569 1528 m 257
 569 988 l 257
 769 988 l 257
 769 1528 l 257
 569 1528 l 257
769 1023 m 257
 120 1023 l 257
 120 822 l 257
 769 822 l 257
 769 1023 l 257
99 1024 m 257
 99 205 l 257
 299 205 l 257
 299 1024 l 257
 99 1024 l 257
99 401 m 257
 99 200 l 257
 812 200 l 257
 812 401 l 257
 99 401 l 257
613 744 m 257
 613 198 l 257
 814 198 l 257
 814 744 l 257
 613 744 l 257
560 747 m 257
 560 547 l 257
 812 547 l 257
 812 747 l 257
 560 747 l 257
447 178 m 257
 447 -18 l 257
 804 -18 l 257
 804 178 l 257
 447 178 l 257
663 17 m 257
 1000 -388 l 257
 1144 -225 l 257
 806 179 l 257
 663 17 l 257
EndSplineSet
Ligature2: "halfHalfFormsinDevanagarilookup0 subtable" uni0922 uni094D
EndChar

StartChar: uni0923_uni094D.half
Encoding: 605 -1 569
GlifName: uni0923_uni094D_.half
Width: 1024
VWidth: 0
GlyphClass: 3
Flags: W
LayerCount: 2
Fore
SplineSet
-1 1548 m 257
 -1 1350 l 257
 1029 1350 l 257
 1029 1548 l 257
 -1 1548 l 257
309 1543 m 257
 309 855 l 257
 509 855 l 257
 509 1543 l 257
 309 1543 l 257
665 1528 m 257
 665 844 l 257
 865 844 l 257
 865 1528 l 257
 665 1528 l 257
309 1024 m 257
 309 825 l 257
 865 825 l 257
 865 1024 l 257
 309 1024 l 257
EndSplineSet
Ligature2: "halfHalfFormsinDevanagarilookup0 subtable" uni0923 uni094D
EndChar

StartChar: uni0924_uni094D.half
Encoding: 606 -1 570
GlifName: uni0924_uni094D_.half
Width: 1024
VWidth: 0
GlyphClass: 3
Flags: W
LayerCount: 2
Fore
SplineSet
-30 1562 m 257
 -30 1362 l 257
 1020 1362 l 257
 1020 1562 l 257
 -30 1562 l 257
1084 788 m 257
 405 788 l 257
 405 588 l 257
 1084 588 l 257
 1084 788 l 257
405 766 m 257
 405 26 l 257
 605 26 l 257
 605 766 l 257
 405 766 l 257
EndSplineSet
Ligature2: "halfHalfFormsinDevanagarilookup0 subtable" uni0924 uni094D
EndChar

StartChar: uni0925_uni094D.half
Encoding: 607 -1 571
GlifName: uni0925_uni094D_.half
Width: 1024
VWidth: 0
GlyphClass: 3
Flags: W
LayerCount: 2
Fore
SplineSet
646 1548 m 257
 646 1350 l 257
 1030 1350 l 257
 1030 1548 l 257
 646 1548 l 257
34 1550 m 257
 34 1350 l 257
 479 1350 l 257
 479 1550 l 257
 34 1550 l 257
278 1413 m 257
 278 927 l 257
 478 927 l 257
 478 1413 l 257
 278 1413 l 257
479 1018 m 257
 38 1018 l 257
 38 810 l 257
 479 810 l 257
 479 1018 l 257
38 946 m 257
 38 132 l 257
 237 132 l 257
 237 946 l 257
 38 946 l 257
38 331 m 257
 38 132 l 257
 981 132 l 257
 981 331 l 257
 38 331 l 257
EndSplineSet
Ligature2: "halfHalfFormsinDevanagarilookup0 subtable" uni0925 uni094D
EndChar

StartChar: uni0926_uni094D.half
Encoding: 608 -1 572
GlifName: uni0926_uni094D_.half
Width: 1024
VWidth: 0
GlyphClass: 3
Flags: W
LayerCount: 2
Fore
SplineSet
7 1550 m 257
 7 1350 l 257
 1022 1350 l 257
 1022 1550 l 257
 7 1550 l 257
484 1509 m 257
 484 923 l 257
 684 923 l 257
 684 1509 l 257
 484 1509 l 257
683 1020 m 257
 61 1020 l 257
 61 821 l 257
 683 821 l 257
 683 1020 l 257
57 996 m 257
 57 419 l 257
 257 419 l 257
 257 996 l 257
 57 996 l 257
57 546 m 257
 57 346 l 257
 689 346 l 257
 689 546 l 257
 57 546 l 257
493 606 m 257
 493 193 l 257
 693 193 l 257
 693 606 l 257
 493 606 l 257
327 178 m 257
 327 -18 l 257
 684 -18 l 257
 684 178 l 257
 327 178 l 257
543 17 m 257
 880 -388 l 257
 1024 -225 l 257
 686 179 l 257
 543 17 l 257
EndSplineSet
Ligature2: "halfHalfFormsinDevanagarilookup0 subtable" uni0926 uni094D
EndChar

